<?xml version="1.0" encoding="UTF-8"?>
<svg width="700pt" height="700pt" version="1.1" viewBox="0 0 700 700" xmlns="http://www.w3.org/2000/svg">
 <path d="m604.16 128.36c-10.629-46.207-42.785-84.508-86.453-102.97-44.645-16.039-94.273-9.6602-133.41 17.145-43.582 28.395-77.176 69.727-96.059 118.19-52.871-19.008-107.42-15.086-147.74 16.027-71.895 55.488-71.68 176.68 0.46094 270.12h0.003906c32.07 42.973 77.109 74.496 128.47 89.914 15.621 4.4062 31.766 6.6758 47.996 6.7539 30.57 0.46094 60.41-9.3516 84.742-27.871 27.758-22.195 46.016-54.137 51.059-89.32 59.59-18.25 112.66-71.582 140-141.65v0.003906c20.301-49.598 24.137-104.4 10.934-156.34zm-202.45-57.828c23.438-15.602 51.461-22.816 79.52-20.473l-20.738 23.059c-18.762 20.82-31.949 46.051-38.336 73.34-6.3867 27.289-5.7656 55.75 1.8047 82.734 5.0742 18.281 6.1953 37.434 3.293 56.184-7.3359-13.988-15.867-27.312-25.496-39.828-22.496-29.395-50.945-53.707-83.488-71.352 16.223-42.469 45.418-78.742 83.441-103.66zm-123.53 434.53c-44.477-13.523-83.438-40.973-111.14-78.301-53.859-69.77-62.359-156.11-24.164-205.88l9.125 29.648h0.003907c8.1758 26.805 23.004 51.105 43.105 70.637 20.098 19.531 44.812 33.656 71.84 41.066 44.082 12.082 78.898 45.914 92.238 89.633l13.57 44.125c-28.918 15.992-63.176 19.281-94.605 9.0742zm121.65-33.352-9.125-29.648c-8.1797-26.805-23.008-51.105-43.105-70.637-20.102-19.531-44.812-33.66-71.844-41.066-44.078-12.09-78.891-45.918-92.234-89.633l-13.508-43.879c16.82-10.027 36.074-15.234 55.656-15.055 50.812 0 108.59 30.258 150.03 83.918 53.793 69.785 62.289 156.12 24.094 206zm162.75-198.95c-9.1211 25.738-23.262 49.414-41.598 69.648-18.34 20.234-40.512 36.629-65.23 48.23-0.51172-19.184-3.4961-38.223-8.8789-56.641 16.184-35.676 19.309-75.902 8.8281-113.65-12.336-43.992-1.2695-91.238 29.316-125.18l30.816-34.359c28.609 16.531 49.078 44.188 56.527 76.375 11.34 45.07 7.9102 92.594-9.7812 135.57z"/>
</svg>
