<?xml version="1.0" encoding="UTF-8"?>
<svg width="174px" height="38px" viewBox="0 0 174 38" version="1.1" xmlns="http://www.w3.org/2000/svg" xmlns:xlink="http://www.w3.org/1999/xlink">
    <title>logo</title>
    <desc>Created with Sketch.</desc>
    <defs>
        <path d="M59.792,12.454 L59.792,23.686 L57.056,23.686 L57.056,16.95 L54.544,23.686 L52.336,23.686 L49.808,16.934 L49.808,23.686 L47.072,23.686 L47.072,12.454 L50.304,12.454 L53.456,20.23 L56.576,12.454 L59.792,12.454 Z M70.176,19.078 C70.176,19.3340013 70.1600002,19.6006653 70.128,19.878 L63.936,19.878 C63.9786669,20.4326694 64.1573318,20.8566652 64.472,21.15 C64.7866682,21.4433348 65.173331,21.59 65.632,21.59 C66.3146701,21.59 66.789332,21.3020029 67.056,20.726 L69.968,20.726 C69.8186659,21.3126696 69.5493353,21.8406643 69.16,22.31 C68.7706647,22.7793357 68.2826696,23.147332 67.696,23.414 C67.1093304,23.680668 66.453337,23.814 65.728,23.814 C64.853329,23.814 64.0746701,23.6273352 63.392,23.254 C62.7093299,22.8806648 62.1760019,22.3473368 61.792,21.654 C61.4079981,20.9606632 61.216,20.1500046 61.216,19.222 C61.216,18.2939954 61.4053314,17.4833368 61.784,16.79 C62.1626686,16.0966632 62.6933299,15.5633352 63.376,15.19 C64.0586701,14.8166648 64.8426622,14.63 65.728,14.63 C66.5920043,14.63 67.3599966,14.8113315 68.032,15.174 C68.7040034,15.5366685 69.2293314,16.0539966 69.608,16.726 C69.9866686,17.3980034 70.176,18.1819955 70.176,19.078 Z M67.376,18.358 C67.376,17.8886643 67.2160016,17.5153347 66.896,17.238 C66.5759984,16.9606653 66.1760024,16.822 65.696,16.822 C65.237331,16.822 64.8506682,16.955332 64.536,17.222 C64.2213318,17.488668 64.026667,17.8673309 63.952,18.358 L67.376,18.358 Z M74.352,11.846 L74.352,23.686 L71.616,23.686 L71.616,11.846 L74.352,11.846 Z M75.792,19.206 C75.792,18.2886621 75.9653316,17.4833368 76.312,16.79 C76.6586684,16.0966632 77.1306637,15.5633352 77.728,15.19 C78.3253363,14.8166648 78.9919963,14.63 79.728,14.63 C80.3573365,14.63 80.909331,14.7579987 81.384,15.014 C81.858669,15.2700013 82.2239987,15.6059979 82.48,16.022 L82.48,14.758 L85.216,14.758 L85.216,23.686 L82.48,23.686 L82.48,22.422 C82.213332,22.8380021 81.842669,23.1739987 81.368,23.43 C80.893331,23.6860013 80.3413365,23.814 79.712,23.814 C78.986663,23.814 78.3253363,23.6246686 77.728,23.246 C77.1306637,22.8673314 76.6586684,22.3286702 76.312,21.63 C75.9653316,20.9313298 75.792,20.1233379 75.792,19.206 Z M82.48,19.222 C82.48,18.5393299 82.2906686,18.0006686 81.912,17.606 C81.5333314,17.2113314 81.0720027,17.014 80.528,17.014 C79.9839973,17.014 79.5226686,17.2086647 79.144,17.598 C78.7653314,17.9873353 78.576,18.5233299 78.576,19.206 C78.576,19.8886701 78.7653314,20.429998 79.144,20.83 C79.5226686,21.230002 79.9839973,21.43 80.528,21.43 C81.0720027,21.43 81.5333314,21.2326686 81.912,20.838 C82.2906686,20.4433314 82.48,19.9046701 82.48,19.222 Z M92.64,14.662 C93.6853386,14.662 94.5199969,15.0006633 95.144,15.678 C95.7680031,16.3553367 96.08,17.2859941 96.08,18.47 L96.08,23.686 L93.36,23.686 L93.36,18.838 C93.36,18.2406637 93.2053349,17.7766683 92.896,17.446 C92.5866651,17.1153317 92.1706693,16.95 91.648,16.95 C91.1253307,16.95 90.7093349,17.1153317 90.4,17.446 C90.0906651,17.7766683 89.936,18.2406637 89.936,18.838 L89.936,23.686 L87.2,23.686 L87.2,14.758 L89.936,14.758 L89.936,15.942 C90.2133347,15.5473314 90.5866643,15.2353345 91.056,15.006 C91.5253357,14.7766655 92.0533304,14.662 92.64,14.662 Z M99.36,13.83 C98.8799976,13.83 98.4880015,13.6886681 98.184,13.406 C97.8799985,13.1233319 97.728,12.7740021 97.728,12.358 C97.728,11.9313312 97.8799985,11.5766681 98.184,11.294 C98.4880015,11.0113319 98.8799976,10.87 99.36,10.87 C99.8293357,10.87 100.215998,11.0113319 100.52,11.294 C100.824002,11.5766681 100.976,11.9313312 100.976,12.358 C100.976,12.7740021 100.824002,13.1233319 100.52,13.406 C100.215998,13.6886681 99.8293357,13.83 99.36,13.83 Z M100.72,14.758 L100.72,23.686 L97.984,23.686 L97.984,14.758 L100.72,14.758 Z M111.12,19.078 C111.12,19.3340013 111.104,19.6006653 111.072,19.878 L104.88,19.878 C104.922667,20.4326694 105.101332,20.8566652 105.416,21.15 C105.730668,21.4433348 106.117331,21.59 106.576,21.59 C107.25867,21.59 107.733332,21.3020029 108,20.726 L110.912,20.726 C110.762666,21.3126696 110.493335,21.8406643 110.104,22.31 C109.714665,22.7793357 109.22667,23.147332 108.64,23.414 C108.05333,23.680668 107.397337,23.814 106.672,23.814 C105.797329,23.814 105.01867,23.6273352 104.336,23.254 C103.65333,22.8806648 103.120002,22.3473368 102.736,21.654 C102.351998,20.9606632 102.16,20.1500046 102.16,19.222 C102.16,18.2939954 102.349331,17.4833368 102.728,16.79 C103.106669,16.0966632 103.63733,15.5633352 104.32,15.19 C105.00267,14.8166648 105.786662,14.63 106.672,14.63 C107.536004,14.63 108.303997,14.8113315 108.976,15.174 C109.648003,15.5366685 110.173331,16.0539966 110.552,16.726 C110.930669,17.3980034 111.12,18.1819955 111.12,19.078 Z M108.32,18.358 C108.32,17.8886643 108.160002,17.5153347 107.84,17.238 C107.519998,16.9606653 107.120002,16.822 106.64,16.822 C106.181331,16.822 105.794668,16.955332 105.48,17.222 C105.165332,17.488668 104.970667,17.8673309 104.896,18.358 L108.32,18.358 Z M118.688,21.574 L122.272,21.574 L122.272,23.686 L115.952,23.686 L115.952,12.454 L118.688,12.454 L118.688,21.574 Z M124.96,13.83 C124.479998,13.83 124.088002,13.6886681 123.784,13.406 C123.479998,13.1233319 123.328,12.7740021 123.328,12.358 C123.328,11.9313312 123.479998,11.5766681 123.784,11.294 C124.088002,11.0113319 124.479998,10.87 124.96,10.87 C125.429336,10.87 125.815998,11.0113319 126.12,11.294 C126.424002,11.5766681 126.576,11.9313312 126.576,12.358 C126.576,12.7740021 126.424002,13.1233319 126.12,13.406 C125.815998,13.6886681 125.429336,13.83 124.96,13.83 Z M126.32,14.758 L126.32,23.686 L123.584,23.686 L123.584,14.758 L126.32,14.758 Z M133.744,14.662 C134.789339,14.662 135.623997,15.0006633 136.248,15.678 C136.872003,16.3553367 137.184,17.2859941 137.184,18.47 L137.184,23.686 L134.464,23.686 L134.464,18.838 C134.464,18.2406637 134.309335,17.7766683 134,17.446 C133.690665,17.1153317 133.274669,16.95 132.752,16.95 C132.229331,16.95 131.813335,17.1153317 131.504,17.446 C131.194665,17.7766683 131.04,18.2406637 131.04,18.838 L131.04,23.686 L128.304,23.686 L128.304,14.758 L131.04,14.758 L131.04,15.942 C131.317335,15.5473314 131.690664,15.2353345 132.16,15.006 C132.629336,14.7766655 133.15733,14.662 133.744,14.662 Z M138.544,19.206 C138.544,18.2886621 138.717332,17.4833368 139.064,16.79 C139.410668,16.0966632 139.882664,15.5633352 140.48,15.19 C141.077336,14.8166648 141.743996,14.63 142.48,14.63 C143.109336,14.63 143.661331,14.7579987 144.136,15.014 C144.610669,15.2700013 144.975999,15.6059979 145.232,16.022 L145.232,14.758 L147.968,14.758 L147.968,23.686 L145.232,23.686 L145.232,22.422 C144.965332,22.8380021 144.594669,23.1739987 144.12,23.43 C143.645331,23.6860013 143.093336,23.814 142.464,23.814 C141.738663,23.814 141.077336,23.6246686 140.48,23.246 C139.882664,22.8673314 139.410668,22.3286702 139.064,21.63 C138.717332,20.9313298 138.544,20.1233379 138.544,19.206 Z M145.232,19.222 C145.232,18.5393299 145.042669,18.0006686 144.664,17.606 C144.285331,17.2113314 143.824003,17.014 143.28,17.014 C142.735997,17.014 142.274669,17.2086647 141.896,17.598 C141.517331,17.9873353 141.328,18.5233299 141.328,19.206 C141.328,19.8886701 141.517331,20.429998 141.896,20.83 C142.274669,21.230002 142.735997,21.43 143.28,21.43 C143.824003,21.43 144.285331,21.2326686 144.664,20.838 C145.042669,20.4433314 145.232,19.9046701 145.232,19.222 Z M152.688,16.246 C153.008002,15.7553309 153.407998,15.3686681 153.888,15.086 C154.368002,14.8033319 154.90133,14.662 155.488,14.662 L155.488,17.558 L154.736,17.558 C154.05333,17.558 153.541335,17.7046652 153.2,17.998 C152.858665,18.2913348 152.688,18.8059963 152.688,19.542 L152.688,23.686 L149.952,23.686 L149.952,14.758 L152.688,14.758 L152.688,16.246 Z M165.216,19.078 C165.216,19.3340013 165.2,19.6006653 165.168,19.878 L158.976,19.878 C159.018667,20.4326694 159.197332,20.8566652 159.512,21.15 C159.826668,21.4433348 160.213331,21.59 160.672,21.59 C161.35467,21.59 161.829332,21.3020029 162.096,20.726 L165.008,20.726 C164.858666,21.3126696 164.589335,21.8406643 164.2,22.31 C163.810665,22.7793357 163.32267,23.147332 162.736,23.414 C162.14933,23.680668 161.493337,23.814 160.768,23.814 C159.893329,23.814 159.11467,23.6273352 158.432,23.254 C157.74933,22.8806648 157.216002,22.3473368 156.832,21.654 C156.447998,20.9606632 156.256,20.1500046 156.256,19.222 C156.256,18.2939954 156.445331,17.4833368 156.824,16.79 C157.202669,16.0966632 157.73333,15.5633352 158.416,15.19 C159.09867,14.8166648 159.882662,14.63 160.768,14.63 C161.632004,14.63 162.399997,14.8113315 163.072,15.174 C163.744003,15.5366685 164.269331,16.0539966 164.648,16.726 C165.026669,17.3980034 165.216,18.1819955 165.216,19.078 Z M162.416,18.358 C162.416,17.8886643 162.256002,17.5153347 161.936,17.238 C161.615998,16.9606653 161.216002,16.822 160.736,16.822 C160.277331,16.822 159.890668,16.955332 159.576,17.222 C159.261332,17.488668 159.066667,17.8673309 158.992,18.358 L162.416,18.358 Z M170.288,23.814 C169.509329,23.814 168.816003,23.680668 168.208,23.414 C167.599997,23.147332 167.120002,22.7820023 166.768,22.318 C166.415998,21.8539977 166.218667,21.3340029 166.176,20.758 L168.88,20.758 C168.912,21.0673349 169.055999,21.317999 169.312,21.51 C169.568001,21.702001 169.882665,21.798 170.256,21.798 C170.597335,21.798 170.861332,21.731334 171.048,21.598 C171.234668,21.464666 171.328,21.2913344 171.328,21.078 C171.328,20.8219987 171.194668,20.6326673 170.928,20.51 C170.661332,20.3873327 170.229336,20.2513341 169.632,20.102 C168.991997,19.9526659 168.458669,19.7953342 168.032,19.63 C167.605331,19.4646658 167.237335,19.2033351 166.928,18.846 C166.618665,18.4886649 166.464,18.006003 166.464,17.398 C166.464,16.8859974 166.605332,16.4193354 166.888,15.998 C167.170668,15.5766646 167.586664,15.2433346 168.136,14.998 C168.685336,14.7526654 169.338663,14.63 170.096,14.63 C171.216006,14.63 172.098663,14.9073306 172.744,15.462 C173.389337,16.0166694 173.76,16.7526621 173.856,17.67 L171.328,17.67 C171.285333,17.3606651 171.149334,17.1153342 170.92,16.934 C170.690666,16.7526658 170.389335,16.662 170.016,16.662 C169.695998,16.662 169.450668,16.7233327 169.28,16.846 C169.109332,16.9686673 169.024,17.1366656 169.024,17.35 C169.024,17.6060013 169.159999,17.7979994 169.432,17.926 C169.704001,18.0540006 170.127997,18.1819994 170.704,18.31 C171.365337,18.4806675 171.903998,18.6486658 172.32,18.814 C172.736002,18.9793342 173.101332,19.2459982 173.416,19.614 C173.730668,19.9820018 173.893333,20.4753302 173.904,21.094 C173.904,21.6166693 173.757335,22.0833313 173.464,22.494 C173.170665,22.9046687 172.749336,23.2273322 172.2,23.462 C171.650664,23.6966678 171.013337,23.814 170.288,23.814 Z" id="path-1"></path>
    </defs>
    <g id="Page-1" stroke="none" stroke-width="1" fill="none" fill-rule="evenodd">
        <g id="MelanieLinares" fill-rule="nonzero">
            <use fill="#000000" xlink:href="#path-1"></use>
            <use fill="#2740CA" xlink:href="#path-1"></use>
        </g>
        <g id="Group_342">
            <g id="Group_341">
                <g id="Path_177">
                    <path d="M19,0 C24.6870079,0.00617832408 30.0737237,2.55337935 33.687,6.945 C36.4901554,10.3353254 38.0162939,14.6009408 38,19 C38,29.4934102 29.4934102,38 19,38 C8.50658975,38 1.28507213e-15,29.4934102 0,19 C-1.28507213e-15,8.50658975 8.50658975,1.92760819e-15 19,0 Z" id="Path"></path>
                    <path d="M19.0000267,2.59999847 C14.6194267,2.59999847 10.5010166,4.30589676 7.40345764,7.40345764 C4.30589676,10.5010166 2.59999847,14.6194267 2.59999847,19.0000267 C2.59999847,23.3806381 4.30589676,27.4990463 7.40345764,30.5965958 C10.5010166,33.6941566 14.6194267,35.4000549 19.0000267,35.4000549 C23.3806381,35.4000549 27.4990463,33.6941566 30.5965958,30.5965958 C33.6941566,27.4990463 35.4000549,23.3806381 35.4000549,19.0000267 C35.4000549,15.1577072 34.0835953,11.4692364 31.6926365,8.61344719 C30.1131973,6.72569656 28.2191353,5.24211502 26.0630875,4.20391846 C23.8528557,3.13963699 21.4764977,2.59999847 19.0000267,2.59999847 L19.0000267,2.59999847 Z M19.0000267,-3.81469727e-06 C24.8553276,-3.81469727e-06 30.0919971,2.64861679 33.6867256,6.9450264 C36.3381462,10.111927 38.0000572,14.3618965 38.0000572,19.0000267 C38.0000572,29.4934578 29.4934578,38.0000572 19.0000267,38.0000572 C8.50660706,38.0000572 -3.81469727e-06,29.4934578 -3.81469727e-06,19.0000267 C-3.81469727e-06,8.50660706 8.50660706,-3.81469727e-06 19.0000267,-3.81469727e-06 Z" id="Shape" fill="#2740CA" fill-rule="nonzero"></path>
                </g>
                <g id="Group_227" transform="translate(7.349000, 10.381000)" fill="#2740CA" fill-rule="nonzero">
                    <rect id="Rectangle_1405" transform="translate(19.102000, 4.242000) rotate(-180.000000) translate(-19.102000, -4.242000) " x="17.727" y="2.867" width="2.75" height="2.75"></rect>
                    <path d="M11.879,13.6281141 C15.805,13.6281141 17.751,17.5281141 17.751,19.6821141 L20.501,19.6821141 C20.469,15.2091141 17.301,10.8001141 11.879,10.8001141 C9.51546803,10.7881407 7.24461657,11.7185996 5.56901459,13.3855684 C3.89341261,15.0525371 2.95123575,17.3185519 2.951,19.6821141 L5.751,19.6821141 C5.751,17.3761141 7.953,13.6281141 11.879,13.6281141 Z" id="Path_72" transform="translate(11.726000, 15.241057) rotate(-180.000000) translate(-11.726000, -15.241057) "></path>
                    <rect id="Rectangle_1292" transform="translate(4.336000, 4.242000) rotate(-180.000000) translate(-4.336000, -4.242000) " x="0" y="2.867" width="8.672" height="2.75"></rect>
                    <polygon id="Path_382" transform="translate(4.307000, 4.336500) rotate(-90.000000) translate(-4.307000, -4.336500) " points="-0.0295 2.9615 8.6435 2.9615 8.6435 5.7115 -0.0295 5.7115"></polygon>
                </g>
            </g>
        </g>
    </g>
</svg>