<?xml version="1.0" encoding="UTF-8"?>
<svg width="112px" height="38px" viewBox="0 0 112 38" version="1.1" xmlns="http://www.w3.org/2000/svg" xmlns:xlink="http://www.w3.org/1999/xlink">
    <!-- Generator: Sketch 53.2 (72643) - https://sketchapp.com -->
    <title>Slice 1</title>
    <desc>Created with Sketch.</desc>
    <defs>
        <path d="M13.712,5.768 L13.712,17 L10.976,17 L10.976,10.264 L8.464,17 L6.256,17 L3.728,10.248 L3.728,17 L0.992,17 L0.992,5.768 L4.224,5.768 L7.376,13.544 L10.496,5.768 L13.712,5.768 Z M24.096,12.392 C24.096,12.6480013 24.0800002,12.9146653 24.048,13.192 L17.856,13.192 C17.8986669,13.7466694 18.0773318,14.1706652 18.392,14.464 C18.7066682,14.7573348 19.093331,14.904 19.552,14.904 C20.2346701,14.904 20.709332,14.6160029 20.976,14.04 L23.888,14.04 C23.7386659,14.6266696 23.4693353,15.1546643 23.08,15.624 C22.6906647,16.0933357 22.2026696,16.461332 21.616,16.728 C21.0293304,16.994668 20.373337,17.128 19.648,17.128 C18.773329,17.128 17.9946701,16.9413352 17.312,16.568 C16.6293299,16.1946648 16.0960019,15.6613368 15.712,14.968 C15.3279981,14.2746632 15.136,13.4640046 15.136,12.536 C15.136,11.6079954 15.3253314,10.7973368 15.704,10.104 C16.0826686,9.4106632 16.6133299,8.8773352 17.296,8.504 C17.9786701,8.1306648 18.7626622,7.944 19.648,7.944 C20.5120043,7.944 21.2799966,8.12533152 21.952,8.488 C22.6240034,8.85066848 23.1493314,9.36799664 23.528,10.04 C23.9066686,10.7120034 24.096,11.4959955 24.096,12.392 Z M21.296,11.672 C21.296,11.2026643 21.1360016,10.8293347 20.816,10.552 C20.4959984,10.2746653 20.0960024,10.136 19.616,10.136 C19.157331,10.136 18.7706682,10.269332 18.456,10.536 C18.1413318,10.802668 17.946667,11.1813309 17.872,11.672 L21.296,11.672 Z M28.272,5.16 L28.272,17 L25.536,17 L25.536,5.16 L28.272,5.16 Z M29.712,12.52 C29.712,11.6026621 29.8853316,10.7973368 30.232,10.104 C30.5786684,9.4106632 31.0506637,8.8773352 31.648,8.504 C32.2453363,8.1306648 32.9119963,7.944 33.648,7.944 C34.2773365,7.944 34.829331,8.07199872 35.304,8.328 C35.778669,8.58400128 36.1439987,8.91999792 36.4,9.336 L36.4,8.072 L39.136,8.072 L39.136,17 L36.4,17 L36.4,15.736 C36.133332,16.1520021 35.762669,16.4879987 35.288,16.744 C34.813331,17.0000013 34.2613365,17.128 33.632,17.128 C32.906663,17.128 32.2453363,16.9386686 31.648,16.56 C31.0506637,16.1813314 30.5786684,15.6426702 30.232,14.944 C29.8853316,14.2453298 29.712,13.4373379 29.712,12.52 Z M36.4,12.536 C36.4,11.8533299 36.2106686,11.3146686 35.832,10.92 C35.4533314,10.5253314 34.9920027,10.328 34.448,10.328 C33.9039973,10.328 33.4426686,10.5226647 33.064,10.912 C32.6853314,11.3013353 32.496,11.8373299 32.496,12.52 C32.496,13.2026701 32.6853314,13.743998 33.064,14.144 C33.4426686,14.544002 33.9039973,14.744 34.448,14.744 C34.9920027,14.744 35.4533314,14.5466686 35.832,14.152 C36.2106686,13.7573314 36.4,13.2186701 36.4,12.536 Z M46.56,7.976 C47.6053386,7.976 48.4399969,8.31466328 49.064,8.992 C49.6880031,9.66933672 50,10.5999941 50,11.784 L50,17 L47.28,17 L47.28,12.152 C47.28,11.5546637 47.1253349,11.0906683 46.816,10.76 C46.5066651,10.4293317 46.0906693,10.264 45.568,10.264 C45.0453307,10.264 44.6293349,10.4293317 44.32,10.76 C44.0106651,11.0906683 43.856,11.5546637 43.856,12.152 L43.856,17 L41.12,17 L41.12,8.072 L43.856,8.072 L43.856,9.256 C44.1333347,8.86133136 44.5066643,8.54933448 44.976,8.32 C45.4453357,8.09066552 45.9733304,7.976 46.56,7.976 Z M53.28,7.144 C52.7999976,7.144 52.4080015,7.00266808 52.104,6.72 C51.7999985,6.43733192 51.648,6.08800208 51.648,5.672 C51.648,5.2453312 51.7999985,4.89066808 52.104,4.608 C52.4080015,4.32533192 52.7999976,4.184 53.28,4.184 C53.7493357,4.184 54.1359985,4.32533192 54.44,4.608 C54.7440015,4.89066808 54.896,5.2453312 54.896,5.672 C54.896,6.08800208 54.7440015,6.43733192 54.44,6.72 C54.1359985,7.00266808 53.7493357,7.144 53.28,7.144 Z M54.64,8.072 L54.64,17 L51.904,17 L51.904,8.072 L54.64,8.072 Z M65.04,12.392 C65.04,12.6480013 65.0240002,12.9146653 64.992,13.192 L58.8,13.192 C58.8426669,13.7466694 59.0213318,14.1706652 59.336,14.464 C59.6506682,14.7573348 60.037331,14.904 60.496,14.904 C61.1786701,14.904 61.653332,14.6160029 61.92,14.04 L64.832,14.04 C64.6826659,14.6266696 64.4133353,15.1546643 64.024,15.624 C63.6346647,16.0933357 63.1466696,16.461332 62.56,16.728 C61.9733304,16.994668 61.317337,17.128 60.592,17.128 C59.717329,17.128 58.9386701,16.9413352 58.256,16.568 C57.5733299,16.1946648 57.0400019,15.6613368 56.656,14.968 C56.2719981,14.2746632 56.08,13.4640046 56.08,12.536 C56.08,11.6079954 56.2693314,10.7973368 56.648,10.104 C57.0266686,9.4106632 57.5573299,8.8773352 58.24,8.504 C58.9226701,8.1306648 59.7066622,7.944 60.592,7.944 C61.4560043,7.944 62.2239966,8.12533152 62.896,8.488 C63.5680034,8.85066848 64.0933314,9.36799664 64.472,10.04 C64.8506686,10.7120034 65.04,11.4959955 65.04,12.392 Z M62.24,11.672 C62.24,11.2026643 62.0800016,10.8293347 61.76,10.552 C61.4399984,10.2746653 61.0400024,10.136 60.56,10.136 C60.101331,10.136 59.7146682,10.269332 59.4,10.536 C59.0853318,10.802668 58.890667,11.1813309 58.816,11.672 L62.24,11.672 Z" id="path-1"></path>
    </defs>
    <g id="Page-1" stroke="none" stroke-width="1" fill="none" fill-rule="evenodd">
        <g id="logo-mobile">
            <g id="Melanie_Linares" transform="translate(46.080000, 6.686000)" fill-rule="nonzero">
                <g id="Melanie">
                    <use fill="#000000" xlink:href="#path-1"></use>
                    <use fill="#3C4BD2" xlink:href="#path-1"></use>
                </g>
            </g>
            <g id="Group_342">
                <g id="Group_341">
                    <g id="Path_177">
                        <path d="M19,0 C24.6870079,0.00617832408 30.0737237,2.55337935 33.687,6.945 C36.4901554,10.3353254 38.0162939,14.6009408 38,19 C38,29.4934102 29.4934102,38 19,38 C8.50658975,38 1.28507213e-15,29.4934102 0,19 C-1.28507213e-15,8.50658975 8.50658975,1.92760819e-15 19,0 Z" id="Path"></path>
                        <path d="M19.0000267,2.59999847 C14.6194267,2.59999847 10.5010166,4.30589676 7.40345764,7.40345764 C4.30589676,10.5010166 2.59999847,14.6194267 2.59999847,19.0000267 C2.59999847,23.3806381 4.30589676,27.4990463 7.40345764,30.5965958 C10.5010166,33.6941566 14.6194267,35.4000549 19.0000267,35.4000549 C23.3806381,35.4000549 27.4990463,33.6941566 30.5965958,30.5965958 C33.6941566,27.4990463 35.4000549,23.3806381 35.4000549,19.0000267 C35.4000549,15.1577072 34.0835953,11.4692364 31.6926365,8.61344719 C30.1131973,6.72569656 28.2191353,5.24211502 26.0630875,4.20391846 C23.8528557,3.13963699 21.4764977,2.59999847 19.0000267,2.59999847 L19.0000267,2.59999847 Z M19.0000267,-3.81469727e-06 C24.8553276,-3.81469727e-06 30.0919971,2.64861679 33.6867256,6.9450264 C36.3381462,10.111927 38.0000572,14.3618965 38.0000572,19.0000267 C38.0000572,29.4934578 29.4934578,38.0000572 19.0000267,38.0000572 C8.50660706,38.0000572 -3.81469727e-06,29.4934578 -3.81469727e-06,19.0000267 C-3.81469727e-06,8.50660706 8.50660706,-3.81469727e-06 19.0000267,-3.81469727e-06 Z" id="Shape" fill="#3C4BD2" fill-rule="nonzero"></path>
                    </g>
                    <g id="Group_227" transform="translate(7.349000, 10.381000)" fill="#3C4BD2" fill-rule="nonzero">
                        <rect id="Rectangle_1405" transform="translate(19.102000, 4.242000) rotate(-180.000000) translate(-19.102000, -4.242000) " x="17.727" y="2.867" width="2.75" height="2.75"></rect>
                        <path d="M11.879,13.6281141 C15.805,13.6281141 17.751,17.5281141 17.751,19.6821141 L20.501,19.6821141 C20.469,15.2091141 17.301,10.8001141 11.879,10.8001141 C9.51546803,10.7881407 7.24461657,11.7185996 5.56901459,13.3855684 C3.89341261,15.0525371 2.95123575,17.3185519 2.951,19.6821141 L5.751,19.6821141 C5.751,17.3761141 7.953,13.6281141 11.879,13.6281141 Z" id="Path_72" transform="translate(11.726000, 15.241057) rotate(-180.000000) translate(-11.726000, -15.241057) "></path>
                        <rect id="Rectangle_1292" transform="translate(4.336000, 4.242000) rotate(-180.000000) translate(-4.336000, -4.242000) " x="0" y="2.867" width="8.672" height="2.75"></rect>
                        <polygon id="Path_382" transform="translate(4.307000, 4.336500) rotate(-90.000000) translate(-4.307000, -4.336500) " points="-0.0295 2.9615 8.6435 2.9615 8.6435 5.7115 -0.0295 5.7115"></polygon>
                    </g>
                </g>
            </g>
        </g>
    </g>
</svg>