<svg xmlns="http://www.w3.org/2000/svg" viewBox="0 0 110.75 38">
  <g id="Group_506" data-name="Group 506" transform="translate(-45.961 -71.931)">
    <g id="Group_343" data-name="Group 343" transform="translate(45.961 71.931)">
      <text id="Melanie_Linares" data-name="Melanie Linares" transform="translate(46.08 23.686)" fill="#3c4bd2" font-size="16" font-family="Poppins" font-weight="700" letter-spacing="-0.01em"><tspan x="0" y="0">Melanie</tspan></text>
      <g id="Group_342" data-name="Group 342" transform="translate(0 0)">
        <g id="Group_341" data-name="Group 341">
          <g id="Path_177" data-name="Path 177" transform="translate(0 0)" fill="none">
            <path d="M19,0A19.046,19.046,0,0,1,33.687,6.945,18.809,18.809,0,0,1,38,19,19,19,0,1,1,19,0Z" stroke="none"/>
            <path d="M 19.00002670288086 2.599998474121094 C 14.61942672729492 2.599998474121094 10.50101661682129 4.305896759033203 7.403457641601563 7.403457641601563 C 4.305896759033203 10.50101661682129 2.599998474121094 14.61942672729492 2.599998474121094 19.00002670288086 C 2.599998474121094 23.38063812255859 4.305896759033203 27.49904632568359 7.403457641601563 30.59659576416016 C 10.50101661682129 33.69415664672852 14.61942672729492 35.40005493164063 19.00002670288086 35.40005493164063 C 23.38063812255859 35.40005493164063 27.49904632568359 33.69415664672852 30.59659576416016 30.59659576416016 C 33.69415664672852 27.49904632568359 35.40005493164063 23.38063812255859 35.40005493164063 19.00002670288086 C 35.40005493164063 15.15770721435547 34.08359527587891 11.46923637390137 31.69263648986816 8.613447189331055 C 30.11319732666016 6.725696563720703 28.21913528442383 5.242115020751953 26.06308746337891 4.20391845703125 C 23.85285568237305 3.139636993408203 21.47649765014648 2.599998474121094 19.00002670288086 2.599998474121094 M 19.00002670288086 -3.814697265625e-06 C 24.85532760620117 -3.814697265625e-06 30.09199714660645 2.648616790771484 33.68672561645508 6.945026397705078 C 36.3381462097168 10.1119270324707 38.00005722045898 14.36189651489258 38.00005722045898 19.00002670288086 C 38.00005722045898 29.49345779418945 29.49345779418945 38.00005722045898 19.00002670288086 38.00005722045898 C 8.506607055664063 38.00005722045898 -3.814697265625e-06 29.49345779418945 -3.814697265625e-06 19.00002670288086 C -3.814697265625e-06 8.506607055664063 8.506607055664063 -3.814697265625e-06 19.00002670288086 -3.814697265625e-06 Z" stroke="none" fill="#3c4bd2"/>
          </g>
          <g id="Group_227" data-name="Group 227" transform="translate(7.349 10.381)">
            <rect id="Rectangle_1405" data-name="Rectangle 1405" width="2.75" height="2.75" transform="translate(20.477 5.617) rotate(-180)" fill="#3c4bd2"/>
            <path id="Path_72" data-name="Path 72" d="M9.01,3.269c3.926,0,5.872,3.9,5.872,6.054h2.75C17.6,4.85,14.432.441,9.01.441A8.883,8.883,0,0,0,.082,9.323h2.8C2.882,7.017,5.084,3.269,9.01,3.269Z" transform="translate(20.583 20.123) rotate(-180)" fill="#3c4bd2"/>
            <rect id="Rectangle_1292" data-name="Rectangle 1292" width="8.672" height="2.75" transform="translate(8.672 5.617) rotate(-180)" fill="#3c4bd2"/>
            <path id="Path_382" data-name="Path 382" d="M0,0H8.673V2.75H0Z" transform="translate(2.932 8.673) rotate(-90)" fill="#3c4bd2"/>
          </g>
        </g>
      </g>
    </g>
  </g>
</svg>