<?xml version="1.0" encoding="UTF-8"?>
<svg width="700pt" height="700pt" version="1.1" viewBox="0 0 700 700" xmlns="http://www.w3.org/2000/svg" xmlns:xlink="http://www.w3.org/1999/xlink">
 <defs>
  <symbol id="t" overflow="visible">
   <path d="m6.25-0.375c-0.32422 0.16797-0.66406 0.29297-1.0156 0.375-0.34375 0.082031-0.70312 0.125-1.0781 0.125-1.1367 0-2.0391-0.3125-2.7031-0.9375-0.65625-0.63281-0.98438-1.4922-0.98438-2.5781 0-1.0938 0.32812-1.9531 0.98438-2.5781 0.66406-0.63281 1.5664-0.95312 2.7031-0.95312 0.375 0 0.73438 0.042969 1.0781 0.125 0.35156 0.085937 0.69141 0.21094 1.0156 0.375v1.4062c-0.32422-0.21875-0.64844-0.37891-0.96875-0.48438-0.3125-0.10156-0.64062-0.15625-0.98438-0.15625-0.625 0-1.1211 0.20312-1.4844 0.60938-0.35547 0.39844-0.53125 0.94922-0.53125 1.6562 0 0.69922 0.17578 1.25 0.53125 1.6562 0.36328 0.39844 0.85938 0.59375 1.4844 0.59375 0.34375 0 0.67188-0.050781 0.98438-0.15625 0.32031-0.10156 0.64453-0.26562 0.96875-0.48438z"/>
  </symbol>
  <symbol id="c" overflow="visible">
   <path d="m4.5781-3.7188c-0.14844-0.0625-0.29297-0.10938-0.4375-0.14062-0.13672-0.03125-0.27734-0.046875-0.42188-0.046875-0.41797 0-0.74219 0.13672-0.96875 0.40625-0.23047 0.26172-0.34375 0.64844-0.34375 1.1562v2.3438h-1.625v-5.0938h1.625v0.82812c0.21875-0.33203 0.46094-0.57031 0.73438-0.71875 0.26953-0.15625 0.59375-0.23438 0.96875-0.23438 0.050781 0 0.10938 0.007812 0.17188 0.015625 0.070312 0 0.16406 0.007813 0.28125 0.015625z"/>
  </symbol>
  <symbol id="a" overflow="visible">
   <path d="m5.875-2.5625v0.46875h-3.8125c0.039062 0.375 0.17578 0.66406 0.40625 0.85938 0.23828 0.1875 0.57031 0.28125 1 0.28125 0.34375 0 0.69141-0.046875 1.0469-0.14062 0.36328-0.10156 0.73828-0.25781 1.125-0.46875v1.25c-0.38672 0.14844-0.77344 0.25781-1.1562 0.32812-0.38672 0.070312-0.77344 0.10938-1.1562 0.10938-0.92969 0-1.6484-0.23438-2.1562-0.70312-0.51172-0.46875-0.76562-1.125-0.76562-1.9688 0-0.83203 0.25-1.4844 0.75-1.9531 0.5-0.47656 1.1914-0.71875 2.0781-0.71875 0.80078 0 1.4414 0.24219 1.9219 0.71875 0.47656 0.48047 0.71875 1.125 0.71875 1.9375zm-1.6719-0.54688c0-0.3125-0.09375-0.5625-0.28125-0.75-0.17969-0.1875-0.41406-0.28125-0.70312-0.28125-0.3125 0-0.57031 0.089844-0.76562 0.26562-0.19922 0.17969-0.32422 0.43359-0.375 0.76562z"/>
  </symbol>
  <symbol id="h" overflow="visible">
   <path d="m3.0625-2.2969c-0.33594 0-0.58984 0.058594-0.76562 0.17188-0.16797 0.11719-0.25 0.28906-0.25 0.51562 0 0.21094 0.066406 0.37109 0.20312 0.48438 0.13281 0.11719 0.32812 0.17188 0.57812 0.17188 0.30078 0 0.55469-0.10938 0.76562-0.32812 0.21875-0.21875 0.32812-0.49219 0.32812-0.82812v-0.1875zm2.5-0.60938v2.9062h-1.6406v-0.75c-0.21875 0.30469-0.46875 0.52734-0.75 0.67188-0.27344 0.13281-0.60156 0.20312-0.98438 0.20312-0.53125 0-0.96484-0.14844-1.2969-0.45312-0.32422-0.3125-0.48438-0.71094-0.48438-1.2031 0-0.59375 0.20312-1.0312 0.60938-1.3125 0.41406-0.28125 1.0625-0.42188 1.9375-0.42188h0.96875v-0.125c0-0.25781-0.10547-0.44531-0.3125-0.5625-0.19922-0.125-0.51562-0.1875-0.95312-0.1875-0.34375 0-0.66797 0.039063-0.96875 0.10938-0.30469 0.0625-0.58594 0.16797-0.84375 0.3125v-1.25c0.35156-0.082031 0.70312-0.14453 1.0469-0.1875 0.35156-0.039062 0.70703-0.0625 1.0625-0.0625 0.92578 0 1.5938 0.18359 2 0.54688 0.40625 0.35547 0.60938 0.94531 0.60938 1.7656z"/>
  </symbol>
  <symbol id="b" overflow="visible">
   <path d="m2.5625-6.5469v1.4531h1.6875v1.1562h-1.6875v2.1719c0 0.23047 0.046875 0.38672 0.14062 0.46875 0.09375 0.085937 0.28125 0.125 0.5625 0.125h0.84375v1.1719h-1.4062c-0.64844 0-1.1055-0.13281-1.375-0.40625-0.26172-0.26953-0.39062-0.72266-0.39062-1.3594v-2.1719h-0.8125v-1.1562h0.8125v-1.4531z"/>
  </symbol>
  <symbol id="g" overflow="visible">
   <path d="m4.25-4.3594v-2.7344h1.6406v7.0938h-1.6406v-0.73438c-0.21875 0.30469-0.46484 0.52344-0.73438 0.65625-0.27344 0.13281-0.58594 0.20312-0.9375 0.20312-0.63672 0-1.1562-0.24219-1.5625-0.73438-0.39844-0.5-0.59375-1.1445-0.59375-1.9375 0-0.78125 0.19531-1.4219 0.59375-1.9219 0.40625-0.5 0.92578-0.75 1.5625-0.75 0.35156 0 0.66406 0.074219 0.9375 0.21875 0.26953 0.13672 0.51562 0.35156 0.73438 0.64062zm-1.0781 3.3125c0.35156 0 0.61719-0.125 0.79688-0.375 0.1875-0.25781 0.28125-0.63281 0.28125-1.125 0-0.48828-0.09375-0.85938-0.28125-1.1094-0.17969-0.25781-0.44531-0.39062-0.79688-0.39062-0.34375 0-0.60938 0.13281-0.79688 0.39062-0.17969 0.25-0.26562 0.62109-0.26562 1.1094 0 0.49219 0.085937 0.86719 0.26562 1.125 0.1875 0.25 0.45312 0.375 0.79688 0.375z"/>
  </symbol>
  <symbol id="k" overflow="visible">
   <path d="m3.5-1.0469c0.34375 0 0.60938-0.125 0.79688-0.375 0.1875-0.25781 0.28125-0.63281 0.28125-1.125 0-0.48828-0.09375-0.85938-0.28125-1.1094-0.1875-0.25781-0.45312-0.39062-0.79688-0.39062-0.35547 0-0.625 0.13281-0.8125 0.39062-0.1875 0.26172-0.28125 0.63281-0.28125 1.1094 0 0.48047 0.09375 0.85156 0.28125 1.1094 0.1875 0.26172 0.45703 0.39062 0.8125 0.39062zm-1.0938-3.3125c0.22656-0.28906 0.47656-0.50391 0.75-0.64062 0.28125-0.14453 0.59766-0.21875 0.95312-0.21875 0.625 0 1.1406 0.25 1.5469 0.75s0.60938 1.1406 0.60938 1.9219c0 0.79297-0.20312 1.4375-0.60938 1.9375-0.40625 0.49219-0.92188 0.73438-1.5469 0.73438-0.35547 0-0.67188-0.070312-0.95312-0.20312-0.27344-0.14453-0.52344-0.36328-0.75-0.65625v0.73438h-1.625v-7.0938h1.625z"/>
  </symbol>
  <symbol id="j" overflow="visible">
   <path d="m0.10938-5.0938h1.6406l1.3594 3.4531 1.1719-3.4531h1.625l-2.1406 5.5781c-0.21875 0.5625-0.47656 0.95703-0.76562 1.1875-0.28125 0.22656-0.65625 0.34375-1.125 0.34375h-0.9375v-1.0781h0.5c0.28125 0 0.48438-0.046875 0.60938-0.14062 0.125-0.085937 0.22266-0.23438 0.29688-0.45312l0.046875-0.14062z"/>
  </symbol>
  <symbol id="f" overflow="visible">
   <path d="m0.85938-6.7969h1.9531l2.4688 4.6562v-4.6562h1.6719v6.7969h-1.9688l-2.4688-4.6719v4.6719h-1.6562z"/>
  </symbol>
  <symbol id="e" overflow="visible">
   <path d="m5.9062-3.1094v3.1094h-1.6406v-2.375c0-0.4375-0.011719-0.73828-0.03125-0.90625-0.011719-0.16406-0.042969-0.28906-0.09375-0.375-0.0625-0.10156-0.15234-0.1875-0.26562-0.25-0.10547-0.0625-0.23047-0.09375-0.375-0.09375-0.33594 0-0.60156 0.13672-0.79688 0.40625-0.19922 0.26172-0.29688 0.62109-0.29688 1.0781v2.5156h-1.625v-7.0938h1.625v2.7344c0.25-0.28906 0.50781-0.50391 0.78125-0.64062 0.28125-0.14453 0.58594-0.21875 0.92188-0.21875 0.59375 0 1.0391 0.18359 1.3438 0.54688 0.30078 0.35547 0.45312 0.875 0.45312 1.5625z"/>
  </symbol>
  <symbol id="s" overflow="visible">
   <path d="m5.5938-6.5938v1.4531c-0.375-0.16406-0.74219-0.28906-1.0938-0.375-0.35547-0.09375-0.69531-0.14062-1.0156-0.14062-0.41797 0-0.72656 0.058594-0.92188 0.17188-0.19922 0.11719-0.29688 0.29688-0.29688 0.54688 0 0.17969 0.066406 0.32031 0.20312 0.42188 0.13281 0.10547 0.37891 0.19531 0.73438 0.26562l0.73438 0.14062c0.75781 0.15625 1.2969 0.39062 1.6094 0.70312 0.32031 0.30469 0.48438 0.74219 0.48438 1.3125 0 0.75-0.22656 1.3086-0.67188 1.6719-0.4375 0.36719-1.1172 0.54688-2.0312 0.54688-0.42969 0-0.85938-0.042969-1.2969-0.125-0.4375-0.070312-0.87109-0.19141-1.2969-0.35938v-1.4688c0.42578 0.23047 0.84375 0.40234 1.25 0.51562 0.40625 0.11719 0.79688 0.17188 1.1719 0.17188 0.38281 0 0.67578-0.0625 0.875-0.1875 0.20703-0.125 0.3125-0.30469 0.3125-0.54688 0-0.21875-0.070312-0.38281-0.20312-0.5-0.13672-0.11328-0.41406-0.21094-0.82812-0.29688l-0.6875-0.15625c-0.67969-0.14453-1.1719-0.375-1.4844-0.6875-0.3125-0.32031-0.46875-0.75391-0.46875-1.2969 0-0.67578 0.21875-1.1953 0.65625-1.5625 0.4375-0.36328 1.0664-0.54688 1.8906-0.54688 0.36328 0 0.74219 0.03125 1.1406 0.09375 0.39453 0.054687 0.80469 0.13281 1.2344 0.23438z"/>
  </symbol>
  <symbol id="r" overflow="visible">
   <path d="m0.78125-5.0938h1.625v5.0938h-1.625zm0-2h1.625v1.3438h-1.625z"/>
  </symbol>
  <symbol id="i" overflow="visible">
   <path d="m5.9062-3.1094v3.1094h-1.6406v-2.375c0-0.4375-0.011719-0.73828-0.03125-0.90625-0.011719-0.16406-0.042969-0.28906-0.09375-0.375-0.0625-0.10156-0.15234-0.1875-0.26562-0.25-0.10547-0.0625-0.23047-0.09375-0.375-0.09375-0.33594 0-0.60156 0.13672-0.79688 0.40625-0.19922 0.26172-0.29688 0.62109-0.29688 1.0781v2.5156h-1.625v-5.0938h1.625v0.73438c0.25-0.28906 0.50781-0.50391 0.78125-0.64062 0.28125-0.14453 0.58594-0.21875 0.92188-0.21875 0.59375 0 1.0391 0.18359 1.3438 0.54688 0.30078 0.35547 0.45312 0.875 0.45312 1.5625z"/>
  </symbol>
  <symbol id="q" overflow="visible">
   <path d="m4.1406-7.0938v1.0781h-0.90625c-0.23047 0-0.39062 0.042969-0.48438 0.125-0.085938 0.085937-0.125 0.23047-0.125 0.4375v0.35938h1.3906v1.1562h-1.3906v3.9375h-1.6406v-3.9375h-0.8125v-1.1562h0.8125v-0.35938c0-0.5625 0.15625-0.97266 0.46875-1.2344 0.3125-0.26953 0.78906-0.40625 1.4375-0.40625z"/>
  </symbol>
  <symbol id="d" overflow="visible">
   <path d="m3.2188-4.0625c-0.36719 0-0.64844 0.13281-0.84375 0.39062-0.1875 0.26172-0.28125 0.63672-0.28125 1.125 0 0.49219 0.09375 0.86719 0.28125 1.125 0.19531 0.26172 0.47656 0.39062 0.84375 0.39062 0.35156 0 0.625-0.12891 0.8125-0.39062 0.1875-0.25781 0.28125-0.63281 0.28125-1.125 0-0.48828-0.09375-0.86328-0.28125-1.125-0.1875-0.25781-0.46094-0.39062-0.8125-0.39062zm0-1.1562c0.875 0 1.5547 0.24219 2.0469 0.71875 0.48828 0.46875 0.73438 1.1211 0.73438 1.9531 0 0.84375-0.24609 1.5-0.73438 1.9688-0.49219 0.46875-1.1719 0.70312-2.0469 0.70312-0.88672 0-1.5781-0.23438-2.0781-0.70312-0.49219-0.46875-0.73438-1.125-0.73438-1.9688 0-0.83203 0.24219-1.4844 0.73438-1.9531 0.5-0.47656 1.1914-0.71875 2.0781-0.71875z"/>
  </symbol>
  <symbol id="p" overflow="visible">
   <path d="m5.5156-4.25c0.20703-0.32031 0.45312-0.5625 0.73438-0.71875 0.28125-0.16406 0.59375-0.25 0.9375-0.25 0.58203 0 1.0234 0.18359 1.3281 0.54688 0.3125 0.35547 0.46875 0.875 0.46875 1.5625v3.1094h-1.6406v-2.6562-0.125-0.1875c0-0.35156-0.054688-0.61328-0.15625-0.78125-0.10547-0.16406-0.27734-0.25-0.51562-0.25-0.30469 0-0.54297 0.13281-0.71875 0.39062-0.16797 0.25-0.25 0.62109-0.25 1.1094v2.5h-1.6406v-2.6562c0-0.5625-0.054688-0.92578-0.15625-1.0938-0.09375-0.16406-0.26562-0.25-0.51562-0.25-0.3125 0-0.55859 0.13281-0.73438 0.39062-0.16797 0.26172-0.25 0.625-0.25 1.0938v2.5156h-1.625v-5.0938h1.625v0.73438c0.20703-0.28125 0.44141-0.49219 0.70312-0.64062 0.25781-0.14453 0.54688-0.21875 0.85938-0.21875 0.34375 0 0.64844 0.085938 0.92188 0.25 0.26953 0.16797 0.47656 0.40625 0.625 0.71875z"/>
  </symbol>
  <symbol id="o" overflow="visible">
   <path d="m0.73438-1.9844v-3.1094h1.6406v0.5c0 0.28125-0.007812 0.63281-0.015625 1.0469v0.82812c0 0.41797 0.007813 0.71484 0.03125 0.89062 0.019531 0.17969 0.054687 0.30859 0.10938 0.39062 0.0625 0.10547 0.14453 0.1875 0.25 0.25 0.11328 0.054688 0.24219 0.078125 0.39062 0.078125 0.33203 0 0.59766-0.12891 0.79688-0.39062 0.19531-0.25781 0.29688-0.61719 0.29688-1.0781v-2.5156h1.625v5.0938h-1.625v-0.73438c-0.25 0.29297-0.51562 0.51172-0.79688 0.65625-0.27344 0.13281-0.57422 0.20312-0.90625 0.20312-0.58594 0-1.0312-0.17578-1.3438-0.53125-0.30469-0.36328-0.45312-0.89062-0.45312-1.5781z"/>
  </symbol>
  <symbol id="n" overflow="visible">
   <path d="m0.85938-6.7969h2.9062c0.86328 0 1.5234 0.19531 1.9844 0.57812 0.46875 0.38672 0.70312 0.93359 0.70312 1.6406 0 0.71094-0.23438 1.2578-0.70312 1.6406-0.46094 0.38672-1.1211 0.57812-1.9844 0.57812h-1.1562v2.3594h-1.75zm1.75 1.2656v1.9062h0.96875c0.34375 0 0.60156-0.082031 0.78125-0.25 0.1875-0.16406 0.28125-0.39844 0.28125-0.70312 0-0.30078-0.09375-0.53516-0.28125-0.70312-0.17969-0.16406-0.4375-0.25-0.78125-0.25z"/>
  </symbol>
  <symbol id="m" overflow="visible">
   <path d="m0.78125-5.0938h1.625v5c0 0.6875-0.16406 1.207-0.48438 1.5625-0.32422 0.36328-0.79688 0.54688-1.4219 0.54688h-0.8125v-1.0781h0.28125c0.3125 0 0.52344-0.070312 0.64062-0.20312 0.11328-0.13672 0.17188-0.41406 0.17188-0.82812zm0-2h1.625v1.3438h-1.625z"/>
  </symbol>
  <symbol id="l" overflow="visible">
   <path d="m4.9062-4.9375v1.3281c-0.21875-0.15625-0.44531-0.26953-0.67188-0.34375-0.21875-0.070313-0.44922-0.10938-0.6875-0.10938-0.46094 0-0.82031 0.13672-1.0781 0.40625-0.25 0.26172-0.375 0.63281-0.375 1.1094 0 0.48047 0.125 0.85547 0.375 1.125 0.25781 0.26172 0.61719 0.39062 1.0781 0.39062 0.25 0 0.48828-0.035156 0.71875-0.10938 0.22656-0.082031 0.44141-0.19531 0.64062-0.34375v1.3281c-0.26172 0.09375-0.52344 0.16016-0.78125 0.20312-0.26172 0.050781-0.52344 0.078125-0.78125 0.078125-0.92969 0-1.6523-0.23438-2.1719-0.70312-0.51172-0.46875-0.76562-1.125-0.76562-1.9688s0.25391-1.5 0.76562-1.9688c0.51953-0.46875 1.2422-0.70312 2.1719-0.70312 0.25781 0 0.51953 0.027344 0.78125 0.078125 0.25781 0.042969 0.51953 0.10938 0.78125 0.20312z"/>
  </symbol>
 </defs>
 <g>
  <path d="m545.5 344.15-16.402-2.1016c-0.89844-2.5312-2.0195-5.1133-3.4805-8.0664l10.07-12.852c2.6836-3.3008 2.4375-8.0586-0.5625-11.09l-20.301-20.305c-1.5703-1.5547-3.6484-2.4062-5.8516-2.4062-1.8984 0-3.7578 0.66016-5.2031 1.8281l-12.879 10.086c-2.9688-1.4688-5.5586-2.5938-8.0664-3.4766l-2.0977-16.414c-0.52734-3.9453-3.793-6.9766-7.7617-7.207h-28.746c-0.50781-0.042969-1.0195-0.039062-1.5234 0.011719l-0.23828 0.035156c-3.5664 0.70312-6.2422 3.5977-6.6523 7.1758l-2.0938 16.402c-2.5391 0.89453-5.125 2.0156-8.0703 3.4766l-12.848-10.066c-1.4766-1.1953-3.3359-1.8555-5.2344-1.8555-2.2109 0-4.2852 0.85156-5.8633 2.418l-20.301 20.301c-2.9922 3.0234-3.2266 7.7891-0.57813 11.059l10.09 12.875c-1.4727 2.9727-2.5938 5.5625-3.4805 8.0664l-16.414 2.1016c-4.1484 0.55859-7.2461 4.1328-7.2109 8.293v28.715l0.003906 0.14453c0.23047 3.9727 3.2617 7.2383 7.2148 7.7656l16.402 2.0938c0.89844 2.5312 2.0156 5.1172 3.4805 8.0703l-10.07 12.848c-2.6719 3.3008-2.4375 8.0664 0.56641 11.094l20.301 20.301c1.5664 1.5547 3.6445 2.4062 5.8555 2.4062 1.8984 0 3.7578-0.66016 5.1992-1.8281l12.879-10.09c2.9727 1.4727 5.5586 2.5859 8.0703 3.4766l2.1016 16.414c0.54688 4.1094 4.0898 7.2109 8.2344 7.2109h28.766l0.14844-0.003906c3.9727-0.23438 7.2344-3.2617 7.7617-7.2266l2.0977-16.398c2.5391-0.89453 5.125-2.0156 8.0703-3.4727l12.848 10.062c1.4766 1.1992 3.3359 1.8555 5.2383 1.8555 2.2031 0 4.2812-0.85156 5.8633-2.4141l20.297-20.305c2.9922-3.0195 3.2344-7.7891 0.58203-11.051l-10.094-12.883c1.4805-2.9727 2.5938-5.5586 3.4844-8.0703l16.41-2.0898c3.9414-0.53125 6.9805-3.7969 7.207-7.7656l0.003906-28.844c0.035157-4.1758-3.0547-7.7461-7.2227-8.3047zm-9.9648 29.359-13.477 1.6406c-3.4141 0.33594-6.1719 2.7891-7.0781 6.125-1.3711 5.2773-3.3945 10.34-6.1523 15.012-1.7734 2.9336-1.5195 6.7148 0.62891 9.4688l8.8828 10.836-10.102 10.109-10.875-8.9023c-1.4492-1.1367-3.2695-1.7578-5.1094-1.7578-1.5195 0-3.0117 0.42188-4.2852 1.1875-4.6719 2.7578-9.7305 4.8516-15.059 6.2422-3.3086 0.89453-5.7617 3.707-6.0898 7.0781l-1.6484 13.727h-13.809l-1.6445-13.684c-0.33594-3.4141-2.7891-6.2617-6.1211-7.1719-5.2734-1.3672-10.332-3.4414-15.008-6.1992-2.8789-1.7461-6.7344-1.5312-9.4727 0.60156l-10.836 8.8711-10.109-10.105 8.9023-10.879c2.1094-2.7031 2.3281-6.4883 0.57422-9.3906-2.7578-4.6719-4.8555-9.7266-6.2422-15.062-0.89844-3.3086-3.7109-5.7656-7.0742-6.0938l-13.738-1.6484v-13.805l13.676-1.6328c3.418-0.33594 6.2695-2.793 7.1797-6.1328 1.3633-5.2734 3.4414-10.332 6.1953-15.012 1.7734-2.9258 1.543-6.7188-0.60156-9.4727l-8.8477-10.801 10.082-9.8008 10.879 8.5664c1.4531 1.1328 3.2656 1.7539 5.1094 1.7539 1.5195 0 3.0039-0.41406 4.2852-1.1836 4.6562-2.75 9.7148-4.8477 15.059-6.2422 3.3047-0.89844 5.7617-3.5156 6.0938-6.8789l1.6445-13.531h13.809l1.6406 13.48c0.33203 3.4141 2.7812 6.1719 6.125 7.082 5.2773 1.3633 10.336 3.3945 15.012 6.1445 2.875 1.75 6.7539 1.4844 9.4297-0.59766l10.863-8.5703 10.09 9.793-8.8828 10.844c-2.1094 2.707-2.3281 6.4922-0.56641 9.4023 2.7539 4.6641 4.8516 9.7188 6.2383 15.062 0.89844 3.3047 3.5156 5.7578 6.8789 6.0859l13.531 1.6445z"/>
  <path d="m458.26 318.09c-26.75 0-48.508 21.77-48.508 48.52 0 26.754 21.758 48.52 48.508 48.52 26.762 0 48.523-21.766 48.523-48.52 0-26.75-21.762-48.52-48.523-48.52zm22.578 71.09c-6.0039 6.0117-14.016 9.3203-22.578 9.3203-17.578 0-31.879-14.301-31.879-31.891 0-17.578 14.301-31.883 31.879-31.883 8.5586 0 16.574 3.3047 22.578 9.3125 6.0078 6.0117 9.3125 14.027 9.3125 22.57 0 8.5508-3.3047 16.566-9.3125 22.57z"/>
  <path d="m165.94 398.71v-215.62c0-8.3359 6.8047-15.078 15.137-15.078h303.84c8.332 0 15.16 6.7461 15.16 15.078v80.121h18.668l-0.003907-80.121c0-19.113-14.711-33.742-33.824-33.742h-78.176v-34.871c0-8.332-6.6055-15.535-14.938-15.535h-117.61c-8.332 0-14.914 7.2031-14.914 15.535v34.867h-78.199c-19.109 0-33.801 14.633-33.801 33.742v215.63c0 19.109 14.691 34.363 33.801 34.363h175.27v-20.535h-175.27c-8.332 0-15.137-5.4922-15.137-13.828zm113.87-279.24h106.4v29.867h-106.4z"/>
  <use x="70" y="588" xlink:href="#t"/>
  <use x="76.851562" y="588" xlink:href="#c"/>
  <use x="81.453125" y="588" xlink:href="#a"/>
  <use x="87.78125" y="588" xlink:href="#h"/>
  <use x="94.082031" y="588" xlink:href="#b"/>
  <use x="98.542969" y="588" xlink:href="#a"/>
  <use x="104.871094" y="588" xlink:href="#g"/>
  <use x="114.804688" y="588" xlink:href="#k"/>
  <use x="121.484375" y="588" xlink:href="#j"/>
  <use x="130.816406" y="588" xlink:href="#f"/>
  <use x="138.628906" y="588" xlink:href="#a"/>
  <use x="144.957031" y="588" xlink:href="#e"/>
  <use x="151.601562" y="588" xlink:href="#h"/>
  <use x="161.148438" y="588" xlink:href="#s"/>
  <use x="167.871094" y="588" xlink:href="#e"/>
  <use x="174.515625" y="588" xlink:href="#r"/>
  <use x="177.714844" y="588" xlink:href="#i"/>
  <use x="184.359375" y="588" xlink:href="#g"/>
  <use x="191.042969" y="588" xlink:href="#a"/>
  <use x="70" y="597.332031" xlink:href="#q"/>
  <use x="74.0625" y="597.332031" xlink:href="#c"/>
  <use x="78.664062" y="597.332031" xlink:href="#d"/>
  <use x="85.074219" y="597.332031" xlink:href="#p"/>
  <use x="98.050781" y="597.332031" xlink:href="#b"/>
  <use x="102.511719" y="597.332031" xlink:href="#e"/>
  <use x="109.15625" y="597.332031" xlink:href="#a"/>
  <use x="118.734375" y="597.332031" xlink:href="#f"/>
  <use x="126.546875" y="597.332031" xlink:href="#d"/>
  <use x="132.960938" y="597.332031" xlink:href="#o"/>
  <use x="139.601562" y="597.332031" xlink:href="#i"/>
  <use x="149.496094" y="597.332031" xlink:href="#n"/>
  <use x="156.335938" y="597.332031" xlink:href="#c"/>
  <use x="160.941406" y="597.332031" xlink:href="#d"/>
  <use x="167.351562" y="597.332031" xlink:href="#m"/>
  <use x="170.550781" y="597.332031" xlink:href="#a"/>
  <use x="176.882812" y="597.332031" xlink:href="#l"/>
  <use x="182.414062" y="597.332031" xlink:href="#b"/>
 </g>
</svg>
