<?xml version="1.0" encoding="UTF-8"?>
<svg width="700pt" height="700pt" version="1.1" viewBox="0 0 700 700" xmlns="http://www.w3.org/2000/svg">
 <g>
  <path d="m144.67 56c-10.613 0-18.668 9.2031-18.668 19.434v368.14c0 31.477 22.34 58.105 51.555 60.215v-0.003906c0.62891 0.13672 1.2695 0.21094 1.9141 0.21875h331.13c0.43359-0.007812 0.86719-0.042969 1.293-0.10938 0.60938 0.019531 1.207 0.10938 1.8242 0.10938h5.0117c31.02 0 55.273-27.629 55.273-60.434v-236.73c0-5.1562-4.1836-9.3398-9.3438-9.3398-5.1562 0-9.3398 4.1836-9.3398 9.3398v236.73c0 20.629-12.562 36.844-28.859 40.797v-355.32c0.050781-2.5273-0.92578-4.9648-2.707-6.7578-1.7773-1.793-4.2109-2.7891-6.7344-2.7578-2.4883 0.027344-4.8633 1.0508-6.5938 2.8359-1.7344 1.7891-2.6797 4.1914-2.6328 6.6797v355.61c-17.156-3.1641-30.664-19.715-30.664-41.09v-368.14c0-10.23-8.0703-19.434-18.688-19.434zm0 18.688h313.77c-0.27344 0 0-0.26562 0 0.74609v368.13c0 16.043 5.832 30.824 15.387 41.766h-292.57c-19.879 0-36.586-17.973-36.586-41.766v-40.125l-0.003906 0.003906c0.003906-0.12891 0.003906-0.25781 0-0.38281v-238.36c0.003906-0.125 0.003906-0.25391 0-0.38281v-88.887c0-1.0117 0.27344-0.74609 0-0.74609z"/>
  <path d="m183.39 398.38c-5.1523 0.27344-9.1094 4.668-8.8438 9.8203 0.26562 5.1523 4.6562 9.1133 9.8086 8.8516h233.77c5.1562 0 9.3359-4.1797 9.3359-9.3359s-4.1797-9.3359-9.3359-9.3359h-233.77c-0.32031-0.015625-0.64062-0.015625-0.96484 0z"/>
  <path d="m346.06 231.85c-5.1562 0-9.3359 4.1797-9.3359 9.3359s4.1797 9.3359 9.3359 9.3359h72.066c5.1562 0 9.3359-4.1797 9.3359-9.3359s-4.1797-9.3359-9.3359-9.3359z"/>
  <path d="m345.17 145.32c-5.1562 0.24609-9.1367 4.625-8.8867 9.7812 0.24609 5.1562 4.625 9.1367 9.7812 8.8906h72.066c5.1562 0 9.3359-4.1797 9.3359-9.3359s-4.1797-9.3359-9.3359-9.3359h-72.066c-0.29688-0.015625-0.59766-0.015625-0.89453 0z"/>
  <path d="m183.39 317.49c-5.1523 0.26953-9.1094 4.6641-8.8438 9.8164s4.6562 9.1133 9.8086 8.8555h233.77c5.1562 0 9.3359-4.1797 9.3359-9.3359s-4.1797-9.3359-9.3359-9.3359h-233.77c-0.32031-0.019532-0.64062-0.019532-0.96484 0z"/>
  <path d="m196.97 140.63c-10.18 0-18.672 8.4922-18.672 18.672v74.684c0 10.18 8.4922 18.672 18.672 18.672h74.684c10.18 0 18.672-8.4922 18.672-18.672v-74.684c0-10.18-8.4922-18.672-18.672-18.672zm0 18.672h74.684v74.684h-74.684z"/>
 </g>
</svg>
