<svg xmlns="http://www.w3.org/2000/svg" xmlns:xlink="http://www.w3.org/1999/xlink" width="213.695" height="203.426" viewBox="0 0 213.695 203.426">
  <defs>
    <filter id="Rectangle_240" x="161.149" y="20.38" width="52.546" height="50.488" filterUnits="userSpaceOnUse">
      <feOffset dy="3" input="SourceAlpha"/>
      <feGaussianBlur stdDeviation="3" result="blur"/>
      <feFlood flood-opacity="0.161"/>
      <feComposite operator="in" in2="blur"/>
      <feComposite in="SourceGraphic"/>
    </filter>
    <filter id="Path_391" x="0" y="0" width="114.597" height="104.448" filterUnits="userSpaceOnUse">
      <feOffset dy="3" input="SourceAlpha"/>
      <feGaussianBlur stdDeviation="3" result="blur-2"/>
      <feFlood flood-opacity="0.161"/>
      <feComposite operator="in" in2="blur-2"/>
      <feComposite in="SourceGraphic"/>
    </filter>
  </defs>
  <g id="Group_370" data-name="Group 370" transform="translate(212.593 203.426) rotate(180)">
    <g id="Group_151" data-name="Group 151" transform="translate(0 0)">
      <g transform="matrix(-1, 0, 0, -1, 212.59, 203.43)" filter="url(#Rectangle_240)">
        <rect id="Rectangle_240-2" data-name="Rectangle 240" width="32.512" height="30.294" transform="matrix(-1, 0.07, -0.07, -1, 204.69, 56.6)" fill="#f85044"/>
      </g>
      <path id="Path_72" data-name="Path 72" d="M81.859,32.184c35.67,0,47.445,29.534,47.445,48.057h33.618C162.593,41.737,133.4,0,81.859,0S.328,41.737,0,80.241H32.688C32.688,60.391,46.189,32.184,81.859,32.184Z" transform="matrix(0.998, -0.07, 0.07, 0.998, 0, 11.365)" fill="#f85044"/>
    </g>
    <g transform="matrix(-1, 0, 0, -1, 212.59, 203.43)" filter="url(#Path_391)">
      <path id="Path_391-2" data-name="Path 391" d="M30.8,28.7,28.7,1.75,61.948,0,63.7,26.6l31.149-2.1L96.6,53.2,66.5,55.3l2.1,28.349L35,86.447l-1.4-29.4L1.75,59.5,0,31.5Z" transform="translate(105.6 92.45) rotate(180)" fill="#f85044"/>
    </g>
  </g>
</svg>
