<svg xmlns="http://www.w3.org/2000/svg" xmlns:xlink="http://www.w3.org/1999/xlink" version="1.1" width="1000" height="1000" viewBox="0 0 1000 1000" xml:space="preserve">
<desc>Created with Fabric.js 3.5.0</desc>
<defs>
</defs>
<rect x="0" y="0" width="100%" height="100%" fill="rgba(51,51,51,0)"/>
<g transform="matrix(9.7112 0 0 5.6452 501.4569 482.5096)" id="160856">
<path style="stroke: none; stroke-width: 0; stroke-dasharray: none; stroke-linecap: butt; stroke-dashoffset: 0; stroke-linejoin: miter; stroke-miterlimit: 4; is-custom-font: none; font-file-url: none; fill: rgb(255,255,255); fill-rule: nonzero; opacity: 1;" vector-effect="non-scaling-stroke" transform=" translate(-78.4998, -78.5)" d="M 78.5 0 C 52.9419 0 32.1166 35.2271 32.1166 78.5 C 32.1166 121.773 52.9419 157 78.5 157 C 104.058 157 124.883 121.773 124.883 78.5 C 124.883 35.2271 104.058 0 78.5 0 Z" stroke-linecap="round"/>
</g>
<g transform="matrix(2.7324 0 0 0.6382 644.2302 929.1074)" id="233969">
<path style="stroke: none; stroke-width: 0; stroke-dasharray: none; stroke-linecap: butt; stroke-dashoffset: 0; stroke-linejoin: miter; stroke-miterlimit: 4; is-custom-font: none; font-file-url: none; fill: rgb(255,255,255); fill-rule: nonzero; opacity: 1;" vector-effect="non-scaling-stroke" transform=" translate(-78.4998, -78.5)" d="M 78.5 0 C 52.9419 0 32.1166 35.2271 32.1166 78.5 C 32.1166 121.773 52.9419 157 78.5 157 C 104.058 157 124.883 121.773 124.883 78.5 C 124.883 35.2271 104.058 0 78.5 0 Z" stroke-linecap="round"/>
</g>
<g transform="matrix(3.0485 0 0 1.5019 741.9823 854.4319)" id="702470">
<path style="stroke: none; stroke-width: 0; stroke-dasharray: none; stroke-linecap: butt; stroke-dashoffset: 0; stroke-linejoin: miter; stroke-miterlimit: 4; is-custom-font: none; font-file-url: none; fill: rgb(255,255,255); fill-rule: nonzero; opacity: 1;" vector-effect="non-scaling-stroke" transform=" translate(-78.4998, -78.5)" d="M 78.5 0 C 52.9419 0 32.1166 35.2271 32.1166 78.5 C 32.1166 121.773 52.9419 157 78.5 157 C 104.058 157 124.883 121.773 124.883 78.5 C 124.883 35.2271 104.058 0 78.5 0 Z" stroke-linecap="round"/>
</g>
<g transform="matrix(1.5358 0 0 1.4997 500.0053 619.7981)" id="861400">
<g style="" vector-effect="non-scaling-stroke">
		<g transform="matrix(1.3333 0 0 1.3333 -0.0132 -77.7667)" id="57926">
<path style="stroke: none; stroke-width: 1; stroke-dasharray: none; stroke-linecap: butt; stroke-dashoffset: 0; stroke-linejoin: miter; stroke-miterlimit: 4; is-custom-font: none; font-file-url: none; fill: rgb(0,0,0); fill-rule: nonzero; opacity: 1;" transform=" translate(-349.9959, -291.6811)" d="m 546.25 454.23 l -0.37891 -1.7227 c -0.019531 -0.089844 -0.042969 -0.17578 -0.0625 -0.26562 c -0.13281 -0.53516 -0.28125 -1.0625 -0.42969 -1.5938 l -0.60156 -2.1055 c -0.003906 -0.011718 -0.046875 -0.16016 -0.050781 -0.17187 c -0.058594 -0.20703 -0.12109 -0.41797 -0.22266 -0.71875 l -1.332 -3.75 c -0.10156 -0.27344 -0.19922 -0.54297 -0.33984 -0.87109 l -0.97656 -2.4336 c -0.98047 -2.4844 -2.0195 -5.2148 -3.168 -8.3281 c -1.2031 -3.2812 -2.5352 -6.5742 -3.8867 -9.8242 c 32.168 -41.734 49.262 -93.133 48.5 -145.82 c -0.76563 -52.688 -19.34 -103.57 -52.703 -144.35 c -33.363 -40.789 -79.551 -69.078 -131.04 -80.273 c -51.488 -11.191 -105.25 -4.625 -152.54 18.629 c -47.285 23.254 -85.305 61.832 -107.87 109.45 c -22.566 47.617 -28.352 101.47 -16.414 152.79 c 11.938 51.324 40.898 97.094 82.164 129.86 c 41.266 32.77 92.406 50.602 145.1 50.602 c 0.67578 0 1.3438 -0.019531 2.0156 -0.023437 c 1.0234 6.125 4.1641 11.695 8.875 15.742 s 10.695 6.3086 16.902 6.3945 l 101.43 1.2383 h 0.10938 h 0.14844 l 2.5781 -0.050782 c 1.332 -0.015624 2.5469 -0.12109 3.6211 -0.21484 l 0.58594 -0.050781 h 0.007813 c 16.473 -1.5469 31.801 -9.0898 43.078 -21.199 c 7.457 -7.9922 12.902 -17.648 15.883 -28.168 c 3.0117 -10.66 3.3633 -21.898 1.0273 -32.727 z m -38.953 56.797 h 0.003907 c -6.7773 4.4375 -14.531 7.1562 -22.594 7.9141 l -0.55078 0.046875 c -0.84375 0.074219 -1.6406 0.14453 -2.4141 0.14844 l -2.4258 0.046876 l -101.31 -1.2383 v 0.007813 c -4.7773 -0.058594 -8.6758 -3.8477 -8.8672 -8.6211 c -0.19141 -4.7773 3.3867 -8.8633 8.1484 -9.3047 c 4 -0.375 7.043 -3.7617 6.9844 -7.7852 c -0.0625 -4.0195 -3.207 -7.3164 -7.2188 -7.5664 c -6.4141 -0.41406 -11.633 -5.3125 -12.449 -11.688 c -0.81641 -6.375 3.0039 -12.434 9.1055 -14.449 c 3.1719 -1.043 5.3086 -4.0117 5.293 -7.3477 c -0.019531 -3.3398 -2.1836 -6.2852 -5.3633 -7.3008 c -5.9258 -1.8984 -9.8828 -7.4805 -9.7227 -13.699 c 0.16406 -6.2188 4.4141 -11.586 10.43 -13.172 c 3.3906 -0.89844 5.7461 -3.9727 5.7305 -7.4805 c -0.019531 -3.5039 -2.4023 -6.5586 -5.7969 -7.4258 l -68.57 -17.496 v 0.003907 c -7.4922 -1.9141 -12.016 -9.5352 -10.105 -17.027 c 1.9141 -7.4922 9.5352 -12.016 17.027 -10.105 l 130.92 33.406 c 5.7656 1.4688 11.883 0.32812 16.73 -3.125 c 4.8438 -3.4492 7.9219 -8.8594 8.418 -14.785 l 3.6328 -43.512 c 0.64844 -7.7031 7.4141 -13.426 15.117 -12.789 c 8.4805 0.70703 12.559 8.7773 12.762 15.977 c 0.097656 3.4805 0.027344 6.9453 -0.046875 10.617 c -0.29297 14.371 -0.625 30.656 8.2305 59.527 c 2.25 7.3359 5.3164 14.621 8.2852 21.668 c 2.0156 4.793 3.9219 9.3164 5.582 13.844 c 1.2031 3.2539 2.2852 6.1055 3.3281 8.7383 l 0.84375 2.1172 l 1.0625 2.8516 l 1.0312 3.3594 c 0.09375 0.33594 0.1875 0.67188 0.27734 1.0078 l 0.34766 1.582 l 0.003906 0.003906 c 1.7344 8.0312 1.4688 16.367 -0.76562 24.273 c -2.2188 7.8359 -6.2734 15.027 -11.828 20.98 c -2.7656 2.9609 -5.875 5.5781 -9.2617 7.7969 z m -308.43 -79.891 c -40.082 -40.082 -62.602 -94.449 -62.602 -151.13 c 0 -56.688 22.52 -111.05 62.602 -151.13 c 40.082 -40.082 94.449 -62.602 151.13 -62.602 c 56.688 0 111.05 22.52 151.13 62.602 c 35.289 35.305 57.113 81.84 61.699 131.54 c 4.582 49.703 -8.3672 99.445 -36.605 140.61 c -0.38672 -1.125 -0.75781 -2.2422 -1.0977 -3.3477 c -8.0312 -26.188 -7.7422 -40.344 -7.4648 -54.035 c 0.078126 -3.8906 0.15625 -7.5625 0.042969 -11.469 c -0.5 -17.723 -12.609 -31.566 -28.801 -32.922 h 0.003906 c -8.3242 -0.6875 -16.582 1.957 -22.957 7.3516 c -6.375 5.3906 -10.352 13.094 -11.055 21.418 l -3.6328 43.516 c -0.066406 0.79688 -0.48047 1.5234 -1.1328 1.9844 c -0.65234 0.46484 -1.4727 0.61719 -2.25 0.42188 l -130.93 -33.406 h 0.003907 c -8.1016 -2.0742 -16.691 -0.84375 -23.883 3.418 c -7.1914 4.2617 -12.391 11.211 -14.457 19.309 c -2.0664 8.1016 -0.83203 16.691 3.4414 23.879 c 4.2695 7.1875 11.219 12.379 19.32 14.441 l 49.598 12.656 v -0.003907 c -3.4766 5.7305 -5.0352 12.422 -4.4453 19.102 c 0.58594 6.6797 3.2891 12.996 7.7188 18.031 c -5.0586 6.0117 -7.6328 13.723 -7.2109 21.566 s 3.8164 15.23 9.4883 20.664 l -0.023438 0.035156 c -2.1641 0.066406 -4.332 0.10938 -6.5078 0.10938 c -28.078 0.074219 -55.895 -5.418 -81.836 -16.164 c -25.941 -10.746 -49.496 -26.527 -69.297 -46.438 z" stroke-linecap="round"/>
</g>
		<g transform="matrix(1.3333 0 0 1.3333 -109.6449 -229.9514)" id="300846">
<path style="stroke: none; stroke-width: 1; stroke-dasharray: none; stroke-linecap: butt; stroke-dashoffset: 0; stroke-linejoin: miter; stroke-miterlimit: 4; is-custom-font: none; font-file-url: none; fill: rgb(0,0,0); fill-rule: nonzero; opacity: 1;" transform=" translate(-267.7678, -177.5369)" d="m 292.23 176.73 c 4.3555 0.52344 8.6641 1.3555 12.898 2.4883 c 4.2539 1.1289 8.4219 2.5859 12.66 4.1445 l 0.26562 0.097657 c 3.0938 1.1328 6.5469 -0.19922 8.0781 -3.1172 s 0.66016 -6.5156 -2.0312 -8.4141 c -8.7812 -6.0859 -18.812 -10.133 -29.355 -11.855 c -10.461 -1.7305 -21.148 -1.5664 -31.551 0.48438 c -10.203 1.9609 -20.07 5.3867 -29.293 10.168 c -2.3047 1.1523 -4.5312 2.4648 -6.7148 3.8359 c -2.1875 1.3633 -4.332 2.8047 -6.3945 4.3672 c -4.2617 3.1172 -8.0781 6.8008 -11.344 10.953 c -1.1797 1.5586 -1.0352 3.75 0.34375 5.1406 c 1.375 1.3867 3.5664 1.5547 5.1367 0.38672 l 0.16797 -0.125 c 3.6523 -2.6289 7.5312 -4.9375 11.59 -6.8867 c 4.125 -1.9961 8.3555 -3.7656 12.672 -5.3047 c 4.3125 -1.5352 8.6992 -2.8164 13.098 -3.9102 c 4.3906 -1.043 8.832 -1.8477 13.309 -2.4141 c 8.7852 -1.1289 17.676 -1.1406 26.465 -0.039062 z" stroke-linecap="round"/>
</g>
		<g transform="matrix(1.3333 0 0 1.3333 124.7513 -291.9223)" id="286940">
<path style="stroke: none; stroke-width: 1; stroke-dasharray: none; stroke-linecap: butt; stroke-dashoffset: 0; stroke-linejoin: miter; stroke-miterlimit: 4; is-custom-font: none; font-file-url: none; fill: rgb(0,0,0); fill-rule: nonzero; opacity: 1;" transform=" translate(-443.565, -131.0588)" d="m 393.79 143.64 l 0.1875 -0.14062 h 0.003906 c 7.1914 -5.6133 15.359 -9.8555 24.086 -12.52 c 8.7539 -2.4961 17.883 -3.4141 26.957 -2.7109 c 2.3086 0.16797 4.6172 0.46094 6.918 0.83203 c 2.3047 0.35938 4.6094 0.79688 6.8984 1.3281 l 0.003906 0.003907 c 4.5938 1.0977 9.1055 2.5234 13.5 4.2578 c 4.3984 1.7422 8.6484 3.8359 12.711 6.2617 c 3.9922 2.3398 7.668 5.1758 10.941 8.4453 l 0.19141 0.19922 h 0.003906 c 1.5234 1.543 3.9609 1.7188 5.6914 0.40234 c 1.7266 -1.3125 2.2148 -3.7031 1.1367 -5.5898 c -2.9023 -4.9023 -6.6289 -9.2656 -11.012 -12.906 c -1.0547 -0.91797 -2.1211 -1.8164 -3.2422 -2.6289 c -1.0977 -0.85938 -2.2344 -1.6445 -3.3789 -2.4258 c -2.2812 -1.5703 -4.6445 -3.0117 -7.0859 -4.3203 c -4.8633 -2.6602 -9.9727 -4.8477 -15.25 -6.5391 c -2.6445 -0.84375 -5.3281 -1.6094 -8.0508 -2.2305 c -2.7305 -0.58594 -5.4922 -1.0742 -8.2852 -1.4219 c -11.363 -1.5742 -22.934 -0.48438 -33.801 3.1797 c -10.887 3.7617 -20.535 10.426 -27.91 19.273 c -2.0625 2.5039 -1.9336 6.1562 0.30078 8.5117 c 2.2344 2.3555 5.875 2.6719 8.4844 0.73828 z" stroke-linecap="round"/>
</g>
		<g transform="matrix(1.3333 0 0 1.3333 -83.3872 -172.5077)" id="708975">
<path style="stroke: none; stroke-width: 1; stroke-dasharray: none; stroke-linecap: butt; stroke-dashoffset: 0; stroke-linejoin: miter; stroke-miterlimit: 4; is-custom-font: none; font-file-url: none; fill: rgb(0,0,0); fill-rule: nonzero; opacity: 1;" transform=" translate(-287.4604, -220.62)" d="m 318.96 220.62 c 0 -8.3555 -3.3164 -16.367 -9.2266 -22.273 c -5.9062 -5.9062 -13.918 -9.2266 -22.273 -9.2266 c -8.3516 0 -16.363 3.3203 -22.273 9.2266 c -5.9062 5.9062 -9.2266 13.918 -9.2266 22.273 c 0 8.3555 3.3203 16.367 9.2266 22.273 c 5.9102 5.9062 13.922 9.2266 22.273 9.2266 c 8.3555 0 16.367 -3.3203 22.277 -9.2266 c 5.9062 -5.9062 9.2227 -13.918 9.2227 -22.273 z m -44.145 -13.477 c 0 -5.1133 3.082 -9.7266 7.8047 -11.684 c 4.7266 -1.957 10.168 -0.875 13.785 2.7422 c 3.6172 3.6172 4.6992 9.0547 2.7383 13.781 c -1.957 4.7266 -6.5664 7.8086 -11.684 7.8086 c -6.9844 0 -12.645 -5.6641 -12.645 -12.648 z" stroke-linecap="round"/>
</g>
		<g transform="matrix(1.3333 0 0 1.3333 113.239 -197.4016)" id="739845">
<path style="stroke: none; stroke-width: 1; stroke-dasharray: none; stroke-linecap: butt; stroke-dashoffset: 0; stroke-linejoin: miter; stroke-miterlimit: 4; is-custom-font: none; font-file-url: none; fill: rgb(0,0,0); fill-rule: nonzero; opacity: 1;" transform=" translate(-434.93, -201.9496)" d="m 434.93 170.45 c -8.3555 0 -16.367 3.3203 -22.273 9.2266 s -9.2266 13.918 -9.2266 22.273 s 3.3203 16.367 9.2266 22.273 c 5.9062 5.9102 13.918 9.2266 22.273 9.2266 c 8.3555 0 16.367 -3.3164 22.273 -9.2266 c 5.9062 -5.9062 9.2266 -13.918 9.2266 -22.273 s -3.3203 -16.367 -9.2266 -22.273 s -13.918 -9.2266 -22.273 -9.2266 z m 0 30.672 c -5.1133 0 -9.7266 -3.082 -11.684 -7.8047 c -1.957 -4.7266 -0.875 -10.168 2.7422 -13.785 c 3.6172 -3.6172 9.0547 -4.6992 13.781 -2.7383 c 4.7266 1.957 7.8086 6.5664 7.8086 11.684 c 0 3.3516 -1.3359 6.5703 -3.707 8.9414 c -2.3711 2.3711 -5.5859 3.7031 -8.9414 3.7031 z" stroke-linecap="round"/>
</g>
		<g transform="matrix(1.3333 0 0 1.3333 27.9879 -48.0369)" id="734568">
<path style="stroke: none; stroke-width: 1; stroke-dasharray: none; stroke-linecap: butt; stroke-dashoffset: 0; stroke-linejoin: miter; stroke-miterlimit: 4; is-custom-font: none; font-file-url: none; fill: rgb(0,0,0); fill-rule: nonzero; opacity: 1;" transform=" translate(-370.9928, -313.9727)" d="m 298.38 322.16 c 0.71875 2.3047 2.3281 4.2266 4.4648 5.3477 c 2.1406 1.1172 4.6367 1.3359 6.9414 0.61328 c 15.461 -4.8477 85.105 -14.816 123.69 -8.5664 c 4.957 0.79688 9.625 -2.5742 10.426 -7.5312 c 0.80469 -4.957 -2.5625 -9.6289 -7.5195 -10.438 c -40.777 -6.6016 -113.52 3.3555 -132.04 9.168 c -2.3008 0.72266 -4.2227 2.3281 -5.3438 4.4688 c -1.1172 2.1367 -1.3398 4.6328 -0.61719 6.9375 z" stroke-linecap="round"/>
</g>
		<g transform="matrix(1.3333 0 0 1.3333 -369.9792 304.5936)" id="530055">
<path style="stroke: none; stroke-width: 1; stroke-dasharray: none; stroke-linecap: butt; stroke-dashoffset: 0; stroke-linejoin: miter; stroke-miterlimit: 4; is-custom-font: none; font-file-url: none; fill: rgb(0,0,0); fill-rule: nonzero; opacity: 1;" transform=" translate(-2.5156, 2.5547)" d="m 4.6875 -0.28125 c -0.24219 0.125 -0.49219 0.21875 -0.75 0.28125 c -0.26172 0.0625 -0.53906 0.09375 -0.82812 0.09375 c -0.84375 0 -1.5156 -0.23438 -2.0156 -0.70312 c -0.5 -0.47656 -0.75 -1.125 -0.75 -1.9375 s 0.25 -1.457 0.75 -1.9375 c 0.5 -0.47656 1.1719 -0.71875 2.0156 -0.71875 c 0.28906 0 0.56641 0.039063 0.82812 0.10938 c 0.25781 0.0625 0.50781 0.15625 0.75 0.28125 v 1.0469 c -0.24219 -0.16406 -0.48047 -0.28516 -0.71875 -0.35938 c -0.24219 -0.070312 -0.49219 -0.10938 -0.75 -0.10938 c -0.46875 0 -0.83984 0.15234 -1.1094 0.45312 c -0.27344 0.29297 -0.40625 0.70312 -0.40625 1.2344 s 0.13281 0.94922 0.40625 1.25 c 0.26953 0.29297 0.64062 0.4375 1.1094 0.4375 c 0.25781 0 0.50781 -0.035156 0.75 -0.10938 c 0.23828 -0.082031 0.47656 -0.20703 0.71875 -0.375 z" stroke-linecap="round"/>
</g>
		<g transform="matrix(1.3333 0 0 1.3333 -363.7969 305.3854)" id="197583">
<path style="stroke: none; stroke-width: 1; stroke-dasharray: none; stroke-linecap: butt; stroke-dashoffset: 0; stroke-linejoin: miter; stroke-miterlimit: 4; is-custom-font: none; font-file-url: none; fill: rgb(0,0,0); fill-rule: nonzero; opacity: 1;" transform=" translate(-2.0156, 1.9609)" d="m 3.4375 -2.7812 c -0.11719 -0.050781 -0.22656 -0.085938 -0.32812 -0.10938 c -0.10547 -0.03125 -0.21094 -0.046875 -0.3125 -0.046875 c -0.3125 0 -0.55859 0.10547 -0.73438 0.3125 c -0.16797 0.19922 -0.25 0.48438 -0.25 0.85938 v 1.7656 h -1.2188 v -3.8281 h 1.2188 v 0.625 c 0.15625 -0.25 0.33203 -0.42969 0.53125 -0.54688 c 0.20703 -0.11328 0.45703 -0.17188 0.75 -0.17188 c 0.03125 0 0.070312 0.007813 0.125 0.015625 c 0.050781 0 0.11719 0.007812 0.20312 0.015625 z" stroke-linecap="round"/>
</g>
		<g transform="matrix(1.3333 0 0 1.3333 -358.745 305.4477)" id="334399">
<path style="stroke: none; stroke-width: 1; stroke-dasharray: none; stroke-linecap: butt; stroke-dashoffset: 0; stroke-linejoin: miter; stroke-miterlimit: 4; is-custom-font: none; font-file-url: none; fill: rgb(0,0,0); fill-rule: nonzero; opacity: 1;" transform=" translate(-2.3515, 1.9141)" d="m 4.4062 -1.9219 v 0.34375 h -2.8594 c 0.03125 0.29297 0.13281 0.51172 0.3125 0.65625 c 0.17578 0.13672 0.42578 0.20312 0.75 0.20312 c 0.25 0 0.50781 -0.035156 0.78125 -0.10938 c 0.26953 -0.070313 0.55078 -0.1875 0.84375 -0.34375 v 0.9375 c -0.29297 0.11719 -0.58594 0.19922 -0.875 0.25 c -0.29297 0.050781 -0.58594 0.078125 -0.875 0.078125 c -0.6875 0 -1.2266 -0.17188 -1.6094 -0.51562 c -0.38672 -0.35156 -0.57812 -0.84766 -0.57812 -1.4844 c 0 -0.625 0.1875 -1.1133 0.5625 -1.4688 c 0.38281 -0.36328 0.90625 -0.54688 1.5625 -0.54688 c 0.60156 0 1.082 0.18359 1.4375 0.54688 c 0.36328 0.36719 0.54688 0.85156 0.54688 1.4531 z m -1.25 -0.40625 c 0 -0.23828 -0.070312 -0.42578 -0.20312 -0.5625 c -0.13672 -0.14453 -0.3125 -0.21875 -0.53125 -0.21875 c -0.24219 0 -0.4375 0.070313 -0.59375 0.20312 c -0.14844 0.13672 -0.23438 0.32812 -0.26562 0.57812 z" stroke-linecap="round"/>
</g>
		<g transform="matrix(1.3333 0 0 1.3333 -352.573 305.4478)" id="420931">
<path style="stroke: none; stroke-width: 1; stroke-dasharray: none; stroke-linecap: butt; stroke-dashoffset: 0; stroke-linejoin: miter; stroke-miterlimit: 4; is-custom-font: none; font-file-url: none; fill: rgb(0,0,0); fill-rule: nonzero; opacity: 1;" transform=" translate(-2.2344, 1.9141)" d="m 2.2969 -1.7188 c -0.25 0 -0.44531 0.042969 -0.57812 0.125 c -0.125 0.085938 -0.1875 0.21484 -0.1875 0.39062 c 0 0.14844 0.050781 0.26562 0.15625 0.35938 c 0.10156 0.085938 0.25 0.125 0.4375 0.125 c 0.22656 0 0.42188 -0.078125 0.57812 -0.23438 c 0.15625 -0.16406 0.23438 -0.375 0.23438 -0.625 v -0.14062 z m 1.875 -0.46875 v 2.1875 h -1.2344 v -0.5625 c -0.16797 0.23047 -0.35547 0.39844 -0.5625 0.5 c -0.19922 0.10156 -0.44531 0.15625 -0.73438 0.15625 c -0.39844 0 -0.71875 -0.11328 -0.96875 -0.34375 c -0.25 -0.22656 -0.375 -0.53125 -0.375 -0.90625 c 0 -0.44531 0.15625 -0.77344 0.46875 -0.98438 c 0.3125 -0.20703 0.79688 -0.3125 1.4531 -0.3125 h 0.71875 v -0.09375 c 0 -0.19531 -0.078125 -0.33594 -0.23438 -0.42188 c -0.14844 -0.09375 -0.38281 -0.14062 -0.70312 -0.14062 c -0.26172 0 -0.50781 0.027344 -0.73438 0.078125 c -0.23047 0.054688 -0.4375 0.13281 -0.625 0.23438 v -0.92188 c 0.25781 -0.070312 0.51953 -0.125 0.78125 -0.15625 c 0.26953 -0.03125 0.53516 -0.046875 0.79688 -0.046875 c 0.6875 0 1.1797 0.13672 1.4844 0.40625 c 0.3125 0.27344 0.46875 0.71484 0.46875 1.3281 z" stroke-linecap="round"/>
</g>
		<g transform="matrix(1.3333 0 0 1.3333 -347.0625 304.7187)" id="965885">
<path style="stroke: none; stroke-width: 1; stroke-dasharray: none; stroke-linecap: butt; stroke-dashoffset: 0; stroke-linejoin: miter; stroke-miterlimit: 4; is-custom-font: none; font-file-url: none; fill: rgb(0,0,0); fill-rule: nonzero; opacity: 1;" transform=" translate(-1.6406, 2.4609)" d="m 1.9219 -4.9219 v 1.0938 h 1.2656 v 0.875 h -1.2656 v 1.625 c 0 0.17969 0.035156 0.29688 0.10938 0.35938 c 0.070312 0.0625 0.21094 0.09375 0.42188 0.09375 h 0.625 v 0.875 h -1.0469 c -0.48047 0 -0.82422 -0.097656 -1.0312 -0.29688 c -0.19922 -0.20703 -0.29688 -0.55078 -0.29688 -1.0312 v -1.625 h -0.60938 v -0.875 h 0.60938 v -1.0938 z" stroke-linecap="round"/>
</g>
		<g transform="matrix(1.3333 0 0 1.3333 -341.6564 305.4477)" id="755077">
<path style="stroke: none; stroke-width: 1; stroke-dasharray: none; stroke-linecap: butt; stroke-dashoffset: 0; stroke-linejoin: miter; stroke-miterlimit: 4; is-custom-font: none; font-file-url: none; fill: rgb(0,0,0); fill-rule: nonzero; opacity: 1;" transform=" translate(-2.3515, 1.9141)" d="m 4.4062 -1.9219 v 0.34375 h -2.8594 c 0.03125 0.29297 0.13281 0.51172 0.3125 0.65625 c 0.17578 0.13672 0.42578 0.20312 0.75 0.20312 c 0.25 0 0.50781 -0.035156 0.78125 -0.10938 c 0.26953 -0.070313 0.55078 -0.1875 0.84375 -0.34375 v 0.9375 c -0.29297 0.11719 -0.58594 0.19922 -0.875 0.25 c -0.29297 0.050781 -0.58594 0.078125 -0.875 0.078125 c -0.6875 0 -1.2266 -0.17188 -1.6094 -0.51562 c -0.38672 -0.35156 -0.57812 -0.84766 -0.57812 -1.4844 c 0 -0.625 0.1875 -1.1133 0.5625 -1.4688 c 0.38281 -0.36328 0.90625 -0.54688 1.5625 -0.54688 c 0.60156 0 1.082 0.18359 1.4375 0.54688 c 0.36328 0.36719 0.54688 0.85156 0.54688 1.4531 z m -1.25 -0.40625 c 0 -0.23828 -0.070312 -0.42578 -0.20312 -0.5625 c -0.13672 -0.14453 -0.3125 -0.21875 -0.53125 -0.21875 c -0.24219 0 -0.4375 0.070313 -0.59375 0.20312 c -0.14844 0.13672 -0.23438 0.32812 -0.26562 0.57812 z" stroke-linecap="round"/>
</g>
		<g transform="matrix(1.3333 0 0 1.3333 -335.3022 304.5207)" id="480614">
<path style="stroke: none; stroke-width: 1; stroke-dasharray: none; stroke-linecap: butt; stroke-dashoffset: 0; stroke-linejoin: miter; stroke-miterlimit: 4; is-custom-font: none; font-file-url: none; fill: rgb(0,0,0); fill-rule: nonzero; opacity: 1;" transform=" translate(-2.3672, 2.6094)" d="m 3.1875 -3.2656 v -2.0469 h 1.2344 v 5.3125 h -1.2344 v -0.54688 c -0.16797 0.21875 -0.35547 0.38281 -0.5625 0.48438 c -0.19922 0.10156 -0.42969 0.15625 -0.6875 0.15625 c -0.48047 0 -0.87109 -0.1875 -1.1719 -0.5625 c -0.30469 -0.375 -0.45312 -0.85156 -0.45312 -1.4375 c 0 -0.59375 0.14844 -1.0781 0.45312 -1.4531 c 0.30078 -0.375 0.69141 -0.5625 1.1719 -0.5625 c 0.25781 0 0.48828 0.054687 0.6875 0.15625 c 0.20703 0.10547 0.39453 0.27344 0.5625 0.5 z m -0.79688 2.4688 c 0.25781 0 0.45703 -0.09375 0.59375 -0.28125 c 0.13281 -0.1875 0.20312 -0.46094 0.20312 -0.82812 c 0 -0.36328 -0.070312 -0.64062 -0.20312 -0.82812 c -0.13672 -0.19531 -0.33594 -0.29688 -0.59375 -0.29688 c -0.26172 0 -0.46484 0.10156 -0.60938 0.29688 c -0.13672 0.1875 -0.20312 0.46484 -0.20312 0.82812 c 0 0.36719 0.066406 0.64062 0.20312 0.82812 c 0.14453 0.1875 0.34766 0.28125 0.60938 0.28125 z" stroke-linecap="round"/>
</g>
		<g transform="matrix(1.3333 0 0 1.3333 -325.0001 304.5206)" id="667720">
<path style="stroke: none; stroke-width: 1; stroke-dasharray: none; stroke-linecap: butt; stroke-dashoffset: 0; stroke-linejoin: miter; stroke-miterlimit: 4; is-custom-font: none; font-file-url: none; fill: rgb(0,0,0); fill-rule: nonzero; opacity: 1;" transform=" translate(-2.6484, 2.6095)" d="m 2.625 -0.79688 c 0.25781 0 0.45703 -0.09375 0.59375 -0.28125 c 0.14453 -0.1875 0.21875 -0.46094 0.21875 -0.82812 c 0 -0.36328 -0.074219 -0.64062 -0.21875 -0.82812 c -0.13672 -0.19531 -0.33594 -0.29688 -0.59375 -0.29688 c -0.26172 0 -0.46484 0.10156 -0.60938 0.29688 c -0.13672 0.1875 -0.20312 0.46484 -0.20312 0.82812 c 0 0.35547 0.066406 0.63281 0.20312 0.82812 c 0.14453 0.1875 0.34766 0.28125 0.60938 0.28125 z m -0.8125 -2.4688 c 0.16406 -0.22656 0.35156 -0.39453 0.5625 -0.5 c 0.20703 -0.10156 0.44141 -0.15625 0.70312 -0.15625 c 0.46875 0 0.85156 0.1875 1.1562 0.5625 c 0.3125 0.375 0.46875 0.85938 0.46875 1.4531 c 0 0.58594 -0.15625 1.0625 -0.46875 1.4375 c -0.30469 0.375 -0.6875 0.5625 -1.1562 0.5625 c -0.26172 0 -0.49609 -0.054688 -0.70312 -0.15625 c -0.21094 -0.10156 -0.39844 -0.26562 -0.5625 -0.48438 v 0.54688 h -1.2188 v -5.3125 h 1.2188 z" stroke-linecap="round"/>
</g>
		<g transform="matrix(1.3333 0 0 1.3333 -318.8387 306.4583)" id="907649">
<path style="stroke: none; stroke-width: 1; stroke-dasharray: none; stroke-linecap: butt; stroke-dashoffset: 0; stroke-linejoin: miter; stroke-miterlimit: 4; is-custom-font: none; font-file-url: none; fill: rgb(0,0,0); fill-rule: nonzero; opacity: 1;" transform=" translate(-2.2578, 1.1562)" d="m 0.078125 -3.8281 h 1.2344 l 1.0312 2.5938 l 0.875 -2.5938 h 1.2188 l -1.6094 4.1875 c -0.16797 0.42578 -0.35938 0.72266 -0.57812 0.89062 c -0.21094 0.17578 -0.49219 0.26562 -0.84375 0.26562 h -0.70312 v -0.8125 h 0.375 c 0.20703 0 0.35938 -0.03125 0.45312 -0.09375 s 0.16406 -0.18359 0.21875 -0.35938 l 0.046875 -0.10938 z" stroke-linecap="round"/>
</g>
		<g transform="matrix(1.3333 0 0 1.3333 -308.5887 304.5935)" id="311804">
<path style="stroke: none; stroke-width: 1; stroke-dasharray: none; stroke-linecap: butt; stroke-dashoffset: 0; stroke-linejoin: miter; stroke-miterlimit: 4; is-custom-font: none; font-file-url: none; fill: rgb(0,0,0); fill-rule: nonzero; opacity: 1;" transform=" translate(-2.9453, 2.5547)" d="m 2.5156 -2.8438 c 0.26953 0 0.46094 -0.046875 0.57812 -0.14062 c 0.125 -0.10156 0.1875 -0.27344 0.1875 -0.51562 c 0 -0.22656 -0.0625 -0.39453 -0.1875 -0.5 c -0.11719 -0.10156 -0.30859 -0.15625 -0.57812 -0.15625 h -0.5625 v 1.3125 z m -0.5625 0.90625 v 1.9375 h -1.3125 v -5.1094 h 2.0156 c 0.66406 0 1.1562 0.11719 1.4688 0.34375 c 0.3125 0.23047 0.46875 0.58984 0.46875 1.0781 c 0 0.33594 -0.085938 0.60938 -0.25 0.82812 c -0.15625 0.21094 -0.39844 0.36719 -0.71875 0.46875 c 0.17578 0.042969 0.33203 0.13672 0.46875 0.28125 c 0.14453 0.14844 0.28906 0.36719 0.4375 0.65625 l 0.71875 1.4531 h -1.4062 l -0.60938 -1.2656 c -0.13672 -0.25781 -0.26562 -0.4375 -0.39062 -0.53125 s -0.29688 -0.14062 -0.51562 -0.14062 z" stroke-linecap="round"/>
</g>
		<g transform="matrix(1.3333 0 0 1.3333 -303.1615 304.4582)" id="708152">
<path style="stroke: none; stroke-width: 1; stroke-dasharray: none; stroke-linecap: butt; stroke-dashoffset: 0; stroke-linejoin: miter; stroke-miterlimit: 4; is-custom-font: none; font-file-url: none; fill: rgb(0,0,0); fill-rule: nonzero; opacity: 1;" transform=" translate(-1.625, 2.6563)" d="m 3.1094 -5.3125 v 0.79688 h -0.67188 c -0.17969 0 -0.30469 0.03125 -0.375 0.09375 c -0.0625 0.0625 -0.09375 0.17188 -0.09375 0.32812 v 0.26562 h 1.0469 v 0.875 h -1.0469 v 2.9531 h -1.2344 v -2.9531 h -0.59375 v -0.875 h 0.59375 v -0.26562 c 0 -0.41406 0.11328 -0.72266 0.34375 -0.92188 c 0.23828 -0.19531 0.60156 -0.29688 1.0938 -0.29688 z" stroke-linecap="round"/>
</g>
		<g transform="matrix(1.3333 0 0 1.3333 -299.6666 304.4582)" id="981783">
<path style="stroke: none; stroke-width: 1; stroke-dasharray: none; stroke-linecap: butt; stroke-dashoffset: 0; stroke-linejoin: miter; stroke-miterlimit: 4; is-custom-font: none; font-file-url: none; fill: rgb(0,0,0); fill-rule: nonzero; opacity: 1;" transform=" translate(-1.2031, 2.6563)" d="m 0.59375 -5.3125 h 1.2188 v 5.3125 h -1.2188 z" stroke-linecap="round"/>
</g>
		<g transform="matrix(1.3333 0 0 1.3333 -294.8595 305.4478)" id="159349">
<path style="stroke: none; stroke-width: 1; stroke-dasharray: none; stroke-linecap: butt; stroke-dashoffset: 0; stroke-linejoin: miter; stroke-miterlimit: 4; is-custom-font: none; font-file-url: none; fill: rgb(0,0,0); fill-rule: nonzero; opacity: 1;" transform=" translate(-2.4062, 1.9141)" d="m 2.4062 -3.0469 c -0.27344 0 -0.48047 0.10156 -0.625 0.29688 c -0.13672 0.1875 -0.20312 0.46875 -0.20312 0.84375 c 0 0.36719 0.066406 0.64844 0.20312 0.84375 c 0.14453 0.1875 0.35156 0.28125 0.625 0.28125 c 0.26953 0 0.47266 -0.09375 0.60938 -0.28125 c 0.14453 -0.19531 0.21875 -0.47656 0.21875 -0.84375 c 0 -0.375 -0.074219 -0.65625 -0.21875 -0.84375 c -0.13672 -0.19531 -0.33984 -0.29688 -0.60938 -0.29688 z m 0 -0.875 c 0.65625 0 1.1719 0.17969 1.5469 0.53125 c 0.375 0.35547 0.5625 0.85156 0.5625 1.4844 c 0 0.625 -0.1875 1.1172 -0.5625 1.4688 c -0.375 0.35547 -0.89062 0.53125 -1.5469 0.53125 s -1.1719 -0.17578 -1.5469 -0.53125 c -0.375 -0.35156 -0.5625 -0.84375 -0.5625 -1.4688 c 0 -0.63281 0.1875 -1.1289 0.5625 -1.4844 c 0.375 -0.35156 0.89062 -0.53125 1.5469 -0.53125 z" stroke-linecap="round"/>
</g>
		<g transform="matrix(1.3333 0 0 1.3333 -288.9688 305.3854)" id="551832">
<path style="stroke: none; stroke-width: 1; stroke-dasharray: none; stroke-linecap: butt; stroke-dashoffset: 0; stroke-linejoin: miter; stroke-miterlimit: 4; is-custom-font: none; font-file-url: none; fill: rgb(0,0,0); fill-rule: nonzero; opacity: 1;" transform=" translate(-2.0156, 1.9609)" d="m 3.4375 -2.7812 c -0.11719 -0.050781 -0.22656 -0.085938 -0.32812 -0.10938 c -0.10547 -0.03125 -0.21094 -0.046875 -0.3125 -0.046875 c -0.3125 0 -0.55859 0.10547 -0.73438 0.3125 c -0.16797 0.19922 -0.25 0.48438 -0.25 0.85938 v 1.7656 h -1.2188 v -3.8281 h 1.2188 v 0.625 c 0.15625 -0.25 0.33203 -0.42969 0.53125 -0.54688 c 0.20703 -0.11328 0.45703 -0.17188 0.75 -0.17188 c 0.03125 0 0.070312 0.007813 0.125 0.015625 c 0.050781 0 0.11719 0.007812 0.20312 0.015625 z" stroke-linecap="round"/>
</g>
		<g transform="matrix(1.3333 0 0 1.3333 -371.1667 313.7915)" id="639162">
<path style="stroke: none; stroke-width: 1; stroke-dasharray: none; stroke-linecap: butt; stroke-dashoffset: 0; stroke-linejoin: miter; stroke-miterlimit: 4; is-custom-font: none; font-file-url: none; fill: rgb(0,0,0); fill-rule: nonzero; opacity: 1;" transform=" translate(-1.625, 2.6563)" d="m 3.1094 -5.3125 v 0.79688 h -0.67188 c -0.17969 0 -0.30469 0.03125 -0.375 0.09375 c -0.0625 0.0625 -0.09375 0.17188 -0.09375 0.32812 v 0.26562 h 1.0469 v 0.875 h -1.0469 v 2.9531 h -1.2344 v -2.9531 h -0.59375 v -0.875 h 0.59375 v -0.26562 c 0 -0.41406 0.11328 -0.72266 0.34375 -0.92188 c 0.23828 -0.19531 0.60156 -0.29688 1.0938 -0.29688 z" stroke-linecap="round"/>
</g>
		<g transform="matrix(1.3333 0 0 1.3333 -366.5834 314.7188)" id="756037">
<path style="stroke: none; stroke-width: 1; stroke-dasharray: none; stroke-linecap: butt; stroke-dashoffset: 0; stroke-linejoin: miter; stroke-miterlimit: 4; is-custom-font: none; font-file-url: none; fill: rgb(0,0,0); fill-rule: nonzero; opacity: 1;" transform=" translate(-2.0156, 1.9609)" d="m 3.4375 -2.7812 c -0.11719 -0.050781 -0.22656 -0.085938 -0.32812 -0.10938 c -0.10547 -0.03125 -0.21094 -0.046875 -0.3125 -0.046875 c -0.3125 0 -0.55859 0.10547 -0.73438 0.3125 c -0.16797 0.19922 -0.25 0.48438 -0.25 0.85938 v 1.7656 h -1.2188 v -3.8281 h 1.2188 v 0.625 c 0.15625 -0.25 0.33203 -0.42969 0.53125 -0.54688 c 0.20703 -0.11328 0.45703 -0.17188 0.75 -0.17188 c 0.03125 0 0.070312 0.007813 0.125 0.015625 c 0.050781 0 0.11719 0.007812 0.20312 0.015625 z" stroke-linecap="round"/>
</g>
		<g transform="matrix(1.3333 0 0 1.3333 -361.4637 314.7812)" id="463595">
<path style="stroke: none; stroke-width: 1; stroke-dasharray: none; stroke-linecap: butt; stroke-dashoffset: 0; stroke-linejoin: miter; stroke-miterlimit: 4; is-custom-font: none; font-file-url: none; fill: rgb(0,0,0); fill-rule: nonzero; opacity: 1;" transform=" translate(-2.4062, 1.9141)" d="m 2.4062 -3.0469 c -0.27344 0 -0.48047 0.10156 -0.625 0.29688 c -0.13672 0.1875 -0.20312 0.46875 -0.20312 0.84375 c 0 0.36719 0.066406 0.64844 0.20312 0.84375 c 0.14453 0.1875 0.35156 0.28125 0.625 0.28125 c 0.26953 0 0.47266 -0.09375 0.60938 -0.28125 c 0.14453 -0.19531 0.21875 -0.47656 0.21875 -0.84375 c 0 -0.375 -0.074219 -0.65625 -0.21875 -0.84375 c -0.13672 -0.19531 -0.33984 -0.29688 -0.60938 -0.29688 z m 0 -0.875 c 0.65625 0 1.1719 0.17969 1.5469 0.53125 c 0.375 0.35547 0.5625 0.85156 0.5625 1.4844 c 0 0.625 -0.1875 1.1172 -0.5625 1.4688 c -0.375 0.35547 -0.89062 0.53125 -1.5469 0.53125 s -1.1719 -0.17578 -1.5469 -0.53125 c -0.375 -0.35156 -0.5625 -0.84375 -0.5625 -1.4688 c 0 -0.63281 0.1875 -1.1289 0.5625 -1.4844 c 0.375 -0.35156 0.89062 -0.53125 1.5469 -0.53125 z" stroke-linecap="round"/>
</g>
		<g transform="matrix(1.3333 0 0 1.3333 -353.3804 314.7187)" id="56444">
<path style="stroke: none; stroke-width: 1; stroke-dasharray: none; stroke-linecap: butt; stroke-dashoffset: 0; stroke-linejoin: miter; stroke-miterlimit: 4; is-custom-font: none; font-file-url: none; fill: rgb(0,0,0); fill-rule: nonzero; opacity: 1;" transform=" translate(-3.6562, 1.961)" d="m 4.1406 -3.1875 c 0.15625 -0.23828 0.33594 -0.42188 0.54688 -0.54688 c 0.20703 -0.125 0.44141 -0.1875 0.70312 -0.1875 c 0.4375 0 0.76953 0.13672 1 0.40625 c 0.22656 0.27344 0.34375 0.66797 0.34375 1.1875 v 2.3281 h -1.2188 v -2 v -0.09375 v -0.125 c 0 -0.26953 -0.042969 -0.46875 -0.125 -0.59375 c -0.074219 -0.125 -0.19922 -0.1875 -0.375 -0.1875 c -0.24219 0 -0.42188 0.10156 -0.54688 0.29688 c -0.125 0.1875 -0.1875 0.46484 -0.1875 0.82812 v 1.875 h -1.2344 v -2 c 0 -0.41406 -0.039063 -0.6875 -0.10938 -0.8125 c -0.074219 -0.125 -0.20312 -0.1875 -0.39062 -0.1875 c -0.24219 0 -0.42188 0.10156 -0.54688 0.29688 c -0.125 0.1875 -0.1875 0.46094 -0.1875 0.8125 v 1.8906 h -1.2344 v -3.8281 h 1.2344 v 0.5625 c 0.14453 -0.21875 0.31641 -0.37891 0.51562 -0.48438 c 0.19531 -0.11328 0.41016 -0.17188 0.64062 -0.17188 c 0.26953 0 0.50391 0.070313 0.70312 0.20312 c 0.20703 0.125 0.36328 0.30469 0.46875 0.53125 z" stroke-linecap="round"/>
</g>
		<g transform="matrix(1.3333 0 0 1.3333 -343.0938 314.052)" id="537411">
<path style="stroke: none; stroke-width: 1; stroke-dasharray: none; stroke-linecap: butt; stroke-dashoffset: 0; stroke-linejoin: miter; stroke-miterlimit: 4; is-custom-font: none; font-file-url: none; fill: rgb(0,0,0); fill-rule: nonzero; opacity: 1;" transform=" translate(-1.6406, 2.4609)" d="m 1.9219 -4.9219 v 1.0938 h 1.2656 v 0.875 h -1.2656 v 1.625 c 0 0.17969 0.035156 0.29688 0.10938 0.35938 c 0.070312 0.0625 0.21094 0.09375 0.42188 0.09375 h 0.625 v 0.875 h -1.0469 c -0.48047 0 -0.82422 -0.097656 -1.0312 -0.29688 c -0.19922 -0.20703 -0.29688 -0.55078 -0.29688 -1.0312 v -1.625 h -0.60938 v -0.875 h 0.60938 v -1.0938 z" stroke-linecap="round"/>
</g>
		<g transform="matrix(1.3333 0 0 1.3333 -337.4689 313.7916)" id="80623">
<path style="stroke: none; stroke-width: 1; stroke-dasharray: none; stroke-linecap: butt; stroke-dashoffset: 0; stroke-linejoin: miter; stroke-miterlimit: 4; is-custom-font: none; font-file-url: none; fill: rgb(0,0,0); fill-rule: nonzero; opacity: 1;" transform=" translate(-2.5156, 2.6562)" d="m 4.4375 -2.3281 v 2.3281 h -1.2344 v -1.7812 c 0 -0.33203 -0.011719 -0.5625 -0.03125 -0.6875 c -0.011719 -0.125 -0.03125 -0.21875 -0.0625 -0.28125 c -0.054687 -0.070312 -0.12109 -0.12891 -0.20312 -0.17188 c -0.074219 -0.050781 -0.16797 -0.078125 -0.28125 -0.078125 c -0.25 0 -0.44922 0.10156 -0.59375 0.29688 c -0.14844 0.19922 -0.21875 0.46875 -0.21875 0.8125 v 1.8906 h -1.2188 v -5.3125 h 1.2188 v 2.0469 c 0.1875 -0.22656 0.37891 -0.39453 0.57812 -0.5 c 0.20703 -0.10156 0.44141 -0.15625 0.70312 -0.15625 c 0.4375 0 0.76953 0.13672 1 0.40625 c 0.22656 0.27344 0.34375 0.66797 0.34375 1.1875 z" stroke-linecap="round"/>
</g>
		<g transform="matrix(1.3333 0 0 1.3333 -331.0418 314.7811)" id="620376">
<path style="stroke: none; stroke-width: 1; stroke-dasharray: none; stroke-linecap: butt; stroke-dashoffset: 0; stroke-linejoin: miter; stroke-miterlimit: 4; is-custom-font: none; font-file-url: none; fill: rgb(0,0,0); fill-rule: nonzero; opacity: 1;" transform=" translate(-2.3515, 1.9141)" d="m 4.4062 -1.9219 v 0.34375 h -2.8594 c 0.03125 0.29297 0.13281 0.51172 0.3125 0.65625 c 0.17578 0.13672 0.42578 0.20312 0.75 0.20312 c 0.25 0 0.50781 -0.035156 0.78125 -0.10938 c 0.26953 -0.070313 0.55078 -0.1875 0.84375 -0.34375 v 0.9375 c -0.29297 0.11719 -0.58594 0.19922 -0.875 0.25 c -0.29297 0.050781 -0.58594 0.078125 -0.875 0.078125 c -0.6875 0 -1.2266 -0.17188 -1.6094 -0.51562 c -0.38672 -0.35156 -0.57812 -0.84766 -0.57812 -1.4844 c 0 -0.625 0.1875 -1.1133 0.5625 -1.4688 c 0.38281 -0.36328 0.90625 -0.54688 1.5625 -0.54688 c 0.60156 0 1.082 0.18359 1.4375 0.54688 c 0.36328 0.36719 0.54688 0.85156 0.54688 1.4531 z m -1.25 -0.40625 c 0 -0.23828 -0.070312 -0.42578 -0.20312 -0.5625 c -0.13672 -0.14453 -0.3125 -0.21875 -0.53125 -0.21875 c -0.24219 0 -0.4375 0.070313 -0.59375 0.20312 c -0.14844 0.13672 -0.23438 0.32812 -0.26562 0.57812 z" stroke-linecap="round"/>
</g>
		<g transform="matrix(1.3333 0 0 1.3333 -320.6928 313.9269)" id="25696">
<path style="stroke: none; stroke-width: 1; stroke-dasharray: none; stroke-linecap: butt; stroke-dashoffset: 0; stroke-linejoin: miter; stroke-miterlimit: 4; is-custom-font: none; font-file-url: none; fill: rgb(0,0,0); fill-rule: nonzero; opacity: 1;" transform=" translate(-2.9297, 2.5547)" d="m 0.64062 -5.1094 h 1.4688 l 1.8594 3.5 v -3.5 h 1.25 v 5.1094 h -1.4688 l -1.8594 -3.5 v 3.5 h -1.25 z" stroke-linecap="round"/>
</g>
		<g transform="matrix(1.3333 0 0 1.3333 -313.5783 314.7812)" id="915318">
<path style="stroke: none; stroke-width: 1; stroke-dasharray: none; stroke-linecap: butt; stroke-dashoffset: 0; stroke-linejoin: miter; stroke-miterlimit: 4; is-custom-font: none; font-file-url: none; fill: rgb(0,0,0); fill-rule: nonzero; opacity: 1;" transform=" translate(-2.4062, 1.9141)" d="m 2.4062 -3.0469 c -0.27344 0 -0.48047 0.10156 -0.625 0.29688 c -0.13672 0.1875 -0.20312 0.46875 -0.20312 0.84375 c 0 0.36719 0.066406 0.64844 0.20312 0.84375 c 0.14453 0.1875 0.35156 0.28125 0.625 0.28125 c 0.26953 0 0.47266 -0.09375 0.60938 -0.28125 c 0.14453 -0.19531 0.21875 -0.47656 0.21875 -0.84375 c 0 -0.375 -0.074219 -0.65625 -0.21875 -0.84375 c -0.13672 -0.19531 -0.33984 -0.29688 -0.60938 -0.29688 z m 0 -0.875 c 0.65625 0 1.1719 0.17969 1.5469 0.53125 c 0.375 0.35547 0.5625 0.85156 0.5625 1.4844 c 0 0.625 -0.1875 1.1172 -0.5625 1.4688 c -0.375 0.35547 -0.89062 0.53125 -1.5469 0.53125 s -1.1719 -0.17578 -1.5469 -0.53125 c -0.375 -0.35156 -0.5625 -0.84375 -0.5625 -1.4688 c 0 -0.63281 0.1875 -1.1289 0.5625 -1.4844 c 0.375 -0.35156 0.89062 -0.53125 1.5469 -0.53125 z" stroke-linecap="round"/>
</g>
		<g transform="matrix(1.3333 0 0 1.3333 -307.0834 314.8436)" id="240594">
<path style="stroke: none; stroke-width: 1; stroke-dasharray: none; stroke-linecap: butt; stroke-dashoffset: 0; stroke-linejoin: miter; stroke-miterlimit: 4; is-custom-font: none; font-file-url: none; fill: rgb(0,0,0); fill-rule: nonzero; opacity: 1;" transform=" translate(-2.4688, 1.8673)" d="m 0.54688 -1.4844 v -2.3438 h 1.2344 v 0.375 c 0 0.21094 -0.007812 0.47656 -0.015625 0.79688 v 0.625 c 0 0.30469 0.003906 0.52344 0.015625 0.65625 c 0.019531 0.13672 0.050781 0.23438 0.09375 0.29688 c 0.050781 0.085937 0.11328 0.14844 0.1875 0.1875 c 0.082031 0.042969 0.17969 0.0625 0.29688 0.0625 c 0.25 0 0.44531 -0.097656 0.59375 -0.29688 c 0.14453 -0.19531 0.21875 -0.46875 0.21875 -0.8125 v -1.8906 h 1.2188 v 3.8281 h -1.2188 v -0.54688 c -0.1875 0.21875 -0.38672 0.38281 -0.59375 0.48438 c -0.19922 0.10156 -0.42188 0.15625 -0.67188 0.15625 c -0.44922 0 -0.78906 -0.13281 -1.0156 -0.40625 c -0.23047 -0.26953 -0.34375 -0.66016 -0.34375 -1.1719 z" stroke-linecap="round"/>
</g>
		<g transform="matrix(1.3333 0 0 1.3333 -300.3752 314.7188)" id="193737">
<path style="stroke: none; stroke-width: 1; stroke-dasharray: none; stroke-linecap: butt; stroke-dashoffset: 0; stroke-linejoin: miter; stroke-miterlimit: 4; is-custom-font: none; font-file-url: none; fill: rgb(0,0,0); fill-rule: nonzero; opacity: 1;" transform=" translate(-2.5156, 1.9609)" d="m 4.4375 -2.3281 v 2.3281 h -1.2344 v -1.7812 c 0 -0.33203 -0.011719 -0.5625 -0.03125 -0.6875 c -0.011719 -0.125 -0.03125 -0.21875 -0.0625 -0.28125 c -0.054687 -0.070312 -0.12109 -0.12891 -0.20312 -0.17188 c -0.074219 -0.050781 -0.16797 -0.078125 -0.28125 -0.078125 c -0.25 0 -0.44922 0.10156 -0.59375 0.29688 c -0.14844 0.19922 -0.21875 0.46875 -0.21875 0.8125 v 1.8906 h -1.2188 v -3.8281 h 1.2188 v 0.5625 c 0.1875 -0.22656 0.37891 -0.39453 0.57812 -0.5 c 0.20703 -0.10156 0.44141 -0.15625 0.70312 -0.15625 c 0.4375 0 0.76953 0.13672 1 0.40625 c 0.22656 0.27344 0.34375 0.66797 0.34375 1.1875 z" stroke-linecap="round"/>
</g>
		<g transform="matrix(1.3333 0 0 1.3333 -290.1771 313.9269)" id="309998">
<path style="stroke: none; stroke-width: 1; stroke-dasharray: none; stroke-linecap: butt; stroke-dashoffset: 0; stroke-linejoin: miter; stroke-miterlimit: 4; is-custom-font: none; font-file-url: none; fill: rgb(0,0,0); fill-rule: nonzero; opacity: 1;" transform=" translate(-2.7422, 2.5547)" d="m 0.64062 -5.1094 h 2.1875 c 0.64453 0 1.1406 0.14844 1.4844 0.4375 c 0.35156 0.29297 0.53125 0.70312 0.53125 1.2344 s -0.17969 0.94531 -0.53125 1.2344 c -0.34375 0.29297 -0.83984 0.4375 -1.4844 0.4375 h -0.875 v 1.7656 h -1.3125 z m 1.3125 0.95312 v 1.4375 h 0.73438 c 0.25 0 0.44141 -0.0625 0.57812 -0.1875 c 0.14453 -0.125 0.21875 -0.30078 0.21875 -0.53125 c 0 -0.22656 -0.074219 -0.40625 -0.21875 -0.53125 c -0.13672 -0.125 -0.32812 -0.1875 -0.57812 -0.1875 z" stroke-linecap="round"/>
</g>
		<g transform="matrix(1.3333 0 0 1.3333 -284.3074 314.7188)" id="278273">
<path style="stroke: none; stroke-width: 1; stroke-dasharray: none; stroke-linecap: butt; stroke-dashoffset: 0; stroke-linejoin: miter; stroke-miterlimit: 4; is-custom-font: none; font-file-url: none; fill: rgb(0,0,0); fill-rule: nonzero; opacity: 1;" transform=" translate(-2.0156, 1.9609)" d="m 3.4375 -2.7812 c -0.11719 -0.050781 -0.22656 -0.085938 -0.32812 -0.10938 c -0.10547 -0.03125 -0.21094 -0.046875 -0.3125 -0.046875 c -0.3125 0 -0.55859 0.10547 -0.73438 0.3125 c -0.16797 0.19922 -0.25 0.48438 -0.25 0.85938 v 1.7656 h -1.2188 v -3.8281 h 1.2188 v 0.625 c 0.15625 -0.25 0.33203 -0.42969 0.53125 -0.54688 c 0.20703 -0.11328 0.45703 -0.17188 0.75 -0.17188 c 0.03125 0 0.070312 0.007813 0.125 0.015625 c 0.050781 0 0.11719 0.007812 0.20312 0.015625 z" stroke-linecap="round"/>
</g>
		<g transform="matrix(1.3333 0 0 1.3333 -279.1825 314.7812)" id="70057">
<path style="stroke: none; stroke-width: 1; stroke-dasharray: none; stroke-linecap: butt; stroke-dashoffset: 0; stroke-linejoin: miter; stroke-miterlimit: 4; is-custom-font: none; font-file-url: none; fill: rgb(0,0,0); fill-rule: nonzero; opacity: 1;" transform=" translate(-2.4062, 1.9141)" d="m 2.4062 -3.0469 c -0.27344 0 -0.48047 0.10156 -0.625 0.29688 c -0.13672 0.1875 -0.20312 0.46875 -0.20312 0.84375 c 0 0.36719 0.066406 0.64844 0.20312 0.84375 c 0.14453 0.1875 0.35156 0.28125 0.625 0.28125 c 0.26953 0 0.47266 -0.09375 0.60938 -0.28125 c 0.14453 -0.19531 0.21875 -0.47656 0.21875 -0.84375 c 0 -0.375 -0.074219 -0.65625 -0.21875 -0.84375 c -0.13672 -0.19531 -0.33984 -0.29688 -0.60938 -0.29688 z m 0 -0.875 c 0.65625 0 1.1719 0.17969 1.5469 0.53125 c 0.375 0.35547 0.5625 0.85156 0.5625 1.4844 c 0 0.625 -0.1875 1.1172 -0.5625 1.4688 c -0.375 0.35547 -0.89062 0.53125 -1.5469 0.53125 s -1.1719 -0.17578 -1.5469 -0.53125 c -0.375 -0.35156 -0.5625 -0.84375 -0.5625 -1.4688 c 0 -0.63281 0.1875 -1.1289 0.5625 -1.4844 c 0.375 -0.35156 0.89062 -0.53125 1.5469 -0.53125 z" stroke-linecap="round"/>
</g>
		<g transform="matrix(1.3333 0 0 1.3333 -274.9271 314.8019)" id="853768">
<path style="stroke: none; stroke-width: 1; stroke-dasharray: none; stroke-linecap: butt; stroke-dashoffset: 0; stroke-linejoin: miter; stroke-miterlimit: 4; is-custom-font: none; font-file-url: none; fill: rgb(0,0,0); fill-rule: nonzero; opacity: 1;" transform=" translate(-0.7891, 1.8984)" d="m 0.59375 -3.8281 h 1.2188 v 3.7656 c 0 0.50781 -0.125 0.89844 -0.375 1.1719 c -0.24219 0.26953 -0.59375 0.40625 -1.0625 0.40625 h -0.60938 v -0.8125 h 0.21875 c 0.22656 0 0.38281 -0.054687 0.46875 -0.15625 c 0.09375 -0.10547 0.14062 -0.30859 0.14062 -0.60938 z m 0 -1.4844 h 1.2188 v 0.98438 h -1.2188 z" stroke-linecap="round"/>
</g>
		<g transform="matrix(1.3333 0 0 1.3333 -269.646 314.7811)" id="851393">
<path style="stroke: none; stroke-width: 1; stroke-dasharray: none; stroke-linecap: butt; stroke-dashoffset: 0; stroke-linejoin: miter; stroke-miterlimit: 4; is-custom-font: none; font-file-url: none; fill: rgb(0,0,0); fill-rule: nonzero; opacity: 1;" transform=" translate(-2.3515, 1.9141)" d="m 4.4062 -1.9219 v 0.34375 h -2.8594 c 0.03125 0.29297 0.13281 0.51172 0.3125 0.65625 c 0.17578 0.13672 0.42578 0.20312 0.75 0.20312 c 0.25 0 0.50781 -0.035156 0.78125 -0.10938 c 0.26953 -0.070313 0.55078 -0.1875 0.84375 -0.34375 v 0.9375 c -0.29297 0.11719 -0.58594 0.19922 -0.875 0.25 c -0.29297 0.050781 -0.58594 0.078125 -0.875 0.078125 c -0.6875 0 -1.2266 -0.17188 -1.6094 -0.51562 c -0.38672 -0.35156 -0.57812 -0.84766 -0.57812 -1.4844 c 0 -0.625 0.1875 -1.1133 0.5625 -1.4688 c 0.38281 -0.36328 0.90625 -0.54688 1.5625 -0.54688 c 0.60156 0 1.082 0.18359 1.4375 0.54688 c 0.36328 0.36719 0.54688 0.85156 0.54688 1.4531 z m -1.25 -0.40625 c 0 -0.23828 -0.070312 -0.42578 -0.20312 -0.5625 c -0.13672 -0.14453 -0.3125 -0.21875 -0.53125 -0.21875 c -0.24219 0 -0.4375 0.070313 -0.59375 0.20312 c -0.14844 0.13672 -0.23438 0.32812 -0.26562 0.57812 z" stroke-linecap="round"/>
</g>
		<g transform="matrix(1.3333 0 0 1.3333 -263.7969 314.7811)" id="246414">
<path style="stroke: none; stroke-width: 1; stroke-dasharray: none; stroke-linecap: butt; stroke-dashoffset: 0; stroke-linejoin: miter; stroke-miterlimit: 4; is-custom-font: none; font-file-url: none; fill: rgb(0,0,0); fill-rule: nonzero; opacity: 1;" transform=" translate(-1.9922, 1.9141)" d="m 3.6875 -3.7031 v 1 c -0.16797 -0.11328 -0.33984 -0.19531 -0.51562 -0.25 c -0.16797 -0.0625 -0.33984 -0.09375 -0.51562 -0.09375 c -0.34375 0 -0.60938 0.10156 -0.79688 0.29688 c -0.1875 0.19922 -0.28125 0.48047 -0.28125 0.84375 c 0 0.35547 0.09375 0.63281 0.28125 0.82812 c 0.1875 0.19922 0.45312 0.29688 0.79688 0.29688 c 0.19531 0 0.37891 -0.023438 0.54688 -0.078125 c 0.17578 -0.0625 0.33594 -0.14453 0.48438 -0.25 v 1 c -0.19922 0.074219 -0.39844 0.125 -0.59375 0.15625 c -0.19922 0.03125 -0.39844 0.046875 -0.59375 0.046875 c -0.6875 0 -1.2305 -0.17578 -1.625 -0.53125 c -0.38672 -0.35156 -0.57812 -0.84375 -0.57812 -1.4688 c 0 -0.63281 0.19141 -1.1289 0.57812 -1.4844 c 0.39453 -0.35156 0.9375 -0.53125 1.625 -0.53125 c 0.20703 0 0.40625 0.023437 0.59375 0.0625 c 0.19531 0.03125 0.39453 0.085937 0.59375 0.15625 z" stroke-linecap="round"/>
</g>
		<g transform="matrix(1.3333 0 0 1.3333 -258.7292 314.052)" id="320954">
<path style="stroke: none; stroke-width: 1; stroke-dasharray: none; stroke-linecap: butt; stroke-dashoffset: 0; stroke-linejoin: miter; stroke-miterlimit: 4; is-custom-font: none; font-file-url: none; fill: rgb(0,0,0); fill-rule: nonzero; opacity: 1;" transform=" translate(-1.6406, 2.4609)" d="m 1.9219 -4.9219 v 1.0938 h 1.2656 v 0.875 h -1.2656 v 1.625 c 0 0.17969 0.035156 0.29688 0.10938 0.35938 c 0.070312 0.0625 0.21094 0.09375 0.42188 0.09375 h 0.625 v 0.875 h -1.0469 c -0.48047 0 -0.82422 -0.097656 -1.0312 -0.29688 c -0.19922 -0.20703 -0.29688 -0.55078 -0.29688 -1.0312 v -1.625 h -0.60938 v -0.875 h 0.60938 v -1.0938 z" stroke-linecap="round"/>
</g>
</g>
</g>
</svg>