<?xml version="1.0" encoding="UTF-8"?>
<svg width="700pt" height="700pt" version="1.1" viewBox="0 0 700 700" xmlns="http://www.w3.org/2000/svg" xmlns:xlink="http://www.w3.org/1999/xlink">
 <defs>
  <symbol id="h" overflow="visible">
   <path d="m39.078-2.3281c-2.0117 1.043-4.1094 1.8281-6.2969 2.3594s-4.4648 0.79688-6.8281 0.79688c-7.0859 0-12.699-1.9766-16.844-5.9375-4.1367-3.957-6.2031-9.3281-6.2031-16.109 0-6.7891 2.0664-12.164 6.2031-16.125 4.1445-3.9688 9.7578-5.9531 16.844-5.9531 2.3633 0 4.6406 0.26562 6.8281 0.79688s4.2852 1.3242 6.2969 2.375v8.7969c-2.0312-1.3828-4.0391-2.3984-6.0156-3.0469-1.9688-0.64453-4.0469-0.96875-6.2344-0.96875-3.9062 0-6.9844 1.2578-9.2344 3.7656-2.2422 2.5-3.3594 5.9531-3.3594 10.359 0 4.3867 1.1172 7.8359 3.3594 10.344 2.25 2.5 5.3281 3.75 9.2344 3.75 2.1875 0 4.2656-0.32031 6.2344-0.96875 1.9766-0.64453 3.9844-1.6602 6.0156-3.0469z"/>
  </symbol>
  <symbol id="g" overflow="visible">
   <path d="m16.031-40.953v9.0625h10.516v7.2812h-10.516v13.531c0 1.4805 0.28906 2.4805 0.875 3 0.59375 0.52344 1.7656 0.78125 3.5156 0.78125h5.2344v7.2969h-8.7344c-4.0312 0-6.8867-0.83594-8.5625-2.5156-1.6797-1.6875-2.5156-4.5391-2.5156-8.5625v-13.531h-5.0781v-7.2812h5.0781v-9.0625z"/>
  </symbol>
  <symbol id="f" overflow="visible">
   <path d="m26.594-27.234v-17.078h10.266v44.312h-10.266v-4.6094c-1.3984 1.875-2.9453 3.25-4.6406 4.125-1.6875 0.875-3.6406 1.3125-5.8594 1.3125-3.9297 0-7.1562-1.5625-9.6875-4.6875-2.5234-3.125-3.7812-7.1445-3.7812-12.062 0-4.9141 1.2578-8.9375 3.7812-12.062 2.5312-3.125 5.7578-4.6875 9.6875-4.6875 2.1953 0 4.1445 0.44531 5.8438 1.3281 1.707 0.88672 3.2578 2.2578 4.6562 4.1094zm-6.7188 20.656c2.1875 0 3.8516-0.79688 5-2.3906 1.1445-1.5938 1.7188-3.9102 1.7188-6.9531 0-3.0391-0.57422-5.3594-1.7188-6.9531-1.1484-1.5938-2.8125-2.3906-5-2.3906-2.168 0-3.8242 0.79688-4.9688 2.3906-1.1484 1.5938-1.7188 3.9141-1.7188 6.9531 0 3.043 0.57031 5.3594 1.7188 6.9531 1.1445 1.5938 2.8008 2.3906 4.9688 2.3906z"/>
  </symbol>
  <symbol id="e" overflow="visible">
   <path d="m21.875-6.5781c2.1758 0 3.8359-0.79688 4.9844-2.3906 1.1562-1.5938 1.7344-3.9102 1.7344-6.9531 0-3.0391-0.57812-5.3594-1.7344-6.9531-1.1484-1.5938-2.8086-2.3906-4.9844-2.3906-2.1875 0-3.8672 0.80469-5.0312 2.4062-1.168 1.6055-1.75 3.918-1.75 6.9375 0 3.0234 0.58203 5.3359 1.75 6.9375 1.1641 1.6055 2.8438 2.4062 5.0312 2.4062zm-6.7812-20.656c1.4062-1.8516 2.9609-3.2227 4.6719-4.1094 1.707-0.88281 3.6719-1.3281 5.8906-1.3281 3.9375 0 7.1641 1.5625 9.6875 4.6875 2.5195 3.125 3.7812 7.1484 3.7812 12.062 0 4.918-1.2617 8.9375-3.7812 12.062-2.5234 3.125-5.75 4.6875-9.6875 4.6875-2.2188 0-4.1836-0.44531-5.8906-1.3281-1.7109-0.88281-3.2656-2.2539-4.6719-4.1094v4.6094h-10.188v-44.312h10.188z"/>
  </symbol>
  <symbol id="d" overflow="visible">
   <path d="m5.3594-42.516h29.594v8.2812h-18.641v7.9219h17.516v8.2812h-17.516v18.031h-10.953z"/>
  </symbol>
  <symbol id="c" overflow="visible">
   <path d="m36.969-19.422v19.422h-10.25v-14.812c0-2.7891-0.0625-4.707-0.1875-5.75-0.125-1.0391-0.33984-1.8125-0.64062-2.3125-0.39844-0.65625-0.9375-1.1719-1.625-1.5469s-1.4648-0.5625-2.3281-0.5625c-2.1367 0-3.8125 0.82422-5.0312 2.4688-1.2109 1.6484-1.8125 3.9219-1.8125 6.8281v15.688h-10.188v-44.312h10.188v17.078c1.5391-1.8516 3.1719-3.2227 4.8906-4.1094 1.7266-0.88281 3.6406-1.3281 5.7344-1.3281 3.6875 0 6.4844 1.1328 8.3906 3.3906 1.9062 2.2617 2.8594 5.5469 2.8594 9.8594z"/>
  </symbol>
  <symbol id="b" overflow="visible">
   <path d="m4.9062-31.891h10.188v31.891h-10.188zm0-12.422h10.188v8.3125h-10.188z"/>
  </symbol>
  <symbol id="a" overflow="visible">
   <path d="m20.938-23.672c2.2891 0 3.9375-0.42578 4.9375-1.2812 1-0.85156 1.5-2.2578 1.5-4.2188 0-1.9258-0.5-3.3047-1.5-4.1406-1-0.84375-2.6484-1.2656-4.9375-1.2656h-4.625v10.906zm-4.625 7.5781v16.094h-10.953v-42.516h16.734c5.6016 0 9.707 0.94531 12.312 2.8281 2.6133 1.875 3.9219 4.8438 3.9219 8.9062 0 2.8047-0.67969 5.1094-2.0312 6.9219-1.3555 1.8047-3.4023 3.1328-6.1406 3.9844 1.5 0.34375 2.8438 1.1211 4.0312 2.3281 1.1875 1.1992 2.3906 3.0234 3.6094 5.4688l5.9531 12.078h-11.688l-5.1719-10.562c-1.0547-2.125-2.1172-3.5781-3.1875-4.3594-1.0742-0.78125-2.5-1.1719-4.2812-1.1719z"/>
  </symbol>
 </defs>
 <g>
  <path d="m514.39 275.01c3.6406-11.324 5.5625-23.129 5.7031-35.02-0.035156-30.754-12.266-60.238-34.012-81.984-21.75-21.746-51.234-33.977-81.988-34.012-32.941 0.042968-64.281 14.227-86.059 38.941h-0.63672c-25.992-0.023438-51.281 8.4297-72.039 24.074-20.754 15.645-35.844 37.629-42.977 62.625h-13.559c-28.312 0-54.48 15.105-68.637 39.629-14.16 24.52-14.16 54.734 0 79.254 14.156 24.523 40.324 39.629 68.637 39.629h77.867l-34.07 52.988v0.003907c-2.3086 3.5898-2.4727 8.1523-0.42578 11.898 2.043 3.75 5.9727 6.0781 10.242 6.0781h23.602l-39.125 58.691c-1.7461 2.5742-2.3945 5.7422-1.7969 8.793 0.59766 3.0547 2.3906 5.7422 4.9805 7.4648 2.5859 1.7266 5.7578 2.3477 8.8047 1.7266 3.0469-0.625 5.7227-2.4375 7.4258-5.0391l51.219-76.832c2.3867-3.5781 2.6094-8.1836 0.57812-11.977-2.0312-3.793-5.9844-6.1602-10.285-6.1602h-24.031l30.629-47.637h67.996l-21.16 32.914c-2.3086 3.5938-2.4727 8.1562-0.42578 11.902 2.043 3.7461 5.9727 6.0781 10.242 6.0781h10.691l-24.57 36.855c-1.7422 2.5742-2.3828 5.7383-1.7852 8.7891 0.60156 3.0469 2.3906 5.7305 4.9766 7.457 2.5859 1.7227 5.7539 2.3438 8.8008 1.7227 3.043-0.61719 5.7148-2.4258 7.4219-5.0234l36.664-54.996c2.3867-3.5781 2.6094-8.1836 0.57813-11.977-2.0273-3.793-5.9844-6.1602-10.285-6.1602h-11.125l17.723-27.559h66.078v-0.003907c20.676 0 40.531-8.0742 55.336-22.508 14.801-14.434 23.379-34.078 23.902-54.746 0.52344-20.664-7.0508-40.719-21.105-55.883zm-110.3-127.68c24.57 0.027343 48.125 9.8008 65.496 27.172s27.145 40.922 27.172 65.492c-0.039063 6.5312-0.78516 13.039-2.2266 19.414-3.1445-1.7227-6.4023-3.2266-9.7539-4.4961-0.67578-0.26172-1.3828-0.42969-2.0664-0.67188h0.003906c-3.3555-1.1797-6.7891-2.125-10.273-2.832-1.1211-0.23047-2.2383-0.45703-3.375-0.63672-4.2305-0.71875-8.5156-1.0977-12.812-1.1328h-18.695c-1.3594-4.7344-3.0156-9.375-4.957-13.902-0.34766-0.82422-0.67188-1.6523-1.0352-2.4648-1.8984-4.2461-4.0469-8.375-6.4375-12.363-0.46484-0.78125-0.96094-1.5352-1.4453-2.3047-2.5078-4.0391-5.2539-7.9258-8.2266-11.637l-0.26953-0.30859c-2.9688-3.5859-6.1406-7-9.5078-10.219-0.625-0.60156-1.2266-1.2188-1.8633-1.8086-3.3555-3.1016-6.8867-6.0078-10.574-8.7031-0.73438-0.53906-1.4844-1.043-2.2305-1.5664h-0.003906c-3.8594-2.7266-7.875-5.2227-12.027-7.4727-0.16797-0.089843-0.34375-0.16016-0.51172-0.24609-4.125-2.1523-8.3711-4.0586-12.719-5.7109-0.78125-0.30078-1.543-0.625-2.332-0.91016v0.003906c-4.3945-1.5859-8.8789-2.9062-13.43-3.9531-0.38672-0.089844-0.74609-0.24609-1.1328-0.33203v-0.003906c15.941-11.938 35.32-18.395 55.234-18.406zm52.164 237.49h-267.43c-19.977 0-38.441-10.66-48.43-27.961-9.9883-17.305-9.9883-38.621 0-55.926 9.9883-17.301 28.453-27.961 48.43-27.961h22.777c5.5859 0.003906 10.391-3.9609 11.449-9.4453 4.3438-21.812 16.125-41.438 33.332-55.527 17.207-14.09 38.773-21.77 61.016-21.723h5.8789c22.148 0 43.605 7.7109 60.688 21.809 17.082 14.094 28.723 33.699 32.93 55.441l0.003907 0.015625v0.054688h0.003906c1.3047 6.2539 1.9688 12.625 1.9766 19.016v23.512-0.003907c0 6.4453 5.2227 11.668 11.664 11.668 6.4453 0 11.668-5.2227 11.668-11.668v-23.512c0-3.2852-0.21484-6.4492-0.48828-9.6367h14.535c2.1094 0 4.2148 0.11328 6.3086 0.33984 11.41 1.2656 22.148 6.0156 30.754 13.609 11.406 10.098 18.203 24.41 18.82 39.633 0.62109 15.223-4.9883 30.039-15.531 41.031-10.547 10.996-25.117 17.219-40.352 17.234z"/>
  <path d="m406 97.828c3.0938 0 6.0625-1.2305 8.25-3.418s3.418-5.1562 3.418-8.25v-52.012 0.003906c0-6.4453-5.2266-11.668-11.668-11.668-6.4453 0-11.668 5.2227-11.668 11.668v52.012-0.003906c0 6.4453 5.2227 11.668 11.668 11.668z"/>
  <path d="m301.16 134.55c4.5547 4.5547 11.941 4.5547 16.5 0 4.5547-4.5547 4.5547-11.941 0-16.5l-36.773-36.773c-4.5547-4.5586-11.941-4.5586-16.496 0-4.5586 4.5547-4.5586 11.941 0 16.496z"/>
  <path d="m594.25 211.82h-52.012c-6.4414 0-11.664 5.2227-11.664 11.668 0 6.4414 5.2227 11.668 11.664 11.668h52.012c6.4414 0 11.668-5.2266 11.668-11.668 0-6.4453-5.2266-11.668-11.668-11.668z"/>
  <path d="m505.46 134.6c3.0977 0 6.0664-1.2305 8.25-3.4219l36.777-36.773v0.003906c2.207-2.1836 3.4531-5.1562 3.4648-8.2617 0.007813-3.1055-1.2227-6.0859-3.418-8.2812-2.1953-2.1992-5.1758-3.4258-8.2812-3.418-3.1055 0.007812-6.0781 1.2539-8.2617 3.4648l-36.777 36.77c-3.3359 3.3359-4.3359 8.3555-2.5273 12.715 1.8047 4.3555 6.0547 7.1992 10.773 7.1992z"/>
  <use x="70" y="735" xlink:href="#h"/>
  <use x="220.503906" y="735" xlink:href="#g"/>
  <use x="287.953125" y="735" xlink:href="#f"/>
  <use x="350.015625" y="735" xlink:href="#e"/>
  <use x="450.105469" y="735" xlink:href="#d"/>
  <use x="529.316406" y="735" xlink:href="#c"/>
  <use x="631.628906" y="735" xlink:href="#b"/>
  <use x="671.933594" y="735" xlink:href="#a"/>
 </g>
</svg>
