<?xml version="1.0" encoding="UTF-8"?>
<svg width="700pt" height="700pt" version="1.1" viewBox="0 0 700 700" xmlns="http://www.w3.org/2000/svg" xmlns:xlink="http://www.w3.org/1999/xlink">
 <defs>
  <symbol id="v" overflow="visible">
   <path d="m19.547-1.1719c-1.0117 0.52344-2.0625 0.91406-3.1562 1.1719-1.0938 0.26953-2.2344 0.40625-3.4219 0.40625-3.543 0-6.3516-0.98828-8.4219-2.9688-2.0625-1.9766-3.0938-4.6602-3.0938-8.0469 0-3.4062 1.0312-6.0977 3.0938-8.0781 2.0703-1.9766 4.8789-2.9688 8.4219-2.9688 1.1875 0 2.3281 0.13672 3.4219 0.40625 1.0938 0.26172 2.1445 0.65625 3.1562 1.1875v4.3906c-1.0234-0.6875-2.0273-1.1914-3.0156-1.5156-0.98047-0.32031-2.0156-0.48438-3.1094-0.48438-1.9609 0-3.5 0.625-4.625 1.875-1.1172 1.25-1.6719 2.9805-1.6719 5.1875 0 2.1875 0.55469 3.9141 1.6719 5.1719 1.125 1.25 2.6641 1.875 4.625 1.875 1.0938 0 2.1289-0.16016 3.1094-0.48438 0.98828-0.32031 1.9922-0.82812 3.0156-1.5156z"/>
  </symbol>
  <symbol id="c" overflow="visible">
   <path d="m14.297-11.609c-0.44922-0.20703-0.89062-0.35938-1.3281-0.45312-0.4375-0.10156-0.88281-0.15625-1.3281-0.15625-1.3125 0-2.3242 0.42188-3.0312 1.2656-0.71094 0.83594-1.0625 2.0391-1.0625 3.6094v7.3438h-5.0938v-15.953h5.0938v2.625c0.65625-1.0508 1.4062-1.8164 2.25-2.2969 0.85156-0.47656 1.875-0.71875 3.0625-0.71875 0.17578 0 0.36328 0.011719 0.5625 0.03125 0.19531 0.011719 0.48438 0.042969 0.85938 0.09375z"/>
  </symbol>
  <symbol id="b" overflow="visible">
   <path d="m18.375-8.0156v1.4531h-11.922c0.125 1.1992 0.55469 2.0938 1.2969 2.6875 0.73828 0.59375 1.7734 0.89062 3.1094 0.89062 1.0703 0 2.1719-0.15625 3.2969-0.46875 1.125-0.32031 2.2812-0.80469 3.4688-1.4531v3.9375c-1.2109 0.46094-2.418 0.80469-3.625 1.0312-1.2109 0.22656-2.4141 0.34375-3.6094 0.34375-2.8984 0-5.1484-0.72656-6.75-2.1875-1.5938-1.4688-2.3906-3.5312-2.3906-6.1875 0-2.5938 0.78516-4.6328 2.3594-6.125 1.5703-1.5 3.7344-2.25 6.4844-2.25 2.5078 0 4.5156 0.75781 6.0156 2.2656 1.5078 1.5117 2.2656 3.5312 2.2656 6.0625zm-5.2344-1.7031c0-0.96875-0.28906-1.75-0.85938-2.3438-0.5625-0.59375-1.2969-0.89062-2.2031-0.89062-0.99219 0-1.7969 0.28125-2.4219 0.84375-0.61719 0.55469-0.99609 1.3516-1.1406 2.3906z"/>
  </symbol>
  <symbol id="a" overflow="visible">
   <path d="m9.5938-7.1719c-1.0625 0-1.8672 0.18359-2.4062 0.54688-0.53125 0.35547-0.79688 0.88281-0.79688 1.5781 0 0.64844 0.21094 1.1523 0.64062 1.5156 0.4375 0.36719 1.0391 0.54688 1.8125 0.54688 0.95703 0 1.7656-0.34375 2.4219-1.0312s0.98438-1.5469 0.98438-2.5781v-0.57812zm7.7969-1.9375v9.1094h-5.1406v-2.3594c-0.6875 0.96875-1.4609 1.6719-2.3125 2.1094-0.85547 0.4375-1.8906 0.65625-3.1094 0.65625-1.6562 0-3-0.47656-4.0312-1.4375-1.0312-0.96875-1.5469-2.2188-1.5469-3.75 0-1.875 0.64062-3.25 1.9219-4.125 1.2891-0.875 3.3164-1.3125 6.0781-1.3125h3v-0.39062c0-0.8125-0.32031-1.4062-0.95312-1.7812-0.63672-0.375-1.6328-0.5625-2.9844-0.5625-1.0859 0-2.1016 0.10938-3.0469 0.32812-0.9375 0.21875-1.8086 0.54688-2.6094 0.98438v-3.8906c1.082-0.25781 2.1758-0.45703 3.2812-0.59375 1.1016-0.14453 2.207-0.21875 3.3125-0.21875 2.875 0 4.9453 0.57031 6.2188 1.7031 1.2812 1.1367 1.9219 2.9805 1.9219 5.5312z"/>
  </symbol>
  <symbol id="d" overflow="visible">
   <path d="m8.0156-20.484v4.5312h5.2656v3.6406h-5.2656v6.7656c0 0.74219 0.14453 1.2461 0.4375 1.5156 0.30078 0.26172 0.89062 0.39062 1.7656 0.39062h2.6094v3.6406h-4.3594c-2.0234 0-3.4531-0.41406-4.2969-1.25-0.83594-0.84375-1.25-2.2734-1.25-4.2969v-6.7656h-2.5312v-3.6406h2.5312v-4.5312z"/>
  </symbol>
  <symbol id="g" overflow="visible">
   <path d="m13.297-13.625v-8.5312h5.1406v22.156h-5.1406v-2.3125c-0.69922 0.94922-1.4688 1.6406-2.3125 2.0781-0.84375 0.42578-1.8242 0.64062-2.9375 0.64062-1.9688 0-3.5859-0.77344-4.8438-2.3281-1.2617-1.5625-1.8906-3.5781-1.8906-6.0469 0-2.457 0.62891-4.4688 1.8906-6.0312 1.2578-1.5625 2.875-2.3438 4.8438-2.3438 1.1016 0 2.0781 0.22656 2.9219 0.67188 0.85156 0.4375 1.6289 1.1211 2.3281 2.0469zm-3.3594 10.328c1.0938 0 1.9258-0.39453 2.5-1.1875 0.57031-0.80078 0.85938-1.9609 0.85938-3.4844 0-1.5078-0.28906-2.6641-0.85938-3.4688-0.57422-0.80078-1.4062-1.2031-2.5-1.2031-1.0859 0-1.9141 0.40234-2.4844 1.2031-0.57422 0.80469-0.85938 1.9609-0.85938 3.4688 0 1.5234 0.28516 2.6836 0.85938 3.4844 0.57031 0.79297 1.3984 1.1875 2.4844 1.1875z"/>
  </symbol>
  <symbol id="l" overflow="visible">
   <path d="m10.938-3.2969c1.0938 0 1.9258-0.39453 2.5-1.1875 0.57031-0.80078 0.85938-1.9609 0.85938-3.4844 0-1.5078-0.28906-2.6641-0.85938-3.4688-0.57422-0.80078-1.4062-1.2031-2.5-1.2031s-1.9336 0.40234-2.5156 1.2031c-0.58594 0.80469-0.875 1.9609-0.875 3.4688 0 1.5117 0.28906 2.668 0.875 3.4688 0.58203 0.80469 1.4219 1.2031 2.5156 1.2031zm-3.3906-10.328c0.70703-0.92578 1.4883-1.6094 2.3438-2.0469 0.85156-0.44531 1.832-0.67188 2.9375-0.67188 1.9688 0 3.582 0.78125 4.8438 2.3438 1.2695 1.5625 1.9062 3.5742 1.9062 6.0312 0 2.4688-0.63672 4.4844-1.9062 6.0469-1.2617 1.5547-2.875 2.3281-4.8438 2.3281-1.1055 0-2.0859-0.21875-2.9375-0.65625-0.85547-0.4375-1.6367-1.125-2.3438-2.0625v2.3125h-5.0938v-22.156h5.0938z"/>
  </symbol>
  <symbol id="k" overflow="visible">
   <path d="m0.35938-15.953h5.0938l4.2969 10.828 3.6406-10.828h5.0938l-6.7031 17.469c-0.67969 1.7695-1.4648 3.0078-2.3594 3.7188-0.89844 0.70703-2.0781 1.0625-3.5469 1.0625h-2.9531v-3.3438h1.5938c0.86328 0 1.4922-0.14062 1.8906-0.42188 0.39453-0.27344 0.70312-0.76562 0.92188-1.4844l0.14062-0.4375z"/>
  </symbol>
  <symbol id="j" overflow="visible">
   <path d="m2.6719-21.266h6.9844l4.8438 11.375 4.875-11.375h6.9688v21.266h-5.1875v-15.547l-4.9062 11.453h-3.4688l-4.9062-11.453v15.547h-5.2031z"/>
  </symbol>
  <symbol id="i" overflow="visible">
   <path d="m2.2812-6.2031v-9.75h5.125v1.5938c0 0.86719-0.007812 1.9531-0.015625 3.2656-0.011719 1.3047-0.015625 2.1719-0.015625 2.6094 0 1.2812 0.03125 2.2031 0.09375 2.7656 0.070312 0.5625 0.1875 0.97656 0.34375 1.2344 0.21875 0.33594 0.49219 0.58984 0.82812 0.76562 0.33203 0.17969 0.71875 0.26562 1.1562 0.26562 1.0625 0 1.8945-0.40625 2.5-1.2188 0.61328-0.8125 0.92188-1.9453 0.92188-3.4062v-7.875h5.0938v15.953h-5.0938v-2.3125c-0.77344 0.9375-1.5898 1.625-2.4531 2.0625-0.85547 0.4375-1.7969 0.65625-2.8281 0.65625-1.8438 0-3.25-0.5625-4.2188-1.6875-0.96094-1.1328-1.4375-2.7734-1.4375-4.9219z"/>
  </symbol>
  <symbol id="f" overflow="visible">
   <path d="m17.234-13.297c0.64453-0.98828 1.4102-1.7422 2.2969-2.2656 0.89453-0.51953 1.875-0.78125 2.9375-0.78125 1.832 0 3.2266 0.57031 4.1875 1.7031 0.95703 1.125 1.4375 2.7656 1.4375 4.9219v9.7188h-5.125v-8.3125-0.39062c0.007812-0.13281 0.015625-0.32031 0.015625-0.5625 0-1.1328-0.16797-1.9531-0.5-2.4531-0.32422-0.50781-0.85938-0.76562-1.6094-0.76562-0.96875 0-1.7188 0.40234-2.25 1.2031-0.52344 0.79297-0.79297 1.9453-0.8125 3.4531v7.8281h-5.125v-8.3125c0-1.7695-0.15234-2.9062-0.45312-3.4062-0.30469-0.50781-0.84375-0.76562-1.625-0.76562-0.98047 0-1.7344 0.40234-2.2656 1.2031-0.53125 0.80469-0.79688 1.9492-0.79688 3.4375v7.8438h-5.125v-15.953h5.125v2.3281c0.625-0.89453 1.3438-1.5703 2.1562-2.0312 0.8125-0.45703 1.707-0.6875 2.6875-0.6875 1.1016 0 2.0781 0.26562 2.9219 0.79688s1.4844 1.2812 1.9219 2.25z"/>
  </symbol>
  <symbol id="u" overflow="visible">
   <path d="m2.6719-21.266h5.4844v7.7656l7.9062-7.7656h6.375l-10.25 10.062 11.297 11.203h-6.8594l-8.4688-8.375v8.375h-5.4844z"/>
  </symbol>
  <symbol id="h" overflow="visible">
   <path d="m18.484-9.7188v9.7188h-5.125v-7.4062c0-1.3945-0.03125-2.3516-0.09375-2.875-0.0625-0.51953-0.16797-0.90625-0.3125-1.1562-0.19922-0.33203-0.46875-0.58594-0.8125-0.76562-0.34375-0.1875-0.73438-0.28125-1.1719-0.28125-1.0625 0-1.9023 0.41406-2.5156 1.2344-0.60547 0.8125-0.90625 1.9492-0.90625 3.4062v7.8438h-5.0938v-22.156h5.0938v8.5312c0.76953-0.92578 1.5859-1.6094 2.4531-2.0469 0.86328-0.44531 1.8164-0.67188 2.8594-0.67188 1.8438 0 3.2383 0.57031 4.1875 1.7031 0.95703 1.125 1.4375 2.7656 1.4375 4.9219z"/>
  </symbol>
  <symbol id="t" overflow="visible">
   <path d="m2.4531-22.156h5.0938v22.156h-5.0938z"/>
  </symbol>
  <symbol id="s" overflow="visible">
   <path d="m2.4531-15.953h5.0938v15.953h-5.0938zm0-6.2031h5.0938v4.1562h-5.0938z"/>
  </symbol>
  <symbol id="r" overflow="visible">
   <path d="m12.953-22.156v3.3438h-2.8281c-0.71875 0-1.2266 0.13281-1.5156 0.39062-0.28125 0.26172-0.42188 0.71484-0.42188 1.3594v1.1094h4.3594v3.6406h-4.3594v12.312h-5.0938v-12.312h-2.5312v-3.6406h2.5312v-1.1094c0-1.7383 0.48438-3.0195 1.4531-3.8438 0.96875-0.83203 2.4688-1.25 4.5-1.25z"/>
  </symbol>
  <symbol id="e" overflow="visible">
   <path d="m10.047-12.688c-1.1367 0-2 0.40625-2.5938 1.2188s-0.89062 1.9805-0.89062 3.5c0 1.5312 0.29688 2.7031 0.89062 3.5156s1.457 1.2188 2.5938 1.2188c1.1016 0 1.9453-0.40625 2.5312-1.2188 0.59375-0.8125 0.89062-1.9844 0.89062-3.5156 0-1.5195-0.29688-2.6875-0.89062-3.5-0.58594-0.8125-1.4297-1.2188-2.5312-1.2188zm0-3.6562c2.7383 0 4.8789 0.74609 6.4219 2.2344 1.5391 1.4805 2.3125 3.5273 2.3125 6.1406 0 2.625-0.77344 4.6797-2.3125 6.1562-1.543 1.4805-3.6836 2.2188-6.4219 2.2188-2.7617 0-4.918-0.73828-6.4688-2.2188-1.5547-1.4766-2.3281-3.5312-2.3281-6.1562 0-2.6133 0.77344-4.6602 2.3281-6.1406 1.5508-1.4883 3.707-2.2344 6.4688-2.2344z"/>
  </symbol>
  <symbol id="q" overflow="visible">
   <path d="m2.6719-21.266h6.125l7.7344 14.578v-14.578h5.2031v21.266h-6.125l-7.7344-14.594v14.594h-5.2031z"/>
  </symbol>
  <symbol id="p" overflow="visible">
   <path d="m18.484-9.7188v9.7188h-5.125v-7.4375c0-1.375-0.03125-2.3203-0.09375-2.8438-0.0625-0.51953-0.16797-0.90625-0.3125-1.1562-0.19922-0.33203-0.46875-0.58594-0.8125-0.76562-0.34375-0.1875-0.73438-0.28125-1.1719-0.28125-1.0625 0-1.9023 0.41406-2.5156 1.2344-0.60547 0.8125-0.90625 1.9492-0.90625 3.4062v7.8438h-5.0938v-15.953h5.0938v2.3281c0.76953-0.92578 1.5859-1.6094 2.4531-2.0469 0.86328-0.44531 1.8164-0.67188 2.8594-0.67188 1.8438 0 3.2383 0.57031 4.1875 1.7031 0.95703 1.125 1.4375 2.7656 1.4375 4.9219z"/>
  </symbol>
  <symbol id="o" overflow="visible">
   <path d="m2.6719-21.266h9.1094c2.707 0 4.7852 0.60547 6.2344 1.8125 1.4453 1.1992 2.1719 2.9062 2.1719 5.125 0 2.2305-0.72656 3.9492-2.1719 5.1562-1.4492 1.1992-3.5273 1.7969-6.2344 1.7969h-3.625v7.375h-5.4844zm5.4844 3.9688v5.9375h3.0469c1.0625 0 1.8789-0.25391 2.4531-0.76562 0.58203-0.51953 0.875-1.2539 0.875-2.2031 0-0.94531-0.29297-1.6758-0.875-2.1875-0.57422-0.51953-1.3906-0.78125-2.4531-0.78125z"/>
  </symbol>
  <symbol id="n" overflow="visible">
   <path d="m2.4531-15.953h5.0938v15.672c0 2.1328-0.51562 3.7656-1.5469 4.8906-1.0234 1.125-2.5078 1.6875-4.4531 1.6875h-2.5156v-3.3438h0.89062c0.96875 0 1.6289-0.21875 1.9844-0.65625 0.36328-0.4375 0.54688-1.2969 0.54688-2.5781zm0-6.2031h5.0938v4.1562h-5.0938z"/>
  </symbol>
  <symbol id="m" overflow="visible">
   <path d="m15.344-15.453v4.1562c-0.69922-0.46875-1.3984-0.81641-2.0938-1.0469-0.69922-0.22656-1.4219-0.34375-2.1719-0.34375-1.4297 0-2.5391 0.41797-3.3281 1.25-0.79297 0.82422-1.1875 1.9805-1.1875 3.4688 0 1.5 0.39453 2.668 1.1875 3.5 0.78906 0.82422 1.8984 1.2344 3.3281 1.2344 0.80078 0 1.5547-0.11719 2.2656-0.35938 0.71875-0.23828 1.3828-0.58594 2-1.0469v4.1719c-0.80469 0.29297-1.6172 0.50781-2.4375 0.65625-0.8125 0.14453-1.6367 0.21875-2.4688 0.21875-2.875 0-5.125-0.73438-6.75-2.2031-1.625-1.4766-2.4375-3.5352-2.4375-6.1719 0-2.625 0.8125-4.6758 2.4375-6.1562 1.625-1.4766 3.875-2.2188 6.75-2.2188 0.83203 0 1.6562 0.078125 2.4688 0.23438 0.8125 0.14844 1.625 0.36719 2.4375 0.65625z"/>
  </symbol>
 </defs>
 <g>
  <path d="m480.61 324.27c-2.875-2.918-7.0078-4.2266-11.035-3.4883-4.0312 0.73438-7.4336 3.418-9.0898 7.1641-0.89453-7.9219-3.0195-15.656-6.3008-22.926 10.805-13.141 16.668-29.652 16.566-46.664-0.054688-20.703-8.8359-40.422-24.188-54.309-15.348-13.891-35.844-20.66-56.449-18.652-20.602 2.0117-39.402 12.617-51.781 29.211-19.973-9.2852-42.965-9.5938-63.18-0.84375-20.215 8.7461-35.73 25.719-42.637 46.633-24.785 4.1953-45.973 20.195-56.789 42.887-10.82 22.688-9.9062 49.227 2.4414 71.121 12.348 21.895 34.586 36.402 59.598 38.887 3.7539 1.0352 7.7812 0.26172 10.879-2.0938 3.1016-2.3594 4.9258-6.0273 4.9297-9.9258-0.015625-6.5625-5.1133-11.992-11.664-12.422-17.191-2.1641-32.207-12.668-40.133-28.074-7.9258-15.402-7.7383-33.727 0.49219-48.969 8.2344-15.242 23.461-25.441 40.688-27.258 5.7344-0.26562 10.547-4.4062 11.668-10.035 3.5234-15.785 14.129-29.066 28.742-36 14.617-6.9297 31.609-6.7383 46.066 0.52344 14.453 7.2617 24.754 20.781 27.918 36.645 0.60156 3.3438 2.5391 6.2969 5.3672 8.1797 2.832 1.8828 6.3047 2.5312 9.6211 1.7969 14.504-3.8945 29.977-1.3906 42.512 6.875 12.535 8.2656 20.934 21.504 23.066 36.367 2.1328 14.863-2.1992 29.926-11.902 41.387-9.7031 11.461-23.848 18.215-38.855 18.562-6.5547 0.42969-11.652 5.8594-11.668 12.422 0.003906 3.8984 1.8281 7.5664 4.9297 9.9258 3.1016 2.3555 7.125 3.1289 10.879 2.0938 18.609-1.8789 35.906-10.438 48.691-24.09 12.785-13.656 20.188-31.477 20.84-50.168 0.55469 1.0664 1.2617 2.0508 2.1016 2.9141l11.668 11.668c2.1836 2.8555 5.4961 4.6328 9.0859 4.8711 3.5898 0.23438 7.1094-1.0859 9.6523-3.6289 2.5469-2.5469 3.8672-6.0625 3.6289-9.6523-0.23828-3.5898-2.0117-6.9023-4.8672-9.0898zm-41.359-41.297c-14.516-15.125-34.57-23.68-55.535-23.684h-4.7852 0.003906c-4.0312-11.668-10.816-22.191-19.773-30.684 10.219-12.918 26.297-19.762 42.691-18.172 16.395 1.5898 30.859 11.395 38.406 26.035 7.5469 14.637 7.1484 32.109-1.0664 46.387z"/>
  <path d="m323.52 345.16c-15.387 14.785-25.805 33.984-29.809 54.949-5.25 33.016 21.465 35.758 29.809 35.758 8.3398 0 35-2.6836 29.809-35.758-4.0039-20.965-14.418-40.164-29.809-54.949z"/>
  <path d="m270.96 308.23c-10.207 9.8125-17.117 22.551-19.773 36.457-3.5 21.934 14.234 23.742 19.773 23.742 5.543 0 23.332-1.8086 19.773-23.742h0.003906c-2.6602-13.906-9.5664-26.645-19.777-36.457z"/>
  <path d="m340.79 306.19c-1.9766-10.344-7.1133-19.824-14.703-27.125-7.5898 7.3008-12.727 16.781-14.699 27.125-1.2695 4.4062-0.26172 9.1562 2.6875 12.668 2.9492 3.5117 7.4531 5.3242 12.012 4.832 4.5625 0.49219 9.0664-1.3203 12.016-4.832 2.9492-3.5117 3.957-8.2617 2.6875-12.668z"/>
  <path d="m397.25 176.17c6.8945 0 12.484-5.5898 12.484-12.484v-27.066c0-6.8945-5.5898-12.484-12.484-12.484s-12.484 5.5898-12.484 12.484v27.125c0.03125 6.8711 5.6133 12.426 12.484 12.426z"/>
  <path d="m321.36 200.32c4.9688 3.8047 11.988 3.3398 16.414-1.0859 4.4219-4.4258 4.8867-11.445 1.0859-16.414l-19.02-19.484c-2.1836-2.8555-5.4961-4.6289-9.0859-4.8672-3.5898-0.23828-7.1094 1.082-9.6523 3.6289-2.543 2.543-3.8672 6.0625-3.6289 9.6523 0.23828 3.5898 2.0117 6.9023 4.8672 9.0859z"/>
  <path d="m519.17 246.17h-27.008c-6.8945 0-12.484 5.5859-12.484 12.48 0 6.8945 5.5898 12.484 12.484 12.484h27.008c6.8945 0 12.48-5.5898 12.48-12.484 0-6.8945-5.5859-12.48-12.48-12.48z"/>
  <path d="m464.39 204.17c3.3086-0.003907 6.4805-1.3281 8.8086-3.6758l19.191-19.191c3.8047-4.9727 3.3398-11.988-1.0859-16.414-4.4258-4.4258-11.441-4.8906-16.414-1.0859l-19.309 18.898c-3.6797 3.5508-4.8242 8.9922-2.8789 13.723 1.9414 4.7344 6.5742 7.8008 11.688 7.7461z"/>
  <use x="70" y="647.5" xlink:href="#v"/>
  <use x="91.40625" y="647.5" xlink:href="#c"/>
  <use x="105.789062" y="647.5" xlink:href="#b"/>
  <use x="125.570312" y="647.5" xlink:href="#a"/>
  <use x="145.253906" y="647.5" xlink:href="#d"/>
  <use x="159.195312" y="647.5" xlink:href="#b"/>
  <use x="178.976562" y="647.5" xlink:href="#g"/>
  <use x="210.007812" y="647.5" xlink:href="#l"/>
  <use x="230.886719" y="647.5" xlink:href="#k"/>
  <use x="260.054688" y="647.5" xlink:href="#j"/>
  <use x="289.078125" y="647.5" xlink:href="#i"/>
  <use x="309.839844" y="647.5" xlink:href="#a"/>
  <use x="329.523438" y="647.5" xlink:href="#f"/>
  <use x="359.914062" y="647.5" xlink:href="#f"/>
  <use x="390.304687" y="647.5" xlink:href="#a"/>
  <use x="409.988281" y="647.5" xlink:href="#c"/>
  <use x="434.527344" y="647.5" xlink:href="#u"/>
  <use x="457.128906" y="647.5" xlink:href="#h"/>
  <use x="477.890625" y="647.5" xlink:href="#a"/>
  <use x="497.574219" y="647.5" xlink:href="#t"/>
  <use x="507.570312" y="647.5" xlink:href="#s"/>
  <use x="517.570312" y="647.5" xlink:href="#g"/>
  <use x="70" y="676.667969" xlink:href="#r"/>
  <use x="82.6875" y="676.667969" xlink:href="#c"/>
  <use x="97.074219" y="676.667969" xlink:href="#e"/>
  <use x="117.109375" y="676.667969" xlink:href="#f"/>
  <use x="157.65625" y="676.667969" xlink:href="#d"/>
  <use x="171.597656" y="676.667969" xlink:href="#h"/>
  <use x="192.363281" y="676.667969" xlink:href="#b"/>
  <use x="222.300781" y="676.667969" xlink:href="#q"/>
  <use x="246.710938" y="676.667969" xlink:href="#e"/>
  <use x="266.746094" y="676.667969" xlink:href="#i"/>
  <use x="287.511719" y="676.667969" xlink:href="#p"/>
  <use x="318.429688" y="676.667969" xlink:href="#o"/>
  <use x="339.804688" y="676.667969" xlink:href="#c"/>
  <use x="354.191406" y="676.667969" xlink:href="#e"/>
  <use x="374.226562" y="676.667969" xlink:href="#n"/>
  <use x="384.226562" y="676.667969" xlink:href="#b"/>
  <use x="404.007812" y="676.667969" xlink:href="#m"/>
  <use x="421.296875" y="676.667969" xlink:href="#d"/>
 </g>
</svg>
