<?xml version="1.0" encoding="UTF-8"?>
<svg width="700pt" height="700pt" version="1.1" viewBox="0 0 700 700" xmlns="http://www.w3.org/2000/svg">
 <path d="m350.11 17.5c0.80469 0 1.6445 0.015625 3.2891 0.015625 12.234 0.24609 24.43 1.1562 36.539 3.0117 24.52 3.7461 48.492 11.023 70.965 21.523 25.793 12.043 49.578 28.316 70.176 47.969 22.102 21.07 40.512 45.992 54.109 73.344 11.023 22.152 18.863 45.848 23.223 70.211 4.8828 27.387 5.4062 55.543 1.5391 83.105-3.7266 26.707-11.637 52.797-23.363 77.105-13.719 28.473-32.637 54.391-55.508 76.195-23.68 22.594-51.574 40.703-81.883 53.094-31.258 12.793-64.926 19.355-98.684 19.426h-0.50781-0.50781c-33.758-0.070312-67.426-6.6328-98.684-19.426-30.309-12.391-58.188-30.5-81.883-53.094-22.871-21.805-41.789-47.723-55.508-76.195-11.727-24.309-19.637-50.398-23.363-77.105-4.0234-28.629-3.3086-57.941 2.1523-86.328 4.6562-24.273 12.777-47.844 24.047-69.824 12.965-25.305 30.062-48.457 50.398-68.32 21.121-20.633 45.711-37.66 72.449-50.156 22.473-10.5 46.445-17.777 70.965-21.523 12.109-1.8555 24.305-2.7656 36.539-3.0117 1.6445 0 2.4844-0.015625 3.3086-0.015625zm-17.605 486.55v-119.05h-75.199c2.418 9.6602 5.2344 19.234 8.5078 28.648 2.5547 7.3672 5.3906 14.629 8.5391 21.77 2.6406 5.9336 5.5117 11.777 8.6445 17.465 2.2578 4.1133 4.6562 8.1562 7.2109 12.074 2.0625 3.1523 4.2188 6.2305 6.4922 9.2227 1.7852 2.3438 3.6211 4.6367 5.5664 6.8594 1.4492 1.6797 2.957 3.3242 4.5117 4.918 7.3008 7.4727 15.945 14.211 25.727 18.094zm110.2-119.05h-75.199v119.05c9.7656-3.8828 18.426-10.621 25.727-18.094 1.5547-1.5938 3.0625-3.2383 4.5117-4.918 1.9453-2.2227 3.7812-4.5156 5.5664-6.8594 2.2734-2.9922 4.4297-6.0703 6.4766-9.2227 2.957-4.5156 5.6875-9.1523 8.2227-13.91 3.1172-5.7773 5.9492-11.691 8.5586-17.711 3.1133-7.2109 5.9141-14.562 8.418-22 2.9414-8.6602 5.4961-17.465 7.7188-26.336zm109.14 0h-73.168c-3.6719 16.188-8.3281 32.148-14.137 47.688-3.0273 8.0859-6.3711 16.047-10.082 23.852-2.8359 5.9141-5.8633 11.742-9.1523 17.43-2.3633 4.0977-4.8477 8.1211-7.4883 12.059-1.207 1.8203-2.4688 3.6211-3.7461 5.4062 0.62891-0.24219 1.2578-0.48828 1.8711-0.75 26.27-10.746 50.453-26.461 70.98-46.027 18.094-17.27 33.34-37.484 44.922-59.656zm-330.52 0h-73.168c11.582 22.172 26.828 42.387 44.922 59.656 20.527 19.566 44.711 35.281 70.98 46.027 0.61328 0.26172 1.2422 0.50781 1.8711 0.75-1.2773-1.7852-2.5391-3.5859-3.7461-5.4062-2.6406-3.9375-5.125-7.9609-7.4883-12.059-3.2891-5.6875-6.3164-11.516-9.1523-17.43-3.7109-7.8047-7.0547-15.766-10.082-23.852-5.8086-15.539-10.465-31.5-14.137-47.688zm-87.676-175.51c-2.9219 8.9961-5.2852 18.164-7.0703 27.457-4.7266 24.625-5.3555 50.035-1.875 74.867 1.8398 13.125 4.8477 26.09 8.9609 38.691 0.24609-0.070312 0.49219-0.12109 0.73438-0.17578 1.5078-0.29688 1.8906-0.26172 3.4141-0.33203 25.672 0 51.328-0.22656 77-0.55859-4.6367-32.586-5.8633-65.695-3.9883-98.562 0.78516-13.668 2.1172-27.316 4.0586-40.879h-77.07c-1.5234-0.070312-1.9062-0.035156-3.4141-0.33203-0.24219-0.054688-0.48828-0.10547-0.75-0.17578zm432.7 0c-0.26172 0.070312-0.50781 0.12109-0.75 0.17578-1.5078 0.29688-1.8906 0.26172-3.4141 0.33203h-77.07c1.7852 12.512 3.0625 25.094 3.8672 37.695 2.1172 33.266 1.0156 66.797-3.5352 99.82 26.164 0.47266 52.309 1.2773 78.453 2.5703 1.1367 0.16016 1.6289 0.21094 2.4492 0.40234 4.0977-12.582 7.1055-25.547 8.9453-38.672 3.4805-24.832 2.8516-50.242-1.875-74.867-1.7852-9.293-4.1484-18.461-7.0703-27.457zm-233.85 138.18v-137.67h-82.215c-2.5195 16.172-4.0938 32.496-4.8125 48.844-1.3125 29.539 0.050782 59.254 4.4102 88.516 0.070313 0.52344 0.15625 1.0664 0.24609 1.5898 27.457-0.41797 54.914-0.91016 82.371-1.2773zm117.21-137.67h-82.215v137.25c27.562-0.28125 55.109-0.38672 82.672-0.17578 0.12109-0.83984 0.22656-1.6641 0.34766-2.5039 4.0273-28.367 5.2852-57.121 4.0078-85.73-0.71875-16.348-2.293-32.672-4.8125-48.844zm-183.79-141.43c-4.0586 1.6094-8.0664 3.3398-12.023 5.1953-23.188 10.832-44.484 25.602-62.789 43.488-17.238 16.836-31.797 36.383-42.945 57.734 24.43-0.054687 48.879-0.30078 73.309-0.63281 0.14062-0.59375 0.28125-1.207 0.41797-1.8203 4.7773-20.422 11.098-40.527 19.426-59.777 2.6797-6.1797 5.5469-12.25 8.6797-18.203 2.6094-4.9844 5.3906-9.8867 8.3672-14.664 2.3945-3.8477 4.8984-7.6289 7.5586-11.32zm168.14 0c2.6602 3.6914 5.1641 7.4727 7.5586 11.32 2.9766 4.7773 5.7578 9.6797 8.3672 14.664 3.1328 5.9531 6 12.023 8.6797 18.203 8.3125 19.195 14.613 39.27 19.391 59.637 24.516 0.38672 49.016 1.0508 73.516 2.1211-11.531-21.98-26.688-42.035-44.66-59.168-17.867-17.027-38.48-31.133-60.828-41.582-3.957-1.8555-7.9648-3.5859-12.023-5.1953zm-101.57-12.617c-10.816 4.2695-20.195 12.004-28 20.492-1.9414 2.1172-3.7969 4.3047-5.6016 6.543-1.9062 2.3789-3.7266 4.8125-5.4766 7.2969-2.2227 3.1875-4.3398 6.4414-6.3516 9.7656-2.8711 4.7422-5.5469 9.6094-8.0156 14.578-3.0078 6.0039-5.7578 12.145-8.2578 18.391-5.3555 13.266-9.6797 26.934-13.195 40.812 24.973-0.38672 49.945-0.82422 74.898-1.1562zm35 0v116.3c24.816-0.24609 49.629-0.36719 74.426-0.23047-3.4297-13.262-7.6094-26.32-12.723-39.008-2.5-6.2461-5.25-12.387-8.2578-18.391-2.4688-4.9688-5.1289-9.8359-8.0156-14.578-2.0117-3.3242-4.1133-6.5781-6.3516-9.7656-1.75-2.4844-3.5703-4.918-5.4766-7.2969-1.8047-2.2383-3.6602-4.4258-5.6016-6.543-7.8242-8.4883-17.184-16.223-28-20.492z" fill-rule="evenodd"/>
</svg>
