<?xml version="1.0" encoding="UTF-8"?>
<svg width="700pt" height="700pt" version="1.1" viewBox="0 0 700 700" xmlns="http://www.w3.org/2000/svg" xmlns:xlink="http://www.w3.org/1999/xlink">
 <defs>
  <symbol id="t" overflow="visible">
   <path d="m0.1875-0.015625c-0.011719 0.011719-0.023438 0.015625-0.03125 0.015625h-0.03125c-0.03125 0-0.058594-0.0039062-0.078125-0.015625-0.023438-0.019531-0.03125-0.046875-0.03125-0.078125 0-0.039062 0.0078125-0.066406 0.03125-0.078125 0.019531-0.019531 0.046875-0.03125 0.078125-0.03125h0.03125c0.007812 0 0.019531 0.007813 0.03125 0.015625v0.03125h-0.03125c-0.011719-0.007812-0.023438-0.015625-0.03125-0.015625-0.023438 0-0.039062 0.007813-0.046875 0.015625-0.011719 0.011719-0.015625 0.03125-0.015625 0.0625 0 0.023438 0.0039062 0.039062 0.015625 0.046875 0.0078125 0.011719 0.023437 0.015625 0.046875 0.015625h0.03125c0.007812-0.0078125 0.019531-0.015625 0.03125-0.015625z"/>
  </symbol>
  <symbol id="c" overflow="visible">
   <path d="m0.14062-0.10938h-0.015625c0-0.007813-0.007812-0.015625-0.015625-0.015625-0.011719 0-0.023438 0.007812-0.03125 0.015625v0.046875 0.0625h-0.0625v-0.15625h0.0625v0.03125c0-0.007812 0.0039062-0.015625 0.015625-0.015625 0.007812-0.007813 0.019531-0.015625 0.03125-0.015625h0.015625z"/>
  </symbol>
  <symbol id="a" overflow="visible">
   <path d="m0.17188-0.078125v0.015625h-0.10938v0.03125h0.046875 0.03125c0.007813-0.0078125 0.019531-0.015625 0.03125-0.015625v0.03125c-0.011719 0.011719-0.023437 0.015625-0.03125 0.015625h-0.046875c-0.023438 0-0.042969-0.0039062-0.0625-0.015625-0.011719-0.019531-0.015625-0.039062-0.015625-0.0625 0-0.019531 0.0039062-0.035156 0.015625-0.046875 0.019531-0.019531 0.039062-0.03125 0.0625-0.03125 0.019531 0 0.035156 0.011719 0.046875 0.03125 0.019531 0.011719 0.03125 0.027344 0.03125 0.046875zm-0.046875-0.015625c0-0.007812-0.007812-0.015625-0.015625-0.015625 0-0.007813-0.007813-0.015625-0.015625-0.015625-0.011719 0-0.023438 0.007812-0.03125 0.015625v0.015625z"/>
  </symbol>
  <symbol id="f" overflow="visible">
   <path d="m0.09375-0.0625h-0.03125v0.015625 0.015625h0.015625 0.03125c0.007813-0.0078125 0.015625-0.019531 0.015625-0.03125zm0.078125-0.03125v0.09375h-0.046875v-0.015625c-0.011719 0-0.023438 0.0078125-0.03125 0.015625h-0.03125-0.03125c-0.011719-0.0078125-0.015625-0.023438-0.015625-0.046875 0-0.019531 0.0039062-0.03125 0.015625-0.03125 0.0078125-0.0078125 0.03125-0.015625 0.0625-0.015625h0.03125c0-0.007812-0.007812-0.015625-0.015625-0.015625-0.011719-0.007813-0.023438-0.015625-0.03125-0.015625h-0.03125c-0.011719 0-0.015625 0.007812-0.015625 0.015625v-0.046875h0.03125 0.03125c0.019531 0 0.035156 0.007812 0.046875 0.015625 0.019531 0.011719 0.03125 0.027344 0.03125 0.046875z"/>
  </symbol>
  <symbol id="b" overflow="visible">
   <path d="m0.078125-0.20312v0.046875h0.046875v0.03125h-0.046875v0.078125 0.015625h0.015625 0.03125v0.03125h-0.046875c-0.023438 0-0.039062-0.0039062-0.046875-0.015625v-0.03125-0.078125h-0.03125v-0.03125h0.03125v-0.046875z"/>
  </symbol>
  <symbol id="e" overflow="visible">
   <path d="m0.125-0.125v-0.09375h0.046875v0.21875h-0.046875v-0.015625s-0.007812 0.0078125-0.015625 0.015625h-0.03125c-0.023438 0-0.039062-0.0039062-0.046875-0.015625-0.011719-0.019531-0.015625-0.039062-0.015625-0.0625 0-0.019531 0.0039062-0.035156 0.015625-0.046875 0.0078125-0.019531 0.023438-0.03125 0.046875-0.03125 0.0078125 0 0.019531 0.007812 0.03125 0.015625 0.007813 0 0.015625 0.007813 0.015625 0.015625zm-0.03125 0.09375h0.015625c0.007813-0.0078125 0.015625-0.023438 0.015625-0.046875 0-0.0078125-0.007812-0.019531-0.015625-0.03125 0-0.007813-0.007813-0.015625-0.015625-0.015625-0.011719 0-0.023438 0.007812-0.03125 0.015625v0.03125 0.046875h0.03125z"/>
  </symbol>
  <symbol id="i" overflow="visible">
   <path d="m0.10938-0.03125h0.015625c0.007812-0.0078125 0.015625-0.023438 0.015625-0.046875 0-0.0078125-0.007813-0.019531-0.015625-0.03125 0-0.007813-0.007812-0.015625-0.015625-0.015625-0.011719 0-0.023438 0.007812-0.03125 0.015625v0.03125 0.03125c0.0078125 0.011719 0.019531 0.015625 0.03125 0.015625zm-0.03125-0.09375c0-0.007812 0.0039062-0.015625 0.015625-0.015625 0.007812-0.007813 0.019531-0.015625 0.03125-0.015625 0.019531 0 0.035156 0.011719 0.046875 0.03125 0.007813 0.011719 0.015625 0.027344 0.015625 0.046875 0 0.023438-0.007812 0.042969-0.015625 0.0625-0.011719 0.011719-0.027344 0.015625-0.046875 0.015625h-0.03125c-0.011719-0.0078125-0.015625-0.015625-0.015625-0.015625v0.015625h-0.0625v-0.21875h0.0625z"/>
  </symbol>
  <symbol id="h" overflow="visible">
   <path d="m0-0.15625h0.046875l0.046875 0.10938 0.03125-0.10938h0.046875l-0.0625 0.17188c0 0.019531-0.007813 0.03125-0.015625 0.03125-0.011719 0.0078125-0.023438 0.015625-0.03125 0.015625h-0.03125v-0.03125h0.015625c0.0078125 0 0.015625-0.0078125 0.015625-0.015625v-0.015625z"/>
  </symbol>
  <symbol id="g" overflow="visible">
   <path d="m0.03125-0.20312h0.046875v0.078125h0.078125v-0.078125h0.046875v0.20312h-0.046875v-0.09375h-0.078125v0.09375h-0.046875z"/>
  </symbol>
  <symbol id="s" overflow="visible">
   <path d="m0.015625-0.15625h0.0625v0.15625h-0.0625zm0-0.0625h0.0625v0.046875h-0.0625z"/>
  </symbol>
  <symbol id="r" overflow="visible">
   <path d="m0.125-0.21875v0.046875h-0.03125-0.015625v0.015625h0.046875v0.03125h-0.046875v0.125h-0.046875v-0.125h-0.03125v-0.03125h0.03125c0-0.019531 0.0039062-0.035156 0.015625-0.046875 0.0078125-0.007813 0.023438-0.015625 0.046875-0.015625z"/>
  </symbol>
  <symbol id="d" overflow="visible">
   <path d="m0.09375-0.125c-0.011719 0-0.023438 0.007812-0.03125 0.015625v0.03125 0.046875h0.03125 0.015625c0.007813-0.0078125 0.015625-0.023438 0.015625-0.046875 0-0.0078125-0.007812-0.019531-0.015625-0.03125 0-0.007813-0.007813-0.015625-0.015625-0.015625zm0-0.03125c0.03125 0 0.050781 0.011719 0.0625 0.03125 0.007812 0.011719 0.015625 0.027344 0.015625 0.046875 0 0.023438-0.007813 0.042969-0.015625 0.0625-0.011719 0.011719-0.03125 0.015625-0.0625 0.015625-0.023438 0-0.042969-0.0039062-0.0625-0.015625-0.011719-0.019531-0.015625-0.039062-0.015625-0.0625 0-0.019531 0.0039062-0.035156 0.015625-0.046875 0.019531-0.019531 0.039062-0.03125 0.0625-0.03125z"/>
  </symbol>
  <symbol id="q" overflow="visible">
   <path d="m0.17188-0.125c0-0.007812 0.003906-0.015625 0.015625-0.015625 0.007812-0.007813 0.019531-0.015625 0.03125-0.015625 0.007812 0 0.019531 0.007812 0.03125 0.015625 0.007812 0.011719 0.015625 0.027344 0.015625 0.046875v0.09375h-0.046875v-0.078125-0.015625c0-0.007812-0.007812-0.015625-0.015625-0.015625v-0.015625c-0.011719 0-0.023437 0.007812-0.03125 0.015625v0.03125 0.078125h-0.046875v-0.078125c0-0.019531-0.007812-0.03125-0.015625-0.03125 0-0.007813-0.007813-0.015625-0.015625-0.015625 0 0-0.0078125 0.007812-0.015625 0.015625v0.03125 0.078125h-0.0625v-0.15625h0.0625v0.03125c0-0.007812 0.0039062-0.015625 0.015625-0.015625 0.007812-0.007813 0.019531-0.015625 0.03125-0.015625 0.007812 0 0.015625 0.007812 0.015625 0.015625 0.007813 0 0.019531 0.007813 0.03125 0.015625z"/>
  </symbol>
  <symbol id="p" overflow="visible">
   <path d="m0.17188-0.09375v0.09375h-0.046875v-0.0625-0.03125-0.015625h-0.015625v-0.015625c-0.011719 0-0.023438 0.007812-0.03125 0.015625v0.03125 0.078125h-0.0625v-0.21875h0.0625v0.09375c0-0.007812 0.0039062-0.015625 0.015625-0.015625 0.007812-0.007813 0.019531-0.015625 0.03125-0.015625 0.019531 0 0.03125 0.007812 0.03125 0.015625 0.007812 0.011719 0.015625 0.027344 0.015625 0.046875z"/>
  </symbol>
  <symbol id="o" overflow="visible">
   <path d="m0.03125-0.20312h0.046875l0.078125 0.14062v-0.14062h0.046875v0.20312h-0.046875l-0.078125-0.14062v0.14062h-0.046875z"/>
  </symbol>
  <symbol id="n" overflow="visible">
   <path d="m0.015625-0.0625v-0.09375h0.046875v0.015625 0.03125 0.03125 0.03125h0.015625v0.015625h0.015625c0.007812 0 0.015625-0.0039062 0.015625-0.015625 0.007813-0.0078125 0.015625-0.019531 0.015625-0.03125v-0.078125h0.046875v0.15625h-0.046875v-0.015625c-0.011719 0-0.023438 0.0078125-0.03125 0.015625h-0.015625c-0.023438 0-0.039062-0.0039062-0.046875-0.015625-0.011719-0.0078125-0.015625-0.023438-0.015625-0.046875z"/>
  </symbol>
  <symbol id="m" overflow="visible">
   <path d="m0.17188-0.09375v0.09375h-0.046875v-0.0625-0.03125-0.015625h-0.015625v-0.015625c-0.011719 0-0.023438 0.007812-0.03125 0.015625v0.03125 0.078125h-0.0625v-0.15625h0.0625v0.03125c0-0.007812 0.0039062-0.015625 0.015625-0.015625 0.007812-0.007813 0.019531-0.015625 0.03125-0.015625 0.019531 0 0.03125 0.007812 0.03125 0.015625 0.007812 0.011719 0.015625 0.027344 0.015625 0.046875z"/>
  </symbol>
  <symbol id="l" overflow="visible">
   <path d="m0.03125-0.20312h0.078125c0.03125 0 0.050781 0.007813 0.0625 0.015625 0.007813 0.011719 0.015625 0.027344 0.015625 0.046875 0 0.023437-0.007812 0.042969-0.015625 0.0625-0.011719 0.011719-0.03125 0.015625-0.0625 0.015625h-0.03125v0.0625h-0.046875zm0.046875 0.03125v0.0625h0.03125 0.015625c0.007812-0.007813 0.015625-0.019531 0.015625-0.03125 0-0.007813-0.007813-0.015625-0.015625-0.015625 0-0.007812-0.007812-0.015625-0.015625-0.015625z"/>
  </symbol>
  <symbol id="k" overflow="visible">
   <path d="m0.015625-0.15625h0.0625v0.15625c0 0.019531-0.0078125 0.035156-0.015625 0.046875-0.011719 0.0078125-0.027344 0.015625-0.046875 0.015625h-0.03125v-0.03125h0.015625c0.0078125 0 0.015625-0.0078125 0.015625-0.015625v-0.015625zm0-0.0625h0.0625v0.046875h-0.0625z"/>
  </symbol>
  <symbol id="j" overflow="visible">
   <path d="m0.15625-0.15625v0.046875h-0.03125c0-0.007813-0.007812-0.015625-0.015625-0.015625-0.011719 0-0.023438 0.007812-0.03125 0.015625-0.011719 0.011719-0.015625 0.023438-0.015625 0.03125 0 0.011719 0.0039062 0.023438 0.015625 0.03125 0.0078125 0.011719 0.019531 0.015625 0.03125 0.015625h0.015625c0.007812-0.0078125 0.019531-0.015625 0.03125-0.015625v0.046875h-0.03125-0.03125c-0.023438 0-0.042969-0.0039062-0.0625-0.015625-0.011719-0.019531-0.015625-0.039062-0.015625-0.0625 0-0.019531 0.0039062-0.035156 0.015625-0.046875 0.019531-0.019531 0.039062-0.03125 0.0625-0.03125h0.03125 0.03125z"/>
  </symbol>
 </defs>
 <g>
  <path d="m213.14 168.56c0-3.2461 2.6328-5.8242 5.8242-5.8242 3.2461 0 5.8242 2.5742 5.8242 5.8242 0 3.2461-2.5742 5.8242-5.8242 5.8242-3.1914 0-5.8242-2.5742-5.8242-5.8242zm252.5-22.457c0-6.4961-2.6328-12.375-6.8867-16.633-4.3125-4.2578-10.191-6.8867-16.688-6.8867s-12.375 2.6328-16.688 6.8867c-4.2578 4.2578-6.8867 10.137-6.8867 16.633 0 6.5508 2.6328 12.434 6.8867 16.688 4.3125 4.2578 10.191 6.8867 16.688 6.8867s12.375-2.6328 16.633-6.8867c4.2578-4.2578 6.9453-10.137 6.9453-16.688zm-98.223 259.67c2.9102 1.2305 5.543 3.0234 7.7266 5.207v0.054687c4.4805 4.4805 7.2812 10.695 7.2812 17.527s-2.8008 13.047-7.2812 17.527c-4.4805 4.5352-10.695 7.2812-17.527 7.2812-6.832 0-13.047-2.7422-17.586-7.2812-0.83984-0.83984-1.625-1.793-2.3516-2.7422v-29.566c0.72656-0.95312 1.5117-1.9023 2.3516-2.7422v-0.054687c4.1445-4.0898 9.7422-6.7773 15.902-7.2227l14.672-54.77c0.55859-2.6875 2.9102-4.6484 5.7109-4.6484h14.223c4.0898-11.871 10.863-22.457 19.488-31.078 14.895-14.895 35.391-24.078 58.07-24.078 5.0977 0 10.137 0.44922 14.953 1.3984v-77.113c0-3.1914 2.6328-5.8242 5.8242-5.8242h17.695c3.2461 0 5.8242 2.6328 5.8242 5.8242 0 3.2461-2.5742 5.8242-5.8242 5.8242h-11.816v74.312c11.93 4.0898 22.625 10.863 31.414 19.656 14.84 14.84 24.023 35.336 24.023 58.016s-9.1836 43.23-24.023 58.07c-14.895 14.84-35.391 24.023-58.07 24.023-22.68 0-43.176-9.1836-58.07-24.023-14.84-14.84-24.023-35.391-24.023-58.07 0-5.207 0.50391-10.359 1.3984-15.289h-6.6094l-13.383 49.785zm-0.50391 13.441c-2.3516-2.3516-5.6562-3.8086-9.2969-3.8086-3.6406 0-6.9453 1.457-9.3516 3.8086v0.054687c-2.3516 2.3516-3.8086 5.6562-3.8086 9.2969s1.457 6.9453 3.8086 9.2969v0.054688c2.4062 2.3516 5.7109 3.8086 9.3516 3.8086 3.6406 0 6.9453-1.457 9.2969-3.8633 2.4062-2.3516 3.8633-5.6562 3.8633-9.2969s-1.457-6.9453-3.8633-9.2969zm150.98-97.719c-12.711-12.77-30.352-20.664-49.785-20.664-19.434 0-37.07 7.8945-49.84 20.664-12.711 12.711-20.609 30.352-20.609 49.785 0 19.488 7.8945 37.07 20.609 49.84 12.77 12.711 30.406 20.609 49.84 20.609 19.434 0 37.07-7.8945 49.785-20.609 12.77-12.77 20.664-30.352 20.664-49.84 0-19.434-7.8945-37.07-20.664-49.785zm-82.039-102.59c2.9102-1.3984 6.3828-0.16797 7.7266 2.7422 1.3984 2.9102 0.11328 6.3828-2.7422 7.7852l-25.984 12.266v42.281c0 3.8633-1.9609 8.793-5.9922 12.266-3.0781 2.5742-7.2227 4.4258-12.543 4.4258h-37.633c-5.2656 0-9.1836 0.95312-11.93 2.7422-2.4062 1.5664-4.0312 4.0312-4.8711 7.2812l-4.1992 15.68v-30.633c0.83984-0.72656 1.7344-1.457 2.6875-2.0703 4.7031-3.0781 10.695-4.6484 18.312-4.6484h37.633c2.2383 0 3.8633-0.67188 4.9844-1.625 1.2891-1.1211 1.9023-2.4648 1.9023-3.4141v-36.734l-6.3828 3.0234c-0.89453 0.44922-1.8477 0.61719-2.8008 0.55859h-63c-5.9922 0-11.367-2.4062-15.344-6.3828-3.9219-3.9219-6.3281-9.3516-6.3828-15.344 0-6.0469 2.4648-11.48 6.3828-15.398 3.9219-3.9219 9.3516-6.3828 15.344-6.3828v0.054688h44.633l42.504-19.543c0.83984-0.44922 1.793-0.72656 2.8555-0.72656h31.359c7.3359 0 13.609 2.8555 18.031 7.7852 4.3672 4.8164 6.832 11.426 6.832 19.098v70.895c-2.9688-0.33594-6.0469-0.50391-9.1289-0.50391-0.83984 0-1.625 0-2.4648 0.054688l-0.054687-70.449c0-4.7031-1.3984-8.625-3.8086-11.312-2.2383-2.4648-5.4883-3.9219-9.4062-3.9219h-30.129l-42.895 19.711c-0.72656 0.33594-1.5664 0.50391-2.4062 0.50391h-45.922v0.054687c-2.7422 0-5.2656 1.1211-7.1133 2.9688-1.8477 1.793-2.9688 4.3672-2.9688 7.1133 0 2.8008 1.1211 5.3203 2.9688 7.1133 1.793 1.8477 4.3125 2.9688 7.1133 2.9688h61.992l13.16-6.2148c0.22266-0.16797 0.50391-0.28125 0.72656-0.39062l28.953-13.664zm-48.328 119.73h-20.215l-16.07 59.977c-5.0977 1.0625-9.7422 3.4727-13.551 6.7188v-1.0078l19.543-73.023c0.67188-2.6328 3.0234-4.3672 5.6016-4.3672h30.52c-2.2383 3.7539-4.1445 7.6172-5.8242 11.703zm79.465-217.39c6.3281 6.3828 10.305 15.176 10.305 24.863 0 9.7422-3.9766 18.535-10.305 24.922-6.3828 6.3828-15.23 10.305-24.922 10.305-9.7422 0-18.535-3.9219-24.922-10.305-6.3828-6.3828-10.305-15.176-10.305-24.922 0-9.6875 3.9219-18.535 10.305-24.863 6.3828-6.3828 15.176-10.359 24.922-10.359 9.6875 0 18.48 3.9766 24.863 10.359zm-208.1 129.59c-3.2461 0-5.8789-2.6328-5.8789-5.8242 0-3.2461 2.6328-5.8242 5.8789-5.8242h46.648c1.3984 3.5859 3.5273 6.7773 6.2148 9.4648 0.78516 0.78516 1.5664 1.5117 2.4648 2.1836zm-103.27 6.6641h176.79v195.89h-34.16v-142.02h-114.3v142.02h-34.16v-195.89zm165.09 11.703h-159.27v172.54h10.809v-142.07h137.65v142.07h10.809zm-108.19 88.871h20.105v11.703h-20.105zm21.785-6.4961h-23.52c-1.0625 0-2.1289 0.50391-2.8555 1.2305-0.72656 0.72656-1.1758 1.7344-1.1758 2.8555v81.984c0 1.1211 0.44922 2.1836 1.1758 2.9102 0.72656 0.72656 1.7344 1.1758 2.8555 1.1758h23.52c1.1211 0 2.1836-0.44922 2.8555-1.1758 0.78516-0.78516 1.2305-1.793 1.2305-2.9102v-81.984c0-1.1211-0.44922-2.1289-1.2305-2.8555-0.72656-0.72656-1.7344-1.2305-2.8555-1.2305zm-23.52-11.648h23.52c4.3672 0 8.2891 1.793 11.145 4.6484 2.8555 2.8008 4.5938 6.7773 4.5938 11.09v81.984c0 4.3672-1.7344 8.2891-4.5938 11.145-2.8555 2.8555-6.832 4.5938-11.145 4.5938h-23.52c-4.2578 0-8.2305-1.7344-11.09-4.5938v-0.054687c-2.8555-2.8555-4.6484-6.7773-4.6484-11.09v-81.984c0-4.3125 1.793-8.2305 4.6484-11.09 2.8555-2.8555 6.7773-4.6484 11.09-4.6484zm14.672 70.504c2.8008 1.625 3.7539 5.1523 2.1836 7.9531-1.625 2.8008-5.207 3.7539-8.0078 2.1289s-3.7539-5.1523-2.1289-7.9531 5.207-3.7539 7.9531-2.1289zm-30.297-179.93v8.6797h8.793c3.1914 0 5.8242 2.5742 5.8242 5.8242 0 3.1914-2.6328 5.8242-5.8242 5.8242h-29.23c-3.2461 0-5.8789-2.6328-5.8789-5.8242 0-3.2461 2.6328-5.8242 5.8789-5.8242h8.7344v-8.6797h-4.0898c-3.1914 0-5.8242-2.5742-5.8242-5.8242v-112.22c0-3.2461 2.6328-5.8242 5.8242-5.8242h19.879c3.1914 0 5.8242 2.5742 5.8242 5.8242v112.22c0 3.2461-2.6328 5.8242-5.8242 5.8242h-4.0898zm-1.793-112.22h-8.1211v100.57h8.1211zm36.625 88.09c0-3.2461 2.6328-5.8789 5.8242-5.8789 3.2461 0 5.8242 2.6328 5.8242 5.8789 0 3.1914-2.5742 5.8242-5.8242 5.8242-3.1914 0-5.8242-2.6328-5.8242-5.8242zm16.855 3.9766c0-3.2461 2.5742-5.8242 5.8242-5.8242 3.1914 0 5.8242 2.5742 5.8242 5.8242 0 3.1914-2.6328 5.8242-5.8242 5.8242-3.2461 0-5.8242-2.6328-5.8242-5.8242zm-33.711-8.0078c0-3.2461 2.6328-5.8789 5.8242-5.8789 3.2461 0 5.8242 2.6328 5.8242 5.8789 0 3.1914-2.5742 5.8242-5.8242 5.8242-3.1914 0-5.8242-2.6328-5.8242-5.8242zm16.855-71.566c0 3.2461 2.6328 5.8789 5.8242 5.8789 3.2461 0 5.8242-2.6328 5.8242-5.8789 0-3.1914-2.5742-5.8242-5.8242-5.8242-3.1914 0-5.8242 2.6328-5.8242 5.8242zm16.855-3.9766c0 3.2461 2.5742 5.8242 5.8242 5.8242 3.1914 0 5.8242-2.5742 5.8242-5.8242 0-3.2461-2.6328-5.8242-5.8242-5.8242-3.2461 0-5.8242 2.5742-5.8242 5.8242zm-33.711 8.0078c0 3.2461 2.6328 5.8789 5.8242 5.8789 3.2461 0 5.8242-2.6328 5.8242-5.8789 0-3.1914-2.5742-5.8242-5.8242-5.8242-3.1914 0-5.8242 2.6328-5.8242 5.8242zm33.711 33.77c0-3.2461 2.5742-5.8242 5.8242-5.8242 3.1914 0 5.8242 2.5742 5.8242 5.8242 0 3.2461-2.6328 5.8242-5.8242 5.8242-3.2461 0-5.8242-2.5742-5.8242-5.8242zm-16.855 0c0-3.2461 2.6328-5.8242 5.8242-5.8242 3.2461 0 5.8242 2.5742 5.8242 5.8242 0 3.2461-2.5742 5.8242-5.8242 5.8242-3.1914 0-5.8242-2.5742-5.8242-5.8242z" fill-rule="evenodd"/>
  <use x="70" y="560.839844" xlink:href="#t"/>
  <use x="70.207031" y="560.839844" xlink:href="#c"/>
  <use x="70.34375" y="560.839844" xlink:href="#a"/>
  <use x="70.535156" y="560.839844" xlink:href="#f"/>
  <use x="70.722656" y="560.839844" xlink:href="#b"/>
  <use x="70.855469" y="560.839844" xlink:href="#a"/>
  <use x="71.046875" y="560.839844" xlink:href="#e"/>
  <use x="71.34375" y="560.839844" xlink:href="#i"/>
  <use x="71.542969" y="560.839844" xlink:href="#h"/>
  <use x="71.824219" y="560.839844" xlink:href="#g"/>
  <use x="72.058594" y="560.839844" xlink:href="#f"/>
  <use x="72.246094" y="560.839844" xlink:href="#e"/>
  <use x="72.449219" y="560.839844" xlink:href="#s"/>
  <use x="70" y="561.121094" xlink:href="#r"/>
  <use x="70.121094" y="561.121094" xlink:href="#c"/>
  <use x="70.261719" y="561.121094" xlink:href="#d"/>
  <use x="70.453125" y="561.121094" xlink:href="#q"/>
  <use x="70.839844" y="561.121094" xlink:href="#b"/>
  <use x="70.976562" y="561.121094" xlink:href="#p"/>
  <use x="71.175781" y="561.121094" xlink:href="#a"/>
  <use x="71.460938" y="561.121094" xlink:href="#o"/>
  <use x="71.695312" y="561.121094" xlink:href="#d"/>
  <use x="71.890625" y="561.121094" xlink:href="#n"/>
  <use x="72.089844" y="561.121094" xlink:href="#m"/>
  <use x="72.386719" y="561.121094" xlink:href="#l"/>
  <use x="72.589844" y="561.121094" xlink:href="#c"/>
  <use x="72.726562" y="561.121094" xlink:href="#d"/>
  <use x="72.921875" y="561.121094" xlink:href="#k"/>
  <use x="73.015625" y="561.121094" xlink:href="#a"/>
  <use x="73.207031" y="561.121094" xlink:href="#j"/>
  <use x="73.371094" y="561.121094" xlink:href="#b"/>
 </g>
</svg>
