<?xml version="1.0" encoding="UTF-8"?>
<svg width="700pt" height="700pt" version="1.1" viewBox="0 0 700 700" xmlns="http://www.w3.org/2000/svg" xmlns:xlink="http://www.w3.org/1999/xlink">
 <defs>
  <symbol id="t" overflow="visible">
   <path d="m0.1875-0.015625c-0.011719 0.011719-0.023438 0.015625-0.03125 0.015625h-0.03125c-0.03125 0-0.058594-0.0039062-0.078125-0.015625-0.023438-0.019531-0.03125-0.046875-0.03125-0.078125 0-0.039062 0.0078125-0.066406 0.03125-0.078125 0.019531-0.019531 0.046875-0.03125 0.078125-0.03125h0.03125c0.007812 0 0.019531 0.007813 0.03125 0.015625v0.03125h-0.03125c-0.011719-0.007812-0.023438-0.015625-0.03125-0.015625-0.023438 0-0.039062 0.007813-0.046875 0.015625-0.011719 0.011719-0.015625 0.03125-0.015625 0.0625 0 0.023438 0.0039062 0.039062 0.015625 0.046875 0.0078125 0.011719 0.023437 0.015625 0.046875 0.015625h0.03125c0.007812-0.0078125 0.019531-0.015625 0.03125-0.015625z"/>
  </symbol>
  <symbol id="c" overflow="visible">
   <path d="m0.14062-0.10938h-0.015625c0-0.007813-0.007812-0.015625-0.015625-0.015625-0.011719 0-0.023438 0.007812-0.03125 0.015625v0.046875 0.0625h-0.0625v-0.15625h0.0625v0.03125c0-0.007812 0.0039062-0.015625 0.015625-0.015625 0.007812-0.007813 0.019531-0.015625 0.03125-0.015625h0.015625z"/>
  </symbol>
  <symbol id="a" overflow="visible">
   <path d="m0.17188-0.078125v0.015625h-0.10938v0.03125h0.046875 0.03125c0.007813-0.0078125 0.019531-0.015625 0.03125-0.015625v0.03125c-0.011719 0.011719-0.023437 0.015625-0.03125 0.015625h-0.046875c-0.023438 0-0.042969-0.0039062-0.0625-0.015625-0.011719-0.019531-0.015625-0.039062-0.015625-0.0625 0-0.019531 0.0039062-0.035156 0.015625-0.046875 0.019531-0.019531 0.039062-0.03125 0.0625-0.03125 0.019531 0 0.035156 0.011719 0.046875 0.03125 0.019531 0.011719 0.03125 0.027344 0.03125 0.046875zm-0.046875-0.015625c0-0.007812-0.007812-0.015625-0.015625-0.015625 0-0.007813-0.007813-0.015625-0.015625-0.015625-0.011719 0-0.023438 0.007812-0.03125 0.015625v0.015625z"/>
  </symbol>
  <symbol id="f" overflow="visible">
   <path d="m0.09375-0.0625h-0.03125v0.015625 0.015625h0.015625 0.03125c0.007813-0.0078125 0.015625-0.019531 0.015625-0.03125zm0.078125-0.03125v0.09375h-0.046875v-0.015625c-0.011719 0-0.023438 0.0078125-0.03125 0.015625h-0.03125-0.03125c-0.011719-0.0078125-0.015625-0.023438-0.015625-0.046875 0-0.019531 0.0039062-0.03125 0.015625-0.03125 0.0078125-0.0078125 0.03125-0.015625 0.0625-0.015625h0.03125c0-0.007812-0.007812-0.015625-0.015625-0.015625-0.011719-0.007813-0.023438-0.015625-0.03125-0.015625h-0.03125c-0.011719 0-0.015625 0.007812-0.015625 0.015625v-0.046875h0.03125 0.03125c0.019531 0 0.035156 0.007812 0.046875 0.015625 0.019531 0.011719 0.03125 0.027344 0.03125 0.046875z"/>
  </symbol>
  <symbol id="b" overflow="visible">
   <path d="m0.078125-0.20312v0.046875h0.046875v0.03125h-0.046875v0.078125 0.015625h0.015625 0.03125v0.03125h-0.046875c-0.023438 0-0.039062-0.0039062-0.046875-0.015625v-0.03125-0.078125h-0.03125v-0.03125h0.03125v-0.046875z"/>
  </symbol>
  <symbol id="e" overflow="visible">
   <path d="m0.125-0.125v-0.09375h0.046875v0.21875h-0.046875v-0.015625s-0.007812 0.0078125-0.015625 0.015625h-0.03125c-0.023438 0-0.039062-0.0039062-0.046875-0.015625-0.011719-0.019531-0.015625-0.039062-0.015625-0.0625 0-0.019531 0.0039062-0.035156 0.015625-0.046875 0.0078125-0.019531 0.023438-0.03125 0.046875-0.03125 0.0078125 0 0.019531 0.007812 0.03125 0.015625 0.007813 0 0.015625 0.007813 0.015625 0.015625zm-0.03125 0.09375h0.015625c0.007813-0.0078125 0.015625-0.023438 0.015625-0.046875 0-0.0078125-0.007812-0.019531-0.015625-0.03125 0-0.007813-0.007813-0.015625-0.015625-0.015625-0.011719 0-0.023438 0.007812-0.03125 0.015625v0.03125 0.046875h0.03125z"/>
  </symbol>
  <symbol id="i" overflow="visible">
   <path d="m0.10938-0.03125h0.015625c0.007812-0.0078125 0.015625-0.023438 0.015625-0.046875 0-0.0078125-0.007813-0.019531-0.015625-0.03125 0-0.007813-0.007812-0.015625-0.015625-0.015625-0.011719 0-0.023438 0.007812-0.03125 0.015625v0.03125 0.03125c0.0078125 0.011719 0.019531 0.015625 0.03125 0.015625zm-0.03125-0.09375c0-0.007812 0.0039062-0.015625 0.015625-0.015625 0.007812-0.007813 0.019531-0.015625 0.03125-0.015625 0.019531 0 0.035156 0.011719 0.046875 0.03125 0.007813 0.011719 0.015625 0.027344 0.015625 0.046875 0 0.023438-0.007812 0.042969-0.015625 0.0625-0.011719 0.011719-0.027344 0.015625-0.046875 0.015625h-0.03125c-0.011719-0.0078125-0.015625-0.015625-0.015625-0.015625v0.015625h-0.0625v-0.21875h0.0625z"/>
  </symbol>
  <symbol id="h" overflow="visible">
   <path d="m0-0.15625h0.046875l0.046875 0.10938 0.03125-0.10938h0.046875l-0.0625 0.17188c0 0.019531-0.007813 0.03125-0.015625 0.03125-0.011719 0.0078125-0.023438 0.015625-0.03125 0.015625h-0.03125v-0.03125h0.015625c0.0078125 0 0.015625-0.0078125 0.015625-0.015625v-0.015625z"/>
  </symbol>
  <symbol id="g" overflow="visible">
   <path d="m0.03125-0.20312h0.046875v0.078125h0.078125v-0.078125h0.046875v0.20312h-0.046875v-0.09375h-0.078125v0.09375h-0.046875z"/>
  </symbol>
  <symbol id="s" overflow="visible">
   <path d="m0.015625-0.15625h0.0625v0.15625h-0.0625zm0-0.0625h0.0625v0.046875h-0.0625z"/>
  </symbol>
  <symbol id="r" overflow="visible">
   <path d="m0.125-0.21875v0.046875h-0.03125-0.015625v0.015625h0.046875v0.03125h-0.046875v0.125h-0.046875v-0.125h-0.03125v-0.03125h0.03125c0-0.019531 0.0039062-0.035156 0.015625-0.046875 0.0078125-0.007813 0.023438-0.015625 0.046875-0.015625z"/>
  </symbol>
  <symbol id="d" overflow="visible">
   <path d="m0.09375-0.125c-0.011719 0-0.023438 0.007812-0.03125 0.015625v0.03125 0.046875h0.03125 0.015625c0.007813-0.0078125 0.015625-0.023438 0.015625-0.046875 0-0.0078125-0.007812-0.019531-0.015625-0.03125 0-0.007813-0.007813-0.015625-0.015625-0.015625zm0-0.03125c0.03125 0 0.050781 0.011719 0.0625 0.03125 0.007812 0.011719 0.015625 0.027344 0.015625 0.046875 0 0.023438-0.007813 0.042969-0.015625 0.0625-0.011719 0.011719-0.03125 0.015625-0.0625 0.015625-0.023438 0-0.042969-0.0039062-0.0625-0.015625-0.011719-0.019531-0.015625-0.039062-0.015625-0.0625 0-0.019531 0.0039062-0.035156 0.015625-0.046875 0.019531-0.019531 0.039062-0.03125 0.0625-0.03125z"/>
  </symbol>
  <symbol id="q" overflow="visible">
   <path d="m0.17188-0.125c0-0.007812 0.003906-0.015625 0.015625-0.015625 0.007812-0.007813 0.019531-0.015625 0.03125-0.015625 0.007812 0 0.019531 0.007812 0.03125 0.015625 0.007812 0.011719 0.015625 0.027344 0.015625 0.046875v0.09375h-0.046875v-0.078125-0.015625c0-0.007812-0.007812-0.015625-0.015625-0.015625v-0.015625c-0.011719 0-0.023437 0.007812-0.03125 0.015625v0.03125 0.078125h-0.046875v-0.078125c0-0.019531-0.007812-0.03125-0.015625-0.03125 0-0.007813-0.007813-0.015625-0.015625-0.015625 0 0-0.0078125 0.007812-0.015625 0.015625v0.03125 0.078125h-0.0625v-0.15625h0.0625v0.03125c0-0.007812 0.0039062-0.015625 0.015625-0.015625 0.007812-0.007813 0.019531-0.015625 0.03125-0.015625 0.007812 0 0.015625 0.007812 0.015625 0.015625 0.007813 0 0.019531 0.007813 0.03125 0.015625z"/>
  </symbol>
  <symbol id="p" overflow="visible">
   <path d="m0.17188-0.09375v0.09375h-0.046875v-0.0625-0.03125-0.015625h-0.015625v-0.015625c-0.011719 0-0.023438 0.007812-0.03125 0.015625v0.03125 0.078125h-0.0625v-0.21875h0.0625v0.09375c0-0.007812 0.0039062-0.015625 0.015625-0.015625 0.007812-0.007813 0.019531-0.015625 0.03125-0.015625 0.019531 0 0.03125 0.007812 0.03125 0.015625 0.007812 0.011719 0.015625 0.027344 0.015625 0.046875z"/>
  </symbol>
  <symbol id="o" overflow="visible">
   <path d="m0.03125-0.20312h0.046875l0.078125 0.14062v-0.14062h0.046875v0.20312h-0.046875l-0.078125-0.14062v0.14062h-0.046875z"/>
  </symbol>
  <symbol id="n" overflow="visible">
   <path d="m0.015625-0.0625v-0.09375h0.046875v0.015625 0.03125 0.03125 0.03125h0.015625v0.015625h0.015625c0.007812 0 0.015625-0.0039062 0.015625-0.015625 0.007813-0.0078125 0.015625-0.019531 0.015625-0.03125v-0.078125h0.046875v0.15625h-0.046875v-0.015625c-0.011719 0-0.023438 0.0078125-0.03125 0.015625h-0.015625c-0.023438 0-0.039062-0.0039062-0.046875-0.015625-0.011719-0.0078125-0.015625-0.023438-0.015625-0.046875z"/>
  </symbol>
  <symbol id="m" overflow="visible">
   <path d="m0.17188-0.09375v0.09375h-0.046875v-0.0625-0.03125-0.015625h-0.015625v-0.015625c-0.011719 0-0.023438 0.007812-0.03125 0.015625v0.03125 0.078125h-0.0625v-0.15625h0.0625v0.03125c0-0.007812 0.0039062-0.015625 0.015625-0.015625 0.007812-0.007813 0.019531-0.015625 0.03125-0.015625 0.019531 0 0.03125 0.007812 0.03125 0.015625 0.007812 0.011719 0.015625 0.027344 0.015625 0.046875z"/>
  </symbol>
  <symbol id="l" overflow="visible">
   <path d="m0.03125-0.20312h0.078125c0.03125 0 0.050781 0.007813 0.0625 0.015625 0.007813 0.011719 0.015625 0.027344 0.015625 0.046875 0 0.023437-0.007812 0.042969-0.015625 0.0625-0.011719 0.011719-0.03125 0.015625-0.0625 0.015625h-0.03125v0.0625h-0.046875zm0.046875 0.03125v0.0625h0.03125 0.015625c0.007812-0.007813 0.015625-0.019531 0.015625-0.03125 0-0.007813-0.007813-0.015625-0.015625-0.015625 0-0.007812-0.007812-0.015625-0.015625-0.015625z"/>
  </symbol>
  <symbol id="k" overflow="visible">
   <path d="m0.015625-0.15625h0.0625v0.15625c0 0.019531-0.0078125 0.035156-0.015625 0.046875-0.011719 0.0078125-0.027344 0.015625-0.046875 0.015625h-0.03125v-0.03125h0.015625c0.0078125 0 0.015625-0.0078125 0.015625-0.015625v-0.015625zm0-0.0625h0.0625v0.046875h-0.0625z"/>
  </symbol>
  <symbol id="j" overflow="visible">
   <path d="m0.15625-0.15625v0.046875h-0.03125c0-0.007813-0.007812-0.015625-0.015625-0.015625-0.011719 0-0.023438 0.007812-0.03125 0.015625-0.011719 0.011719-0.015625 0.023438-0.015625 0.03125 0 0.011719 0.0039062 0.023438 0.015625 0.03125 0.0078125 0.011719 0.019531 0.015625 0.03125 0.015625h0.015625c0.007812-0.0078125 0.019531-0.015625 0.03125-0.015625v0.046875h-0.03125-0.03125c-0.023438 0-0.042969-0.0039062-0.0625-0.015625-0.011719-0.019531-0.015625-0.039062-0.015625-0.0625 0-0.019531 0.0039062-0.035156 0.015625-0.046875 0.019531-0.019531 0.039062-0.03125 0.0625-0.03125h0.03125 0.03125z"/>
  </symbol>
 </defs>
 <g>
  <path d="m304.19 211.46c0.11328 0.11328 0.28125 0.28125 0.39062 0.39062 0.33594 0.22266 0.67188 0.50391 1.0078 0.72656l0.28125 0.11328 51.91 29.961 28.727-16.574c0.16797-0.11328 0.33594-0.22266 0.50391-0.33594l22.176-12.77c2.8008-1.625 6.3828-0.67188 7.9531 2.0703 1.625 2.8008 0.67188 6.3828-2.0703 7.9531l-18.594 10.754 14.559 54.488c0.67188 2.6328-0.55859 5.543-3.1914 6.7188-1.8477 0.89453-4.0312 1.625-6.6094 2.0703-2.4062 0.39062-5.207 0.61719-8.5117 0.61719h-37.688c-5.207 0-9.1836 0.95312-11.871 2.7422-2.4648 1.5664-4.0312 4.0312-4.9297 7.2227l-22.008 82.266-0.054687 0.11328c-0.67188 2.6328-0.22266 5.3203 1.0625 7.5039v0.054688c1.2305 2.1836 3.3594 3.9219 5.9922 4.6484h0.11328c2.6875 0.72656 5.4336 0.33594 7.6719-0.95312 2.2383-1.2891 3.9766-3.4141 4.7031-6.1055v-0.054687l17.863-66.863c0.72656-2.5742 3.0781-4.3125 5.6562-4.3125h30.465c-2.1836 3.7539-4.1445 7.6172-5.7695 11.648h-20.273l-16.016 60.031c-5.9375 1.2305-11.199 4.1992-15.289 8.2891-2.9102 2.9102-5.2656 6.4414-6.832 10.305-1.457 0-2.9102-0.16797-4.3672-0.50391h-0.054688l-0.78516-0.22266c-5.7695-1.5117-10.359-5.2656-13.16-10.137v0.054688c-2.8008-4.8711-3.7539-10.754-2.1836-16.52l22.008-82.207c1.625-6.1055 4.8164-10.809 9.8008-14.055 4.6484-3.0234 10.695-4.5938 18.258-4.5938h37.688c2.1836 0 4.0312-0.11328 5.543-0.33594l-12.266-45.863-25.312 14.617c-1.9023 1.0625-4.1445 1.0078-5.8789 0l-54.039-31.191-12.152 8.9023c-2.5742 1.9023-6.2148 1.3438-8.1211-1.2891-1.9023-2.5742-1.3438-6.2148 1.2305-8.1211l10.473-7.6719c-1.0078-1.6797-1.793-3.5859-2.2969-5.4883-1.457-5.3203-0.83984-11.258 2.1836-16.465 3.0234-5.207 7.8398-8.6797 13.16-10.137 5.375-1.457 11.312-0.83984 16.52 2.1836l0.28125 0.16797 36.512 21.113 31.414-18.145c0.95312-0.61719 4.7031-2.7422 10.078-2.7422h9.9102c9.2969 0 16.91 1.3438 23.742 7.4492 6.3281 5.6562 11.426 15.289 15.848 31.809l15.176 56.559h-0.28125c-3.9219 0-7.7852 0.28125-11.594 0.78516l-14.559-54.32c-3.8086-14.223-7.7266-22.062-12.32-26.152-4.0898-3.6953-9.3516-4.4805-16.016-4.4805h-12.207l-36.23 20.945c-1.7344 1.0078-3.9766 1.0625-5.8242 0l-39.426-22.734c-0.11328-0.054688-0.22266-0.11328-0.33594-0.16797-2.4062-1.3984-5.1523-1.6797-7.6719-1.0078-2.5195 0.67187-4.7617 2.2969-6.1055 4.6484-1.3984 2.4062-1.6797 5.207-1.0078 7.7266 0.50391 1.8477 1.5117 3.5859 3.0234 4.8711zm-92.457 12.488 23.406 28.84 6.3828-18.535-29.793-10.305zm18.93 41.832-39.703-49-37.574-12.992 3.8086-10.977 93.184 32.199c0.11328 0 0.28125 0.054688 0.44922 0.11328 0.16797 0.054687 0.33594 0.11328 0.44922 0.22266l93.184 32.199-3.8086 10.977-88.09-30.465-62.551 181.66h86.352c2.4062 0 4.7031 1.5117 5.543 3.9219l6.4961 18.984c1.0625 3.0781-0.55859 6.3828-3.6406 7.4492-3.0234 1.0078-6.3281-0.61719-7.3906-3.6406l-5.1523-15.062h-69.215l-5.207 15.062c-1.0078 3.0234-4.3125 4.6484-7.3906 3.6406-3.0234-1.0625-4.6484-4.3672-3.6406-7.4492l3.9219-11.258h-8.793c-3.2461 0-5.8789-2.6328-5.8789-5.8242 0-0.78516 0.16797-1.457 0.39062-2.1289l54.266-157.64zm170.02-120.9c0-6.4961-2.6328-12.434-6.8867-16.688-4.2578-4.2578-10.191-6.8867-16.688-6.8867-6.4961 0-12.375 2.6328-16.633 6.8867-4.2578 4.2578-6.8867 10.191-6.8867 16.688s2.6328 12.375 6.832 16.633l0.054687 0.054688c4.2578 4.1992 10.137 6.832 16.633 6.832 6.5508 0 12.434-2.6328 16.688-6.832v-0.054688c4.2578-4.2578 6.8867-10.137 6.8867-16.633zm1.3438-24.922c6.3828 6.3828 10.305 15.176 10.305 24.922 0 9.6875-3.9219 18.48-10.305 24.863-6.3828 6.3828-15.23 10.359-24.922 10.359-9.6875 0-18.48-3.9766-24.863-10.359-6.3828-6.3828-10.359-15.176-10.359-24.863 0-9.7422 3.9766-18.535 10.359-24.922 6.3281-6.3828 15.176-10.305 24.863-10.305 9.7422 0 18.535 3.9219 24.922 10.305zm-38.191 282.8c2.8555 1.2305 5.4883 3.0234 7.6719 5.207l0.054688 0.054687c4.4805 4.4805 7.2812 10.695 7.2812 17.527s-2.8008 13.047-7.2812 17.527h-0.054688c-4.4805 4.4805-10.695 7.2812-17.527 7.2812-6.832 0-13.047-2.7422-17.527-7.2812-3.1914-3.1914-5.543-7.2227-6.6094-11.703h-29.176c-3.1914 0-5.8242-2.6328-5.8242-5.8242 0-3.2461 2.6328-5.8242 5.8242-5.8242h29.176c1.0625-4.5352 3.4141-8.5664 6.6094-11.703v-0.054687c4.1445-4.0898 9.6875-6.7773 15.848-7.2227l14.672-54.77c0.55859-2.6875 2.9102-4.7031 5.7109-4.7031h14.223c4.1445-11.816 10.863-22.398 19.543-31.078 14.84-14.84 35.391-24.023 58.016-24.023 2.8008 0 5.543 0.11328 8.2891 0.39063v-76.328c0-3.1914 2.6328-5.8242 5.8242-5.8242h17.695c3.2461 0 5.8242 2.6328 5.8242 5.8242 0 3.2461-2.5742 5.8789-5.8242 5.8789h-11.871v72.52c14.672 3.6406 27.777 11.258 38.137 21.559 14.84 14.895 24.078 35.391 24.078 58.07 0 22.68-9.2383 43.176-24.078 58.07-14.84 14.84-35.391 24.023-58.07 24.023-22.625 0-43.176-9.1836-58.016-24.023-14.895-14.895-24.078-35.391-24.078-58.07 0-5.207 0.50391-10.359 1.457-15.289h-6.6641l-13.328 49.785zm-0.55859 13.441c-2.3516-2.3516-5.6562-3.8086-9.2969-3.8086-3.6406 0-6.9453 1.457-9.2969 3.8086h-0.054688c-2.3516 2.4062-3.8086 5.6562-3.8086 9.3516 0 3.6406 1.457 6.9453 3.8086 9.2969h0.054688c2.3516 2.4062 5.6562 3.8633 9.2969 3.8633 3.6406 0 6.9453-1.457 9.3516-3.8633 2.3516-2.3516 3.8086-5.6562 3.8086-9.2969 0-3.6953-1.457-6.9453-3.8086-9.3516zm151.03-97.719c-12.77-12.77-30.352-20.664-49.84-20.664-19.434 0-37.07 7.8945-49.785 20.664-12.77 12.711-20.609 30.352-20.609 49.785 0 19.434 7.8398 37.07 20.609 49.785 12.711 12.77 30.352 20.664 49.785 20.664 19.488 0 37.07-7.8945 49.84-20.664 12.711-12.711 20.609-30.352 20.609-49.785 0-19.434-7.8945-37.07-20.609-49.785z"/>
  <use x="70" y="560.839844" xlink:href="#t"/>
  <use x="70.207031" y="560.839844" xlink:href="#c"/>
  <use x="70.34375" y="560.839844" xlink:href="#a"/>
  <use x="70.535156" y="560.839844" xlink:href="#f"/>
  <use x="70.722656" y="560.839844" xlink:href="#b"/>
  <use x="70.855469" y="560.839844" xlink:href="#a"/>
  <use x="71.046875" y="560.839844" xlink:href="#e"/>
  <use x="71.34375" y="560.839844" xlink:href="#i"/>
  <use x="71.542969" y="560.839844" xlink:href="#h"/>
  <use x="71.824219" y="560.839844" xlink:href="#g"/>
  <use x="72.058594" y="560.839844" xlink:href="#f"/>
  <use x="72.246094" y="560.839844" xlink:href="#e"/>
  <use x="72.449219" y="560.839844" xlink:href="#s"/>
  <use x="70" y="561.121094" xlink:href="#r"/>
  <use x="70.121094" y="561.121094" xlink:href="#c"/>
  <use x="70.261719" y="561.121094" xlink:href="#d"/>
  <use x="70.453125" y="561.121094" xlink:href="#q"/>
  <use x="70.839844" y="561.121094" xlink:href="#b"/>
  <use x="70.976562" y="561.121094" xlink:href="#p"/>
  <use x="71.175781" y="561.121094" xlink:href="#a"/>
  <use x="71.460938" y="561.121094" xlink:href="#o"/>
  <use x="71.695312" y="561.121094" xlink:href="#d"/>
  <use x="71.890625" y="561.121094" xlink:href="#n"/>
  <use x="72.089844" y="561.121094" xlink:href="#m"/>
  <use x="72.386719" y="561.121094" xlink:href="#l"/>
  <use x="72.589844" y="561.121094" xlink:href="#c"/>
  <use x="72.726562" y="561.121094" xlink:href="#d"/>
  <use x="72.921875" y="561.121094" xlink:href="#k"/>
  <use x="73.015625" y="561.121094" xlink:href="#a"/>
  <use x="73.207031" y="561.121094" xlink:href="#j"/>
  <use x="73.371094" y="561.121094" xlink:href="#b"/>
 </g>
</svg>
