<?xml version="1.0" encoding="UTF-8"?>
<svg width="700pt" height="700pt" version="1.1" viewBox="0 0 700 700" xmlns="http://www.w3.org/2000/svg" xmlns:xlink="http://www.w3.org/1999/xlink">
 <defs>
  <symbol id="t" overflow="visible">
   <path d="m0.1875-0.015625c-0.011719 0.011719-0.023438 0.015625-0.03125 0.015625h-0.03125c-0.03125 0-0.058594-0.0039062-0.078125-0.015625-0.023438-0.019531-0.03125-0.046875-0.03125-0.078125 0-0.039062 0.0078125-0.066406 0.03125-0.078125 0.019531-0.019531 0.046875-0.03125 0.078125-0.03125h0.03125c0.007812 0 0.019531 0.007813 0.03125 0.015625v0.03125h-0.03125c-0.011719-0.007812-0.023438-0.015625-0.03125-0.015625-0.023438 0-0.039062 0.007813-0.046875 0.015625-0.011719 0.011719-0.015625 0.03125-0.015625 0.0625 0 0.023438 0.0039062 0.039062 0.015625 0.046875 0.0078125 0.011719 0.023437 0.015625 0.046875 0.015625h0.03125c0.007812-0.0078125 0.019531-0.015625 0.03125-0.015625z"/>
  </symbol>
  <symbol id="c" overflow="visible">
   <path d="m0.14062-0.10938h-0.015625c0-0.007813-0.007812-0.015625-0.015625-0.015625-0.011719 0-0.023438 0.007812-0.03125 0.015625v0.046875 0.0625h-0.0625v-0.15625h0.0625v0.03125c0-0.007812 0.0039062-0.015625 0.015625-0.015625 0.007812-0.007813 0.019531-0.015625 0.03125-0.015625h0.015625z"/>
  </symbol>
  <symbol id="a" overflow="visible">
   <path d="m0.17188-0.078125v0.015625h-0.10938v0.03125h0.046875 0.03125c0.007813-0.0078125 0.019531-0.015625 0.03125-0.015625v0.03125c-0.011719 0.011719-0.023437 0.015625-0.03125 0.015625h-0.046875c-0.023438 0-0.042969-0.0039062-0.0625-0.015625-0.011719-0.019531-0.015625-0.039062-0.015625-0.0625 0-0.019531 0.0039062-0.035156 0.015625-0.046875 0.019531-0.019531 0.039062-0.03125 0.0625-0.03125 0.019531 0 0.035156 0.011719 0.046875 0.03125 0.019531 0.011719 0.03125 0.027344 0.03125 0.046875zm-0.046875-0.015625c0-0.007812-0.007812-0.015625-0.015625-0.015625 0-0.007813-0.007813-0.015625-0.015625-0.015625-0.011719 0-0.023438 0.007812-0.03125 0.015625v0.015625z"/>
  </symbol>
  <symbol id="f" overflow="visible">
   <path d="m0.09375-0.0625h-0.03125v0.015625 0.015625h0.015625 0.03125c0.007813-0.0078125 0.015625-0.019531 0.015625-0.03125zm0.078125-0.03125v0.09375h-0.046875v-0.015625c-0.011719 0-0.023438 0.0078125-0.03125 0.015625h-0.03125-0.03125c-0.011719-0.0078125-0.015625-0.023438-0.015625-0.046875 0-0.019531 0.0039062-0.03125 0.015625-0.03125 0.0078125-0.0078125 0.03125-0.015625 0.0625-0.015625h0.03125c0-0.007812-0.007812-0.015625-0.015625-0.015625-0.011719-0.007813-0.023438-0.015625-0.03125-0.015625h-0.03125c-0.011719 0-0.015625 0.007812-0.015625 0.015625v-0.046875h0.03125 0.03125c0.019531 0 0.035156 0.007812 0.046875 0.015625 0.019531 0.011719 0.03125 0.027344 0.03125 0.046875z"/>
  </symbol>
  <symbol id="b" overflow="visible">
   <path d="m0.078125-0.20312v0.046875h0.046875v0.03125h-0.046875v0.078125 0.015625h0.015625 0.03125v0.03125h-0.046875c-0.023438 0-0.039062-0.0039062-0.046875-0.015625v-0.03125-0.078125h-0.03125v-0.03125h0.03125v-0.046875z"/>
  </symbol>
  <symbol id="e" overflow="visible">
   <path d="m0.125-0.125v-0.09375h0.046875v0.21875h-0.046875v-0.015625s-0.007812 0.0078125-0.015625 0.015625h-0.03125c-0.023438 0-0.039062-0.0039062-0.046875-0.015625-0.011719-0.019531-0.015625-0.039062-0.015625-0.0625 0-0.019531 0.0039062-0.035156 0.015625-0.046875 0.0078125-0.019531 0.023438-0.03125 0.046875-0.03125 0.0078125 0 0.019531 0.007812 0.03125 0.015625 0.007813 0 0.015625 0.007813 0.015625 0.015625zm-0.03125 0.09375h0.015625c0.007813-0.0078125 0.015625-0.023438 0.015625-0.046875 0-0.0078125-0.007812-0.019531-0.015625-0.03125 0-0.007813-0.007813-0.015625-0.015625-0.015625-0.011719 0-0.023438 0.007812-0.03125 0.015625v0.03125 0.046875h0.03125z"/>
  </symbol>
  <symbol id="i" overflow="visible">
   <path d="m0.10938-0.03125h0.015625c0.007812-0.0078125 0.015625-0.023438 0.015625-0.046875 0-0.0078125-0.007813-0.019531-0.015625-0.03125 0-0.007813-0.007812-0.015625-0.015625-0.015625-0.011719 0-0.023438 0.007812-0.03125 0.015625v0.03125 0.03125c0.0078125 0.011719 0.019531 0.015625 0.03125 0.015625zm-0.03125-0.09375c0-0.007812 0.0039062-0.015625 0.015625-0.015625 0.007812-0.007813 0.019531-0.015625 0.03125-0.015625 0.019531 0 0.035156 0.011719 0.046875 0.03125 0.007813 0.011719 0.015625 0.027344 0.015625 0.046875 0 0.023438-0.007812 0.042969-0.015625 0.0625-0.011719 0.011719-0.027344 0.015625-0.046875 0.015625h-0.03125c-0.011719-0.0078125-0.015625-0.015625-0.015625-0.015625v0.015625h-0.0625v-0.21875h0.0625z"/>
  </symbol>
  <symbol id="h" overflow="visible">
   <path d="m0-0.15625h0.046875l0.046875 0.10938 0.03125-0.10938h0.046875l-0.0625 0.17188c0 0.019531-0.007813 0.03125-0.015625 0.03125-0.011719 0.0078125-0.023438 0.015625-0.03125 0.015625h-0.03125v-0.03125h0.015625c0.0078125 0 0.015625-0.0078125 0.015625-0.015625v-0.015625z"/>
  </symbol>
  <symbol id="g" overflow="visible">
   <path d="m0.03125-0.20312h0.046875v0.078125h0.078125v-0.078125h0.046875v0.20312h-0.046875v-0.09375h-0.078125v0.09375h-0.046875z"/>
  </symbol>
  <symbol id="s" overflow="visible">
   <path d="m0.015625-0.15625h0.0625v0.15625h-0.0625zm0-0.0625h0.0625v0.046875h-0.0625z"/>
  </symbol>
  <symbol id="r" overflow="visible">
   <path d="m0.125-0.21875v0.046875h-0.03125-0.015625v0.015625h0.046875v0.03125h-0.046875v0.125h-0.046875v-0.125h-0.03125v-0.03125h0.03125c0-0.019531 0.0039062-0.035156 0.015625-0.046875 0.0078125-0.007813 0.023438-0.015625 0.046875-0.015625z"/>
  </symbol>
  <symbol id="d" overflow="visible">
   <path d="m0.09375-0.125c-0.011719 0-0.023438 0.007812-0.03125 0.015625v0.03125 0.046875h0.03125 0.015625c0.007813-0.0078125 0.015625-0.023438 0.015625-0.046875 0-0.0078125-0.007812-0.019531-0.015625-0.03125 0-0.007813-0.007813-0.015625-0.015625-0.015625zm0-0.03125c0.03125 0 0.050781 0.011719 0.0625 0.03125 0.007812 0.011719 0.015625 0.027344 0.015625 0.046875 0 0.023438-0.007813 0.042969-0.015625 0.0625-0.011719 0.011719-0.03125 0.015625-0.0625 0.015625-0.023438 0-0.042969-0.0039062-0.0625-0.015625-0.011719-0.019531-0.015625-0.039062-0.015625-0.0625 0-0.019531 0.0039062-0.035156 0.015625-0.046875 0.019531-0.019531 0.039062-0.03125 0.0625-0.03125z"/>
  </symbol>
  <symbol id="q" overflow="visible">
   <path d="m0.17188-0.125c0-0.007812 0.003906-0.015625 0.015625-0.015625 0.007812-0.007813 0.019531-0.015625 0.03125-0.015625 0.007812 0 0.019531 0.007812 0.03125 0.015625 0.007812 0.011719 0.015625 0.027344 0.015625 0.046875v0.09375h-0.046875v-0.078125-0.015625c0-0.007812-0.007812-0.015625-0.015625-0.015625v-0.015625c-0.011719 0-0.023437 0.007812-0.03125 0.015625v0.03125 0.078125h-0.046875v-0.078125c0-0.019531-0.007812-0.03125-0.015625-0.03125 0-0.007813-0.007813-0.015625-0.015625-0.015625 0 0-0.0078125 0.007812-0.015625 0.015625v0.03125 0.078125h-0.0625v-0.15625h0.0625v0.03125c0-0.007812 0.0039062-0.015625 0.015625-0.015625 0.007812-0.007813 0.019531-0.015625 0.03125-0.015625 0.007812 0 0.015625 0.007812 0.015625 0.015625 0.007813 0 0.019531 0.007813 0.03125 0.015625z"/>
  </symbol>
  <symbol id="p" overflow="visible">
   <path d="m0.17188-0.09375v0.09375h-0.046875v-0.0625-0.03125-0.015625h-0.015625v-0.015625c-0.011719 0-0.023438 0.007812-0.03125 0.015625v0.03125 0.078125h-0.0625v-0.21875h0.0625v0.09375c0-0.007812 0.0039062-0.015625 0.015625-0.015625 0.007812-0.007813 0.019531-0.015625 0.03125-0.015625 0.019531 0 0.03125 0.007812 0.03125 0.015625 0.007812 0.011719 0.015625 0.027344 0.015625 0.046875z"/>
  </symbol>
  <symbol id="o" overflow="visible">
   <path d="m0.03125-0.20312h0.046875l0.078125 0.14062v-0.14062h0.046875v0.20312h-0.046875l-0.078125-0.14062v0.14062h-0.046875z"/>
  </symbol>
  <symbol id="n" overflow="visible">
   <path d="m0.015625-0.0625v-0.09375h0.046875v0.015625 0.03125 0.03125 0.03125h0.015625v0.015625h0.015625c0.007812 0 0.015625-0.0039062 0.015625-0.015625 0.007813-0.0078125 0.015625-0.019531 0.015625-0.03125v-0.078125h0.046875v0.15625h-0.046875v-0.015625c-0.011719 0-0.023438 0.0078125-0.03125 0.015625h-0.015625c-0.023438 0-0.039062-0.0039062-0.046875-0.015625-0.011719-0.0078125-0.015625-0.023438-0.015625-0.046875z"/>
  </symbol>
  <symbol id="m" overflow="visible">
   <path d="m0.17188-0.09375v0.09375h-0.046875v-0.0625-0.03125-0.015625h-0.015625v-0.015625c-0.011719 0-0.023438 0.007812-0.03125 0.015625v0.03125 0.078125h-0.0625v-0.15625h0.0625v0.03125c0-0.007812 0.0039062-0.015625 0.015625-0.015625 0.007812-0.007813 0.019531-0.015625 0.03125-0.015625 0.019531 0 0.03125 0.007812 0.03125 0.015625 0.007812 0.011719 0.015625 0.027344 0.015625 0.046875z"/>
  </symbol>
  <symbol id="l" overflow="visible">
   <path d="m0.03125-0.20312h0.078125c0.03125 0 0.050781 0.007813 0.0625 0.015625 0.007813 0.011719 0.015625 0.027344 0.015625 0.046875 0 0.023437-0.007812 0.042969-0.015625 0.0625-0.011719 0.011719-0.03125 0.015625-0.0625 0.015625h-0.03125v0.0625h-0.046875zm0.046875 0.03125v0.0625h0.03125 0.015625c0.007812-0.007813 0.015625-0.019531 0.015625-0.03125 0-0.007813-0.007813-0.015625-0.015625-0.015625 0-0.007812-0.007812-0.015625-0.015625-0.015625z"/>
  </symbol>
  <symbol id="k" overflow="visible">
   <path d="m0.015625-0.15625h0.0625v0.15625c0 0.019531-0.0078125 0.035156-0.015625 0.046875-0.011719 0.0078125-0.027344 0.015625-0.046875 0.015625h-0.03125v-0.03125h0.015625c0.0078125 0 0.015625-0.0078125 0.015625-0.015625v-0.015625zm0-0.0625h0.0625v0.046875h-0.0625z"/>
  </symbol>
  <symbol id="j" overflow="visible">
   <path d="m0.15625-0.15625v0.046875h-0.03125c0-0.007813-0.007812-0.015625-0.015625-0.015625-0.011719 0-0.023438 0.007812-0.03125 0.015625-0.011719 0.011719-0.015625 0.023438-0.015625 0.03125 0 0.011719 0.0039062 0.023438 0.015625 0.03125 0.0078125 0.011719 0.019531 0.015625 0.03125 0.015625h0.015625c0.007812-0.0078125 0.019531-0.015625 0.03125-0.015625v0.046875h-0.03125-0.03125c-0.023438 0-0.042969-0.0039062-0.0625-0.015625-0.011719-0.019531-0.015625-0.039062-0.015625-0.0625 0-0.019531 0.0039062-0.035156 0.015625-0.046875 0.019531-0.019531 0.039062-0.03125 0.0625-0.03125h0.03125 0.03125z"/>
  </symbol>
 </defs>
 <g>
  <path d="m293.11 505.68c2.9102 1.2891 5.4883 3.0781 7.6719 5.2656h0.054687c4.4805 4.5352 7.2812 10.695 7.2812 17.527 0 6.8867-2.8008 13.047-7.2812 17.586h-0.054687c-4.4805 4.4805-10.695 7.2812-17.527 7.2812s-13.047-2.8008-17.527-7.2812c-3.1914-3.1914-5.4883-7.2227-6.6094-11.703h-29.121c-3.2461 0-5.8789-2.6328-5.8789-5.8789 0-3.1914 2.6328-5.8242 5.8789-5.8242h29.121c1.1211-4.4805 3.4141-8.5117 6.6094-11.703 4.1445-4.1445 9.6875-6.832 15.848-7.2227l14.672-54.824c0.55859-2.6328 2.9102-4.6484 5.7695-4.6484h14.168c4.1445-11.816 10.863-22.398 19.543-31.078 14.84-14.84 35.391-24.023 58.07-24.023 5.0977 0 10.078 0.44922 14.953 1.3438v-77.055c0-3.2461 2.5742-5.8789 5.8242-5.8789h17.695c3.1914 0 5.8242 2.6328 5.8242 5.8789 0 3.1914-2.6328 5.8242-5.8242 5.8242h-11.871v74.312c11.984 4.0898 22.68 10.863 31.414 19.602 14.84 14.84 24.078 35.391 24.078 58.07s-9.2383 43.176-24.078 58.016c-14.84 14.895-35.391 24.078-58.016 24.078-22.68 0-43.23-9.1836-58.07-24.078-14.895-14.84-24.078-35.336-24.078-58.016 0-5.2656 0.50391-10.359 1.457-15.344h-6.6641l-13.328 49.785zm150.47-84.281c-12.77-12.711-30.352-20.609-49.785-20.609-19.488 0-37.07 7.8945-49.84 20.609-12.77 12.77-20.609 30.352-20.609 49.84 0 19.434 7.8398 37.07 20.609 49.785 12.77 12.77 30.352 20.664 49.84 20.664 19.434 0 37.016-7.8945 49.785-20.664 12.77-12.711 20.609-30.352 20.609-49.785 0-19.488-7.8398-37.07-20.609-49.84zm-151.03 97.777c-2.3516-2.4062-5.6562-3.8633-9.2969-3.8633s-6.9453 1.457-9.2969 3.8633h-0.054687c-2.3516 2.3516-3.8086 5.6562-3.8086 9.2969 0 3.6953 1.457 6.9453 3.8086 9.3516h0.054687c2.3516 2.3516 5.6562 3.8086 9.2969 3.8086s6.9453-1.457 9.3516-3.8086c2.3516-2.4062 3.8086-5.6562 3.8086-9.3516 0-3.6406-1.457-6.9453-3.8086-9.2969zm-38.695-458.08c-2.8008-1.625-3.7539-5.1523-2.1289-7.9531 1.5664-2.7422 5.1523-3.7539 7.8945-2.1289l11.535 6.6641c2.8008 1.625 3.7539 5.1523 2.1836 7.9531-1.625 2.7422-5.1523 3.6953-7.9531 2.1289l-11.535-6.6641zm72.465 80.191v-24.586l-13.664-13.664 8.2891-8.2305 11.199 11.258 11.258-11.258 8.2891 8.2305-13.664 13.664v24.586h15.344c1.0625-6.3281 3.9766-11.535 7.0547-17.191 4.1445-7.5039 8.8477-15.961 8.8477-29.008 0-10.246-4.1992-19.543-10.863-26.207-6.7188-6.7188-16.016-10.863-26.266-10.863-10.191 0-19.488 4.1445-26.207 10.863-6.6641 6.6641-10.863 15.961-10.863 26.207 0 13.047 4.7031 21.504 8.8477 29.008 3.0781 5.6562 5.9922 10.863 7.0547 17.191zm26.434 11.648h-41.16c0.054687 1.793 0.22266 3.5273 0.44922 5.207h40.266c0.22266-1.6797 0.39062-3.4141 0.44922-5.207zm-3.9219 16.855h-33.32c2.8008 4.7031 7.7852 7.8398 16.633 7.8398 8.9023 0 13.887-3.1367 16.688-7.8398zm-16.688 19.488c-14.391 0-22.566-5.8789-27.273-14.672-4.2578-8.0078-5.0977-18.09-5.0977-28 0-5.8789-2.9102-11.09-6.1055-16.91-4.8164-8.7344-10.246-18.594-10.246-34.609 0-13.496 5.4883-25.648 14.281-34.496 8.8477-8.793 21-14.281 34.441-14.281 13.496 0 25.648 5.4883 34.496 14.281 8.793 8.8477 14.281 21 14.281 34.496 0 16.016-5.4336 25.871-10.246 34.609-3.1914 5.8242-6.1055 11.031-6.1055 16.91 0 9.9102-0.83984 19.992-5.0977 28-4.7031 8.793-12.938 14.672-27.328 14.672zm38.527-168.05c1.625-2.7422 5.207-3.6953 7.9531-2.0703 2.8008 1.5664 3.7539 5.1523 2.1289 7.9531l-6.6641 11.535c-1.625 2.7422-5.1523 3.6953-7.9531 2.1289-2.8008-1.625-3.7539-5.207-2.1289-7.9531zm48.609 72.52c3.1914 0 5.8242 2.6328 5.8242 5.8789 0 3.1914-2.6328 5.8242-5.8242 5.8242h-13.328c-3.2461 0-5.8789-2.6328-5.8789-5.8242 0-3.2461 2.6328-5.8789 5.8789-5.8789zm-14.559-42.727c2.7422-1.625 6.3281-0.61719 7.8945 2.1289 1.625 2.8008 0.67188 6.3281-2.1289 7.9531l-11.535 6.6641c-2.8008 1.5664-6.3281 0.61719-7.9531-2.1289-1.5664-2.8008-0.61719-6.3281 2.1836-7.9531l11.535-6.6641zm-121.13-23.91c-1.625-2.8008-0.67188-6.3828 2.1289-7.9531 2.7422-1.625 6.3281-0.67188 7.9531 2.0703l6.6641 11.594c1.5664 2.7422 0.67187 6.3281-2.1289 7.9531-2.8008 1.5664-6.3281 0.61719-7.9531-2.1289zm42.727-14.617c0-3.1914 2.6328-5.8242 5.8242-5.8242 3.2461 0 5.8789 2.6328 5.8789 5.8242v13.328c0 3.2461-2.6328 5.8789-5.8789 5.8789-3.1914 0-5.8242-2.6328-5.8242-5.8789zm-81.258 92.961c-3.1914 0-5.8242-2.6328-5.8242-5.8242 0-3.2461 2.6328-5.8789 5.8242-5.8789h13.328c3.2461 0 5.8242 2.6328 5.8242 5.8789 0 3.1914-2.5742 5.8242-5.8242 5.8242zm9.7422 411.71c-1.3984 0-2.9102-0.16797-4.3672-0.50391h-0.054688l-0.78516-0.22266c-5.7695-1.5664-10.359-5.3203-13.16-10.137-2.8008-4.8164-3.7539-10.695-2.1836-16.465l22.008-82.266c1.625-6.0469 4.8711-10.754 9.8008-14 4.6484-3.0234 10.695-4.5938 18.258-4.5938h37.688c2.1836 0 3.8086-0.72656 4.9297-1.625 1.2891-1.1211 1.9023-2.4648 1.9023-3.4141v-26.375l-38.191 22.062c-5.207 3.0234-11.145 3.6406-16.52 2.1836-5.3203-1.3984-10.191-4.9297-13.16-10.137-3.0234-5.207-3.6406-11.09-2.1836-16.465 1.3984-5.375 4.9297-10.191 10.078-13.215h0.054687l24.414-13.887c-1.625-0.50391-3.0781-1.2305-4.4258-2.1289-4.5938-3.0234-7.3359-7.7266-7.3359-14.672v-64.68c0-5.9922 2.4062-11.48 6.3281-15.398 0.16797-0.11328 0.28125-0.22266 0.39062-0.33594 3.9219-3.6953 9.1836-5.9922 15.008-5.9922v-0.054688c5.9922 0 11.426 2.4648 15.344 6.3828h0.054687c3.9219 3.9219 6.3281 9.3516 6.3281 15.398v40.375h52.977c7.3906 0 13.609 2.9102 18.09 7.8398 4.3125 4.7617 6.832 11.426 6.832 19.098h-0.054688l0.054688 70.84c-3.0234-0.28125-6.0469-0.44922-9.1289-0.44922h-2.5195v-70.391c0-4.7617-1.3984-8.6797-3.8086-11.312-2.2383-2.4648-5.4883-3.9219-9.4648-3.9219h-58.801c-3.1914 0-5.8242-2.6328-5.8242-5.8242v-46.258c0-2.8008-1.1211-5.3203-2.9688-7.168-1.793-1.793-4.3125-2.9102-7.1133-2.9102v-0.054688c-2.6875 0-5.0977 1.0625-6.8867 2.7422l-0.22266 0.22266c-1.8477 1.8477-2.9688 4.3672-2.9688 7.168v64.68c0 2.5195 0.78516 4.0898 2.0703 4.9844 1.9023 1.2305 4.9844 1.7344 8.625 1.7344h8.457 0.55859 56.113c3.1914 0 5.8242 2.6328 5.8242 5.8242s-2.6328 5.8242-5.8242 5.8242h-28.504v54.266c0 3.8633-2.0156 8.793-6.0469 12.266-3.0234 2.5742-7.2227 4.4258-12.488 4.4258h-37.688c-5.207 0-9.1289 0.89453-11.871 2.6875-2.4062 1.625-4.0312 4.0312-4.9297 7.2812l-22.008 82.207-0.054688 0.16797c-0.67187 2.6328-0.22266 5.3203 1.0625 7.5039 1.2305 2.2383 3.3594 3.9219 5.9922 4.7031h0.11328c2.6875 0.72656 5.4336 0.28125 7.6719-1.0078 2.2383-1.2891 3.9766-3.4141 4.7031-6.1055l17.863-66.863c0.72656-2.5742 3.0781-4.3125 5.6562-4.3125h30.465c-2.1836 3.6953-4.1445 7.6172-5.7695 11.648h-20.215l-16.07 60.031c-5.9375 1.2305-11.199 4.1992-15.289 8.2891-2.9102 2.9102-5.2656 6.4414-6.832 10.305zm59.359-187.49-39.426 22.398c-2.4062 1.3984-4.0312 3.6406-4.7031 6.1602-0.67188 2.4648-0.39062 5.2656 1.0078 7.6719 1.3438 2.4062 3.5859 3.9766 6.1055 4.6484 2.5195 0.67187 5.2656 0.39062 7.6719-1.0078l44.016-25.426v-14.449h-14.672zm77.113-83.609c0-6.4961-2.6328-12.375-6.8867-16.688-4.2578-4.2578-10.137-6.8867-16.688-6.8867-6.4961 0-12.375 2.6328-16.633 6.8867-4.2578 4.3125-6.8867 10.191-6.8867 16.688s2.6328 12.434 6.8867 16.633v0.054687c4.2578 4.2578 10.137 6.8867 16.633 6.8867 6.5508 0 12.434-2.6328 16.688-6.8867v-0.054687c4.2578-4.1992 6.8867-10.137 6.8867-16.633zm1.3438-24.922c6.3828 6.3828 10.305 15.176 10.305 24.922 0 9.6875-3.9219 18.48-10.305 24.863v0.054687c-6.3828 6.3828-15.176 10.305-24.922 10.305-9.6875 0-18.48-3.9219-24.863-10.305v-0.054687c-6.3828-6.3828-10.359-15.176-10.359-24.863 0-9.7422 3.9766-18.535 10.359-24.922 6.3281-6.3828 15.176-10.305 24.863-10.305 9.7422 0 18.535 3.9219 24.922 10.305z"/>
  <use x="70" y="560.839844" xlink:href="#t"/>
  <use x="70.207031" y="560.839844" xlink:href="#c"/>
  <use x="70.34375" y="560.839844" xlink:href="#a"/>
  <use x="70.535156" y="560.839844" xlink:href="#f"/>
  <use x="70.722656" y="560.839844" xlink:href="#b"/>
  <use x="70.855469" y="560.839844" xlink:href="#a"/>
  <use x="71.046875" y="560.839844" xlink:href="#e"/>
  <use x="71.34375" y="560.839844" xlink:href="#i"/>
  <use x="71.542969" y="560.839844" xlink:href="#h"/>
  <use x="71.824219" y="560.839844" xlink:href="#g"/>
  <use x="72.058594" y="560.839844" xlink:href="#f"/>
  <use x="72.246094" y="560.839844" xlink:href="#e"/>
  <use x="72.449219" y="560.839844" xlink:href="#s"/>
  <use x="70" y="561.121094" xlink:href="#r"/>
  <use x="70.121094" y="561.121094" xlink:href="#c"/>
  <use x="70.261719" y="561.121094" xlink:href="#d"/>
  <use x="70.453125" y="561.121094" xlink:href="#q"/>
  <use x="70.839844" y="561.121094" xlink:href="#b"/>
  <use x="70.976562" y="561.121094" xlink:href="#p"/>
  <use x="71.175781" y="561.121094" xlink:href="#a"/>
  <use x="71.460938" y="561.121094" xlink:href="#o"/>
  <use x="71.695312" y="561.121094" xlink:href="#d"/>
  <use x="71.890625" y="561.121094" xlink:href="#n"/>
  <use x="72.089844" y="561.121094" xlink:href="#m"/>
  <use x="72.386719" y="561.121094" xlink:href="#l"/>
  <use x="72.589844" y="561.121094" xlink:href="#c"/>
  <use x="72.726562" y="561.121094" xlink:href="#d"/>
  <use x="72.921875" y="561.121094" xlink:href="#k"/>
  <use x="73.015625" y="561.121094" xlink:href="#a"/>
  <use x="73.207031" y="561.121094" xlink:href="#j"/>
  <use x="73.371094" y="561.121094" xlink:href="#b"/>
 </g>
</svg>
