<?xml version="1.0" encoding="UTF-8"?>
<svg width="700pt" height="700pt" version="1.1" viewBox="0 0 700 700" xmlns="http://www.w3.org/2000/svg" xmlns:xlink="http://www.w3.org/1999/xlink">
 <defs>
  <symbol id="t" overflow="visible">
   <path d="m0.1875-0.015625c-0.011719 0.011719-0.023438 0.015625-0.03125 0.015625h-0.03125c-0.03125 0-0.058594-0.0039062-0.078125-0.015625-0.023438-0.019531-0.03125-0.046875-0.03125-0.078125 0-0.039062 0.0078125-0.066406 0.03125-0.078125 0.019531-0.019531 0.046875-0.03125 0.078125-0.03125h0.03125c0.007812 0 0.019531 0.007813 0.03125 0.015625v0.03125h-0.03125c-0.011719-0.007812-0.023438-0.015625-0.03125-0.015625-0.023438 0-0.039062 0.007813-0.046875 0.015625-0.011719 0.011719-0.015625 0.03125-0.015625 0.0625 0 0.023438 0.0039062 0.039062 0.015625 0.046875 0.0078125 0.011719 0.023437 0.015625 0.046875 0.015625h0.03125c0.007812-0.0078125 0.019531-0.015625 0.03125-0.015625z"/>
  </symbol>
  <symbol id="c" overflow="visible">
   <path d="m0.14062-0.10938h-0.015625c0-0.007813-0.007812-0.015625-0.015625-0.015625-0.011719 0-0.023438 0.007812-0.03125 0.015625v0.046875 0.0625h-0.0625v-0.15625h0.0625v0.03125c0-0.007812 0.0039062-0.015625 0.015625-0.015625 0.007812-0.007813 0.019531-0.015625 0.03125-0.015625h0.015625z"/>
  </symbol>
  <symbol id="a" overflow="visible">
   <path d="m0.17188-0.078125v0.015625h-0.10938v0.03125h0.046875 0.03125c0.007813-0.0078125 0.019531-0.015625 0.03125-0.015625v0.03125c-0.011719 0.011719-0.023437 0.015625-0.03125 0.015625h-0.046875c-0.023438 0-0.042969-0.0039062-0.0625-0.015625-0.011719-0.019531-0.015625-0.039062-0.015625-0.0625 0-0.019531 0.0039062-0.035156 0.015625-0.046875 0.019531-0.019531 0.039062-0.03125 0.0625-0.03125 0.019531 0 0.035156 0.011719 0.046875 0.03125 0.019531 0.011719 0.03125 0.027344 0.03125 0.046875zm-0.046875-0.015625c0-0.007812-0.007812-0.015625-0.015625-0.015625 0-0.007813-0.007813-0.015625-0.015625-0.015625-0.011719 0-0.023438 0.007812-0.03125 0.015625v0.015625z"/>
  </symbol>
  <symbol id="f" overflow="visible">
   <path d="m0.09375-0.0625h-0.03125v0.015625 0.015625h0.015625 0.03125c0.007813-0.0078125 0.015625-0.019531 0.015625-0.03125zm0.078125-0.03125v0.09375h-0.046875v-0.015625c-0.011719 0-0.023438 0.0078125-0.03125 0.015625h-0.03125-0.03125c-0.011719-0.0078125-0.015625-0.023438-0.015625-0.046875 0-0.019531 0.0039062-0.03125 0.015625-0.03125 0.0078125-0.0078125 0.03125-0.015625 0.0625-0.015625h0.03125c0-0.007812-0.007812-0.015625-0.015625-0.015625-0.011719-0.007813-0.023438-0.015625-0.03125-0.015625h-0.03125c-0.011719 0-0.015625 0.007812-0.015625 0.015625v-0.046875h0.03125 0.03125c0.019531 0 0.035156 0.007812 0.046875 0.015625 0.019531 0.011719 0.03125 0.027344 0.03125 0.046875z"/>
  </symbol>
  <symbol id="b" overflow="visible">
   <path d="m0.078125-0.20312v0.046875h0.046875v0.03125h-0.046875v0.078125 0.015625h0.015625 0.03125v0.03125h-0.046875c-0.023438 0-0.039062-0.0039062-0.046875-0.015625v-0.03125-0.078125h-0.03125v-0.03125h0.03125v-0.046875z"/>
  </symbol>
  <symbol id="e" overflow="visible">
   <path d="m0.125-0.125v-0.09375h0.046875v0.21875h-0.046875v-0.015625s-0.007812 0.0078125-0.015625 0.015625h-0.03125c-0.023438 0-0.039062-0.0039062-0.046875-0.015625-0.011719-0.019531-0.015625-0.039062-0.015625-0.0625 0-0.019531 0.0039062-0.035156 0.015625-0.046875 0.0078125-0.019531 0.023438-0.03125 0.046875-0.03125 0.0078125 0 0.019531 0.007812 0.03125 0.015625 0.007813 0 0.015625 0.007813 0.015625 0.015625zm-0.03125 0.09375h0.015625c0.007813-0.0078125 0.015625-0.023438 0.015625-0.046875 0-0.0078125-0.007812-0.019531-0.015625-0.03125 0-0.007813-0.007813-0.015625-0.015625-0.015625-0.011719 0-0.023438 0.007812-0.03125 0.015625v0.03125 0.046875h0.03125z"/>
  </symbol>
  <symbol id="i" overflow="visible">
   <path d="m0.10938-0.03125h0.015625c0.007812-0.0078125 0.015625-0.023438 0.015625-0.046875 0-0.0078125-0.007813-0.019531-0.015625-0.03125 0-0.007813-0.007812-0.015625-0.015625-0.015625-0.011719 0-0.023438 0.007812-0.03125 0.015625v0.03125 0.03125c0.0078125 0.011719 0.019531 0.015625 0.03125 0.015625zm-0.03125-0.09375c0-0.007812 0.0039062-0.015625 0.015625-0.015625 0.007812-0.007813 0.019531-0.015625 0.03125-0.015625 0.019531 0 0.035156 0.011719 0.046875 0.03125 0.007813 0.011719 0.015625 0.027344 0.015625 0.046875 0 0.023438-0.007812 0.042969-0.015625 0.0625-0.011719 0.011719-0.027344 0.015625-0.046875 0.015625h-0.03125c-0.011719-0.0078125-0.015625-0.015625-0.015625-0.015625v0.015625h-0.0625v-0.21875h0.0625z"/>
  </symbol>
  <symbol id="h" overflow="visible">
   <path d="m0-0.15625h0.046875l0.046875 0.10938 0.03125-0.10938h0.046875l-0.0625 0.17188c0 0.019531-0.007813 0.03125-0.015625 0.03125-0.011719 0.0078125-0.023438 0.015625-0.03125 0.015625h-0.03125v-0.03125h0.015625c0.0078125 0 0.015625-0.0078125 0.015625-0.015625v-0.015625z"/>
  </symbol>
  <symbol id="g" overflow="visible">
   <path d="m0.03125-0.20312h0.046875v0.078125h0.078125v-0.078125h0.046875v0.20312h-0.046875v-0.09375h-0.078125v0.09375h-0.046875z"/>
  </symbol>
  <symbol id="s" overflow="visible">
   <path d="m0.015625-0.15625h0.0625v0.15625h-0.0625zm0-0.0625h0.0625v0.046875h-0.0625z"/>
  </symbol>
  <symbol id="r" overflow="visible">
   <path d="m0.125-0.21875v0.046875h-0.03125-0.015625v0.015625h0.046875v0.03125h-0.046875v0.125h-0.046875v-0.125h-0.03125v-0.03125h0.03125c0-0.019531 0.0039062-0.035156 0.015625-0.046875 0.0078125-0.007813 0.023438-0.015625 0.046875-0.015625z"/>
  </symbol>
  <symbol id="d" overflow="visible">
   <path d="m0.09375-0.125c-0.011719 0-0.023438 0.007812-0.03125 0.015625v0.03125 0.046875h0.03125 0.015625c0.007813-0.0078125 0.015625-0.023438 0.015625-0.046875 0-0.0078125-0.007812-0.019531-0.015625-0.03125 0-0.007813-0.007813-0.015625-0.015625-0.015625zm0-0.03125c0.03125 0 0.050781 0.011719 0.0625 0.03125 0.007812 0.011719 0.015625 0.027344 0.015625 0.046875 0 0.023438-0.007813 0.042969-0.015625 0.0625-0.011719 0.011719-0.03125 0.015625-0.0625 0.015625-0.023438 0-0.042969-0.0039062-0.0625-0.015625-0.011719-0.019531-0.015625-0.039062-0.015625-0.0625 0-0.019531 0.0039062-0.035156 0.015625-0.046875 0.019531-0.019531 0.039062-0.03125 0.0625-0.03125z"/>
  </symbol>
  <symbol id="q" overflow="visible">
   <path d="m0.17188-0.125c0-0.007812 0.003906-0.015625 0.015625-0.015625 0.007812-0.007813 0.019531-0.015625 0.03125-0.015625 0.007812 0 0.019531 0.007812 0.03125 0.015625 0.007812 0.011719 0.015625 0.027344 0.015625 0.046875v0.09375h-0.046875v-0.078125-0.015625c0-0.007812-0.007812-0.015625-0.015625-0.015625v-0.015625c-0.011719 0-0.023437 0.007812-0.03125 0.015625v0.03125 0.078125h-0.046875v-0.078125c0-0.019531-0.007812-0.03125-0.015625-0.03125 0-0.007813-0.007813-0.015625-0.015625-0.015625 0 0-0.0078125 0.007812-0.015625 0.015625v0.03125 0.078125h-0.0625v-0.15625h0.0625v0.03125c0-0.007812 0.0039062-0.015625 0.015625-0.015625 0.007812-0.007813 0.019531-0.015625 0.03125-0.015625 0.007812 0 0.015625 0.007812 0.015625 0.015625 0.007813 0 0.019531 0.007813 0.03125 0.015625z"/>
  </symbol>
  <symbol id="p" overflow="visible">
   <path d="m0.17188-0.09375v0.09375h-0.046875v-0.0625-0.03125-0.015625h-0.015625v-0.015625c-0.011719 0-0.023438 0.007812-0.03125 0.015625v0.03125 0.078125h-0.0625v-0.21875h0.0625v0.09375c0-0.007812 0.0039062-0.015625 0.015625-0.015625 0.007812-0.007813 0.019531-0.015625 0.03125-0.015625 0.019531 0 0.03125 0.007812 0.03125 0.015625 0.007812 0.011719 0.015625 0.027344 0.015625 0.046875z"/>
  </symbol>
  <symbol id="o" overflow="visible">
   <path d="m0.03125-0.20312h0.046875l0.078125 0.14062v-0.14062h0.046875v0.20312h-0.046875l-0.078125-0.14062v0.14062h-0.046875z"/>
  </symbol>
  <symbol id="n" overflow="visible">
   <path d="m0.015625-0.0625v-0.09375h0.046875v0.015625 0.03125 0.03125 0.03125h0.015625v0.015625h0.015625c0.007812 0 0.015625-0.0039062 0.015625-0.015625 0.007813-0.0078125 0.015625-0.019531 0.015625-0.03125v-0.078125h0.046875v0.15625h-0.046875v-0.015625c-0.011719 0-0.023438 0.0078125-0.03125 0.015625h-0.015625c-0.023438 0-0.039062-0.0039062-0.046875-0.015625-0.011719-0.0078125-0.015625-0.023438-0.015625-0.046875z"/>
  </symbol>
  <symbol id="m" overflow="visible">
   <path d="m0.17188-0.09375v0.09375h-0.046875v-0.0625-0.03125-0.015625h-0.015625v-0.015625c-0.011719 0-0.023438 0.007812-0.03125 0.015625v0.03125 0.078125h-0.0625v-0.15625h0.0625v0.03125c0-0.007812 0.0039062-0.015625 0.015625-0.015625 0.007812-0.007813 0.019531-0.015625 0.03125-0.015625 0.019531 0 0.03125 0.007812 0.03125 0.015625 0.007812 0.011719 0.015625 0.027344 0.015625 0.046875z"/>
  </symbol>
  <symbol id="l" overflow="visible">
   <path d="m0.03125-0.20312h0.078125c0.03125 0 0.050781 0.007813 0.0625 0.015625 0.007813 0.011719 0.015625 0.027344 0.015625 0.046875 0 0.023437-0.007812 0.042969-0.015625 0.0625-0.011719 0.011719-0.03125 0.015625-0.0625 0.015625h-0.03125v0.0625h-0.046875zm0.046875 0.03125v0.0625h0.03125 0.015625c0.007812-0.007813 0.015625-0.019531 0.015625-0.03125 0-0.007813-0.007813-0.015625-0.015625-0.015625 0-0.007812-0.007812-0.015625-0.015625-0.015625z"/>
  </symbol>
  <symbol id="k" overflow="visible">
   <path d="m0.015625-0.15625h0.0625v0.15625c0 0.019531-0.0078125 0.035156-0.015625 0.046875-0.011719 0.0078125-0.027344 0.015625-0.046875 0.015625h-0.03125v-0.03125h0.015625c0.0078125 0 0.015625-0.0078125 0.015625-0.015625v-0.015625zm0-0.0625h0.0625v0.046875h-0.0625z"/>
  </symbol>
  <symbol id="j" overflow="visible">
   <path d="m0.15625-0.15625v0.046875h-0.03125c0-0.007813-0.007812-0.015625-0.015625-0.015625-0.011719 0-0.023438 0.007812-0.03125 0.015625-0.011719 0.011719-0.015625 0.023438-0.015625 0.03125 0 0.011719 0.0039062 0.023438 0.015625 0.03125 0.0078125 0.011719 0.019531 0.015625 0.03125 0.015625h0.015625c0.007812-0.0078125 0.019531-0.015625 0.03125-0.015625v0.046875h-0.03125-0.03125c-0.023438 0-0.042969-0.0039062-0.0625-0.015625-0.011719-0.019531-0.015625-0.039062-0.015625-0.0625 0-0.019531 0.0039062-0.035156 0.015625-0.046875 0.019531-0.019531 0.039062-0.03125 0.0625-0.03125h0.03125 0.03125z"/>
  </symbol>
 </defs>
 <g>
  <path d="m108.86 397.99h202.72v-29.902h-202.72zm277.2 34.273h-29.176c-3.1914 0-5.8242-2.6328-5.8242-5.8242 0-3.2461 2.6328-5.8789 5.8242-5.8789h29.176c1.1211-4.4805 3.4141-8.5117 6.6094-11.703 4.1445-4.1445 9.6875-6.832 15.848-7.2227l14.672-54.824c0.55859-2.6328 2.9102-4.6484 5.7695-4.6484h14.168c4.1445-11.816 10.863-22.398 19.543-31.078 14.84-14.84 35.391-24.023 58.016-24.023 5.1523 0 10.137 0.44922 15.008 1.3438v-77.055c0-3.2461 2.5742-5.8789 5.8242-5.8789h17.695c3.1914 0 5.8242 2.6328 5.8242 5.8789 0 3.1914-2.6328 5.8242-5.8242 5.8242h-11.871v74.312c11.984 4.0898 22.68 10.863 31.414 19.602 14.84 14.895 24.078 35.391 24.078 58.07 0 22.68-9.2383 43.176-24.078 58.07-14.84 14.84-35.391 24.023-58.07 24.023-22.625 0-43.176-9.1836-58.016-24.023-14.895-14.895-24.078-35.391-24.078-58.07 0-5.2656 0.50391-10.359 1.457-15.344h-6.6641l-13.328 49.785c2.9102 1.2891 5.4883 3.0781 7.6719 5.2656h0.054687c4.4805 4.5352 7.2812 10.695 7.2812 17.586 0 6.832-2.8008 12.992-7.2812 17.527h-0.054687c-4.4805 4.4805-10.695 7.2812-17.527 7.2812s-13.047-2.8008-17.527-7.2812c-3.1914-3.1914-5.4883-7.2227-6.6094-11.703zm-4.3125-17.191c-1.3984 0-2.9102-0.16797-4.3672-0.50391h-0.054687l-0.78516-0.22266c-5.7695-1.5664-10.359-5.3203-13.16-10.137-2.8008-4.8164-3.7539-10.695-2.1836-16.465l22.008-82.207c1.625-6.1055 4.8164-10.809 9.8008-14.055 4.6484-3.0234 10.695-4.5938 18.258-4.5938h37.688c2.1836 0 3.8086-0.67188 4.9297-1.625 1.2891-1.1211 1.9023-2.4648 1.9023-3.4141v-29.062l-1.7344 1.0078c-1.8477 1.1211-4.0898 1.0078-5.8789 0l-54.77-31.641c-0.11328-0.054688-0.22266-0.11328-0.33594-0.22266-4.9844-3.0234-8.3438-7.7266-9.7422-12.938-1.457-5.375-0.83984-11.312 2.1289-16.465 3.0234-5.2656 7.8398-8.7344 13.215-10.191 5.375-1.3984 11.312-0.78516 16.52 2.1836l0.28125 0.16797 36.512 21.113 34.383-19.879c0.95312-0.61719 2.0703-0.95312 3.3047-0.95312h15.289c7.3906 0 13.609 2.8555 18.09 7.7852 4.3125 4.7617 6.832 11.426 6.832 19.098h-0.054687l0.054687 70.84c-3.0234-0.28125-6.0469-0.44922-9.1836-0.44922h-2.4648v-70.391h-0.054688c0-4.7617-1.3438-8.6797-3.7539-11.312-2.2383-2.4648-5.4883-3.9219-9.4648-3.9219h-13.777l-36.289 20.945c-1.7344 1.0078-3.9219 1.0625-5.7695 0l-39.48-22.793c-0.11328-0.054688-0.22266-0.11328-0.33594-0.16797-2.3516-1.3984-5.1523-1.6797-7.6172-1.0078-2.5195 0.67188-4.7617 2.2969-6.1602 4.7031-1.3438 2.4062-1.6797 5.1523-1.0078 7.6719 0.67188 2.4062 2.1836 4.5938 4.4805 5.9922l0.22266 0.11328 51.91 30.016 7.2227-4.1992c0.22266-0.16797 0.50391-0.28125 0.72656-0.44922l43.512-25.09c2.8008-1.625 6.3281-0.67188 7.9531 2.1289 1.625 2.7422 0.67188 6.3281-2.1289 7.9531l-40.938 23.633v35.785c0 3.8633-2.0156 8.793-6.0469 12.266-3.0234 2.5742-7.2227 4.4258-12.488 4.4258h-37.688c-5.207 0-9.1836 0.89453-11.871 2.6875-2.4648 1.625-4.0312 4.0312-4.9297 7.2812l-22.008 82.207-0.054688 0.16797c-0.67188 2.6328-0.22266 5.3203 1.0625 7.5039v0.054688c1.2305 2.1836 3.3594 3.8633 5.9922 4.6484h0.11328c2.7422 0.72656 5.4336 0.28125 7.6719-1.0078 2.2383-1.2305 3.9766-3.4141 4.7031-6.1055l17.863-66.863c0.72656-2.5742 3.0781-4.3125 5.6562-4.3125h30.465c-2.1836 3.6953-4.1445 7.6172-5.7695 11.648h-20.215l-16.07 60.031c-5.9375 1.2305-11.199 4.1992-15.289 8.2891-2.9102 2.9102-5.2656 6.4414-6.832 10.305zm47.824-242.37c2.8008 1.625 3.7539 5.1523 2.1289 7.9531-1.5664 2.8008-5.1523 3.7539-7.8945 2.1289l-33.824-19.488c-2.7422-1.625-3.7539-5.1523-2.1289-7.9531 1.625-2.7422 5.1523-3.7539 7.9531-2.1289l33.77 19.488zm88.648-28.727c0-6.4961-2.6328-12.434-6.8867-16.633v-0.054687c-4.2578-4.2578-10.137-6.8867-16.688-6.8867-6.4961 0-12.375 2.6328-16.633 6.9453-4.2578 4.2578-6.8867 10.137-6.8867 16.633 0 6.5508 2.6328 12.434 6.832 16.633l0.054687 0.054687c4.2578 4.2578 10.137 6.8867 16.633 6.8867 6.5508 0 12.434-2.6328 16.688-6.8867v-0.054687c4.2578-4.1992 6.8867-10.078 6.8867-16.633zm1.3438-24.922v0.054687c6.3828 6.3828 10.305 15.176 10.305 24.863s-3.9219 18.48-10.305 24.863v0.054687c-6.3828 6.3828-15.23 10.305-24.922 10.305-9.6875 0-18.48-3.9219-24.863-10.305v-0.054687c-6.3828-6.3828-10.359-15.176-10.359-24.863 0-9.7422 3.9766-18.535 10.359-24.922 6.3281-6.3828 15.176-10.305 24.863-10.305s18.535 3.9219 24.922 10.305zm50.961 200.26c-12.77-12.711-30.352-20.609-49.84-20.609-19.434 0-37.016 7.8945-49.785 20.609-12.77 12.77-20.609 30.406-20.609 49.84s7.8398 37.07 20.609 49.785c12.77 12.77 30.352 20.664 49.785 20.664 19.488 0 37.07-7.8945 49.84-20.664 12.711-12.711 20.609-30.352 20.609-49.785s-7.8945-37.07-20.609-49.84zm-151.03 97.777c-2.3516-2.4062-5.6562-3.8633-9.2969-3.8633s-6.9453 1.5117-9.2969 3.8633c-2.4062 2.3516-3.8633 5.6562-3.8633 9.3516 0 3.6406 1.457 6.9453 3.8633 9.2969 2.3516 2.3516 5.6562 3.8633 9.2969 3.8633s6.9453-1.5117 9.3516-3.8633c2.3516-2.3516 3.8086-5.6562 3.8086-9.2969 0-3.6953-1.457-7-3.8086-9.3516zm-249.14-129.02-15.121-12.488v-0.054687l-0.054688 0.054687c-5.0977-4.2578-9.5742-5.7109-13.832-5.2656-4.6484 0.50391-9.5742 3.1914-15.121 7.1133-2.5742 1.8477-6.2148 1.2305-8.1211-1.3438-1.8477-2.6328-1.2305-6.2734 1.3984-8.1211 7-5.0391 13.664-8.457 20.664-9.1836 7.3906-0.78516 14.672 1.3984 22.457 7.7852l16.129 13.328 24.078-23.297c8.5117-8.3438 16.91-11.594 25.594-11.367 8.3438 0.22266 16.574 3.6953 25.426 8.9609l46.703 28.113c2.7422 1.625 3.6406 5.207 1.9609 7.9531-1.625 2.8008-5.207 3.6953-7.9531 2.0156l-46.703-28.055c-7.2227-4.3672-13.719-7.2227-19.656-7.3906-5.6016-0.11328-11.199 2.1836-17.305 8.0625l-35.617 34.609c-2.2969 2.2383-5.9922 2.1836-8.2305-0.11328s-2.1836-5.9922 0.11328-8.2305l3.1914-3.0781zm5.8789-75.938c5.8789 0 11.199 2.3516 15.062 6.2148 3.8633 3.8633 6.2734 9.1836 6.2734 15.062s-2.4062 11.199-6.2734 15.062c-3.8633 3.8633-9.1836 6.2148-15.062 6.2148-5.8789 0-11.199-2.3516-15.008-6.2148h-0.054687c-3.8633-3.8633-6.2148-9.1836-6.2148-15.062s2.3516-11.199 6.2148-15.062h0.054687c3.8086-3.8633 9.1289-6.2148 15.008-6.2148zm6.832 14.449c-1.7344-1.7344-4.1445-2.8008-6.832-2.8008-2.6328 0-5.0977 1.0625-6.832 2.8008h0.054687c-1.7344 1.7344-2.8555 4.1992-2.8555 6.832 0 2.6875 1.0625 5.0977 2.8008 6.832 1.7344 1.7344 4.1992 2.8008 6.832 2.8008 2.6875 0 5.0977-1.0625 6.832-2.8008 1.7344-1.7344 2.8008-4.1445 2.8008-6.832 0-2.6328-1.0625-5.0977-2.8008-6.832zm-80.023-44.969h220.19v149.02h-107.18v8.6797h62.441v11.648h-136.53v-11.648h62.441v-8.6797h-107.24v-149.02h5.8789zm208.54 11.648h-202.72v125.72h202.72zm-98.449 184.74c-2.8008-1.625-6.3828-0.67188-8.0078 2.1289-1.5664 2.8008-0.61719 6.3828 2.1836 8.0078 2.7422 1.5664 6.3281 0.61719 7.9531-2.1836 1.625-2.7422 0.67188-6.3281-2.1289-7.9531zm110.1 67.426v5.8242h-226.07v-5.8242-83.16-5.8242h226.07v5.8242 83.16zm-107.18-20.777c0 3.1914-2.6328 5.8242-5.8242 5.8242-3.2461 0-5.8242-2.6328-5.8242-5.8242 0-3.2461 2.5742-5.8789 5.8242-5.8789 3.1914 0 5.8242 2.6328 5.8242 5.8789zm95.535-14.953h-202.72v29.902h202.72z"/>
  <use x="70" y="560.839844" xlink:href="#t"/>
  <use x="70.207031" y="560.839844" xlink:href="#c"/>
  <use x="70.34375" y="560.839844" xlink:href="#a"/>
  <use x="70.535156" y="560.839844" xlink:href="#f"/>
  <use x="70.722656" y="560.839844" xlink:href="#b"/>
  <use x="70.855469" y="560.839844" xlink:href="#a"/>
  <use x="71.046875" y="560.839844" xlink:href="#e"/>
  <use x="71.34375" y="560.839844" xlink:href="#i"/>
  <use x="71.542969" y="560.839844" xlink:href="#h"/>
  <use x="71.824219" y="560.839844" xlink:href="#g"/>
  <use x="72.058594" y="560.839844" xlink:href="#f"/>
  <use x="72.246094" y="560.839844" xlink:href="#e"/>
  <use x="72.449219" y="560.839844" xlink:href="#s"/>
  <use x="70" y="561.121094" xlink:href="#r"/>
  <use x="70.121094" y="561.121094" xlink:href="#c"/>
  <use x="70.261719" y="561.121094" xlink:href="#d"/>
  <use x="70.453125" y="561.121094" xlink:href="#q"/>
  <use x="70.839844" y="561.121094" xlink:href="#b"/>
  <use x="70.976562" y="561.121094" xlink:href="#p"/>
  <use x="71.175781" y="561.121094" xlink:href="#a"/>
  <use x="71.460938" y="561.121094" xlink:href="#o"/>
  <use x="71.695312" y="561.121094" xlink:href="#d"/>
  <use x="71.890625" y="561.121094" xlink:href="#n"/>
  <use x="72.089844" y="561.121094" xlink:href="#m"/>
  <use x="72.386719" y="561.121094" xlink:href="#l"/>
  <use x="72.589844" y="561.121094" xlink:href="#c"/>
  <use x="72.726562" y="561.121094" xlink:href="#d"/>
  <use x="72.921875" y="561.121094" xlink:href="#k"/>
  <use x="73.015625" y="561.121094" xlink:href="#a"/>
  <use x="73.207031" y="561.121094" xlink:href="#j"/>
  <use x="73.371094" y="561.121094" xlink:href="#b"/>
 </g>
</svg>
