<?xml version="1.0" encoding="UTF-8"?>
<svg width="700pt" height="700pt" version="1.1" viewBox="0 0 700 700" xmlns="http://www.w3.org/2000/svg" xmlns:xlink="http://www.w3.org/1999/xlink">
 <defs>
  <symbol id="t" overflow="visible">
   <path d="m0.1875-0.015625c-0.011719 0.011719-0.023438 0.015625-0.03125 0.015625h-0.03125c-0.03125 0-0.058594-0.0039062-0.078125-0.015625-0.023438-0.019531-0.03125-0.046875-0.03125-0.078125 0-0.039062 0.0078125-0.066406 0.03125-0.078125 0.019531-0.019531 0.046875-0.03125 0.078125-0.03125h0.03125c0.007812 0 0.019531 0.007813 0.03125 0.015625v0.03125h-0.03125c-0.011719-0.007812-0.023438-0.015625-0.03125-0.015625-0.023438 0-0.039062 0.007813-0.046875 0.015625-0.011719 0.011719-0.015625 0.03125-0.015625 0.0625 0 0.023438 0.0039062 0.039062 0.015625 0.046875 0.0078125 0.011719 0.023437 0.015625 0.046875 0.015625h0.03125c0.007812-0.0078125 0.019531-0.015625 0.03125-0.015625z"/>
  </symbol>
  <symbol id="c" overflow="visible">
   <path d="m0.14062-0.10938h-0.015625c0-0.007813-0.007812-0.015625-0.015625-0.015625-0.011719 0-0.023438 0.007812-0.03125 0.015625v0.046875 0.0625h-0.0625v-0.15625h0.0625v0.03125c0-0.007812 0.0039062-0.015625 0.015625-0.015625 0.007812-0.007813 0.019531-0.015625 0.03125-0.015625h0.015625z"/>
  </symbol>
  <symbol id="a" overflow="visible">
   <path d="m0.17188-0.078125v0.015625h-0.10938v0.03125h0.046875 0.03125c0.007813-0.0078125 0.019531-0.015625 0.03125-0.015625v0.03125c-0.011719 0.011719-0.023437 0.015625-0.03125 0.015625h-0.046875c-0.023438 0-0.042969-0.0039062-0.0625-0.015625-0.011719-0.019531-0.015625-0.039062-0.015625-0.0625 0-0.019531 0.0039062-0.035156 0.015625-0.046875 0.019531-0.019531 0.039062-0.03125 0.0625-0.03125 0.019531 0 0.035156 0.011719 0.046875 0.03125 0.019531 0.011719 0.03125 0.027344 0.03125 0.046875zm-0.046875-0.015625c0-0.007812-0.007812-0.015625-0.015625-0.015625 0-0.007813-0.007813-0.015625-0.015625-0.015625-0.011719 0-0.023438 0.007812-0.03125 0.015625v0.015625z"/>
  </symbol>
  <symbol id="f" overflow="visible">
   <path d="m0.09375-0.0625h-0.03125v0.015625 0.015625h0.015625 0.03125c0.007813-0.0078125 0.015625-0.019531 0.015625-0.03125zm0.078125-0.03125v0.09375h-0.046875v-0.015625c-0.011719 0-0.023438 0.0078125-0.03125 0.015625h-0.03125-0.03125c-0.011719-0.0078125-0.015625-0.023438-0.015625-0.046875 0-0.019531 0.0039062-0.03125 0.015625-0.03125 0.0078125-0.0078125 0.03125-0.015625 0.0625-0.015625h0.03125c0-0.007812-0.007812-0.015625-0.015625-0.015625-0.011719-0.007813-0.023438-0.015625-0.03125-0.015625h-0.03125c-0.011719 0-0.015625 0.007812-0.015625 0.015625v-0.046875h0.03125 0.03125c0.019531 0 0.035156 0.007812 0.046875 0.015625 0.019531 0.011719 0.03125 0.027344 0.03125 0.046875z"/>
  </symbol>
  <symbol id="b" overflow="visible">
   <path d="m0.078125-0.20312v0.046875h0.046875v0.03125h-0.046875v0.078125 0.015625h0.015625 0.03125v0.03125h-0.046875c-0.023438 0-0.039062-0.0039062-0.046875-0.015625v-0.03125-0.078125h-0.03125v-0.03125h0.03125v-0.046875z"/>
  </symbol>
  <symbol id="e" overflow="visible">
   <path d="m0.125-0.125v-0.09375h0.046875v0.21875h-0.046875v-0.015625s-0.007812 0.0078125-0.015625 0.015625h-0.03125c-0.023438 0-0.039062-0.0039062-0.046875-0.015625-0.011719-0.019531-0.015625-0.039062-0.015625-0.0625 0-0.019531 0.0039062-0.035156 0.015625-0.046875 0.0078125-0.019531 0.023438-0.03125 0.046875-0.03125 0.0078125 0 0.019531 0.007812 0.03125 0.015625 0.007813 0 0.015625 0.007813 0.015625 0.015625zm-0.03125 0.09375h0.015625c0.007813-0.0078125 0.015625-0.023438 0.015625-0.046875 0-0.0078125-0.007812-0.019531-0.015625-0.03125 0-0.007813-0.007813-0.015625-0.015625-0.015625-0.011719 0-0.023438 0.007812-0.03125 0.015625v0.03125 0.046875h0.03125z"/>
  </symbol>
  <symbol id="i" overflow="visible">
   <path d="m0.10938-0.03125h0.015625c0.007812-0.0078125 0.015625-0.023438 0.015625-0.046875 0-0.0078125-0.007813-0.019531-0.015625-0.03125 0-0.007813-0.007812-0.015625-0.015625-0.015625-0.011719 0-0.023438 0.007812-0.03125 0.015625v0.03125 0.03125c0.0078125 0.011719 0.019531 0.015625 0.03125 0.015625zm-0.03125-0.09375c0-0.007812 0.0039062-0.015625 0.015625-0.015625 0.007812-0.007813 0.019531-0.015625 0.03125-0.015625 0.019531 0 0.035156 0.011719 0.046875 0.03125 0.007813 0.011719 0.015625 0.027344 0.015625 0.046875 0 0.023438-0.007812 0.042969-0.015625 0.0625-0.011719 0.011719-0.027344 0.015625-0.046875 0.015625h-0.03125c-0.011719-0.0078125-0.015625-0.015625-0.015625-0.015625v0.015625h-0.0625v-0.21875h0.0625z"/>
  </symbol>
  <symbol id="h" overflow="visible">
   <path d="m0-0.15625h0.046875l0.046875 0.10938 0.03125-0.10938h0.046875l-0.0625 0.17188c0 0.019531-0.007813 0.03125-0.015625 0.03125-0.011719 0.0078125-0.023438 0.015625-0.03125 0.015625h-0.03125v-0.03125h0.015625c0.0078125 0 0.015625-0.0078125 0.015625-0.015625v-0.015625z"/>
  </symbol>
  <symbol id="g" overflow="visible">
   <path d="m0.03125-0.20312h0.046875v0.078125h0.078125v-0.078125h0.046875v0.20312h-0.046875v-0.09375h-0.078125v0.09375h-0.046875z"/>
  </symbol>
  <symbol id="s" overflow="visible">
   <path d="m0.015625-0.15625h0.0625v0.15625h-0.0625zm0-0.0625h0.0625v0.046875h-0.0625z"/>
  </symbol>
  <symbol id="r" overflow="visible">
   <path d="m0.125-0.21875v0.046875h-0.03125-0.015625v0.015625h0.046875v0.03125h-0.046875v0.125h-0.046875v-0.125h-0.03125v-0.03125h0.03125c0-0.019531 0.0039062-0.035156 0.015625-0.046875 0.0078125-0.007813 0.023438-0.015625 0.046875-0.015625z"/>
  </symbol>
  <symbol id="d" overflow="visible">
   <path d="m0.09375-0.125c-0.011719 0-0.023438 0.007812-0.03125 0.015625v0.03125 0.046875h0.03125 0.015625c0.007813-0.0078125 0.015625-0.023438 0.015625-0.046875 0-0.0078125-0.007812-0.019531-0.015625-0.03125 0-0.007813-0.007813-0.015625-0.015625-0.015625zm0-0.03125c0.03125 0 0.050781 0.011719 0.0625 0.03125 0.007812 0.011719 0.015625 0.027344 0.015625 0.046875 0 0.023438-0.007813 0.042969-0.015625 0.0625-0.011719 0.011719-0.03125 0.015625-0.0625 0.015625-0.023438 0-0.042969-0.0039062-0.0625-0.015625-0.011719-0.019531-0.015625-0.039062-0.015625-0.0625 0-0.019531 0.0039062-0.035156 0.015625-0.046875 0.019531-0.019531 0.039062-0.03125 0.0625-0.03125z"/>
  </symbol>
  <symbol id="q" overflow="visible">
   <path d="m0.17188-0.125c0-0.007812 0.003906-0.015625 0.015625-0.015625 0.007812-0.007813 0.019531-0.015625 0.03125-0.015625 0.007812 0 0.019531 0.007812 0.03125 0.015625 0.007812 0.011719 0.015625 0.027344 0.015625 0.046875v0.09375h-0.046875v-0.078125-0.015625c0-0.007812-0.007812-0.015625-0.015625-0.015625v-0.015625c-0.011719 0-0.023437 0.007812-0.03125 0.015625v0.03125 0.078125h-0.046875v-0.078125c0-0.019531-0.007812-0.03125-0.015625-0.03125 0-0.007813-0.007813-0.015625-0.015625-0.015625 0 0-0.0078125 0.007812-0.015625 0.015625v0.03125 0.078125h-0.0625v-0.15625h0.0625v0.03125c0-0.007812 0.0039062-0.015625 0.015625-0.015625 0.007812-0.007813 0.019531-0.015625 0.03125-0.015625 0.007812 0 0.015625 0.007812 0.015625 0.015625 0.007813 0 0.019531 0.007813 0.03125 0.015625z"/>
  </symbol>
  <symbol id="p" overflow="visible">
   <path d="m0.17188-0.09375v0.09375h-0.046875v-0.0625-0.03125-0.015625h-0.015625v-0.015625c-0.011719 0-0.023438 0.007812-0.03125 0.015625v0.03125 0.078125h-0.0625v-0.21875h0.0625v0.09375c0-0.007812 0.0039062-0.015625 0.015625-0.015625 0.007812-0.007813 0.019531-0.015625 0.03125-0.015625 0.019531 0 0.03125 0.007812 0.03125 0.015625 0.007812 0.011719 0.015625 0.027344 0.015625 0.046875z"/>
  </symbol>
  <symbol id="o" overflow="visible">
   <path d="m0.03125-0.20312h0.046875l0.078125 0.14062v-0.14062h0.046875v0.20312h-0.046875l-0.078125-0.14062v0.14062h-0.046875z"/>
  </symbol>
  <symbol id="n" overflow="visible">
   <path d="m0.015625-0.0625v-0.09375h0.046875v0.015625 0.03125 0.03125 0.03125h0.015625v0.015625h0.015625c0.007812 0 0.015625-0.0039062 0.015625-0.015625 0.007813-0.0078125 0.015625-0.019531 0.015625-0.03125v-0.078125h0.046875v0.15625h-0.046875v-0.015625c-0.011719 0-0.023438 0.0078125-0.03125 0.015625h-0.015625c-0.023438 0-0.039062-0.0039062-0.046875-0.015625-0.011719-0.0078125-0.015625-0.023438-0.015625-0.046875z"/>
  </symbol>
  <symbol id="m" overflow="visible">
   <path d="m0.17188-0.09375v0.09375h-0.046875v-0.0625-0.03125-0.015625h-0.015625v-0.015625c-0.011719 0-0.023438 0.007812-0.03125 0.015625v0.03125 0.078125h-0.0625v-0.15625h0.0625v0.03125c0-0.007812 0.0039062-0.015625 0.015625-0.015625 0.007812-0.007813 0.019531-0.015625 0.03125-0.015625 0.019531 0 0.03125 0.007812 0.03125 0.015625 0.007812 0.011719 0.015625 0.027344 0.015625 0.046875z"/>
  </symbol>
  <symbol id="l" overflow="visible">
   <path d="m0.03125-0.20312h0.078125c0.03125 0 0.050781 0.007813 0.0625 0.015625 0.007813 0.011719 0.015625 0.027344 0.015625 0.046875 0 0.023437-0.007812 0.042969-0.015625 0.0625-0.011719 0.011719-0.03125 0.015625-0.0625 0.015625h-0.03125v0.0625h-0.046875zm0.046875 0.03125v0.0625h0.03125 0.015625c0.007812-0.007813 0.015625-0.019531 0.015625-0.03125 0-0.007813-0.007813-0.015625-0.015625-0.015625 0-0.007812-0.007812-0.015625-0.015625-0.015625z"/>
  </symbol>
  <symbol id="k" overflow="visible">
   <path d="m0.015625-0.15625h0.0625v0.15625c0 0.019531-0.0078125 0.035156-0.015625 0.046875-0.011719 0.0078125-0.027344 0.015625-0.046875 0.015625h-0.03125v-0.03125h0.015625c0.0078125 0 0.015625-0.0078125 0.015625-0.015625v-0.015625zm0-0.0625h0.0625v0.046875h-0.0625z"/>
  </symbol>
  <symbol id="j" overflow="visible">
   <path d="m0.15625-0.15625v0.046875h-0.03125c0-0.007813-0.007812-0.015625-0.015625-0.015625-0.011719 0-0.023438 0.007812-0.03125 0.015625-0.011719 0.011719-0.015625 0.023438-0.015625 0.03125 0 0.011719 0.0039062 0.023438 0.015625 0.03125 0.0078125 0.011719 0.019531 0.015625 0.03125 0.015625h0.015625c0.007812-0.0078125 0.019531-0.015625 0.03125-0.015625v0.046875h-0.03125-0.03125c-0.023438 0-0.042969-0.0039062-0.0625-0.015625-0.011719-0.019531-0.015625-0.039062-0.015625-0.0625 0-0.019531 0.0039062-0.035156 0.015625-0.046875 0.019531-0.019531 0.039062-0.03125 0.0625-0.03125h0.03125 0.03125z"/>
  </symbol>
 </defs>
 <g>
  <path d="m280.67 274.79h-40.711l-1.1758-4.3125-21.336-79.742 11.258-3.0234 20.16 75.434h23.129c1.3438 3.5273 3.4727 6.7773 6.1602 9.4062 0.78516 0.78516 1.625 1.5664 2.5195 2.2383zm-19.152 138.88c-1.457-0.054687-2.9102-0.22266-4.3672-0.55859h-0.054688l-0.78516-0.16797c-5.7695-1.5664-10.359-5.3203-13.16-10.137-2.8008-4.8164-3.7539-10.695-2.1836-16.52l22.008-82.207c1.625-6.0469 4.8164-10.754 9.8008-14 4.6484-3.0781 10.695-4.6484 18.258-4.6484h37.688c6.3281 0 9.7422-0.78516 11.535-2.1836 1.5117-1.1758 2.2969-3.3047 3.1367-5.8789l0.67188-2.5742h-46.426c-5.9922 0-11.426-2.4648-15.344-6.3828h-0.054687c-3.9219-3.9219-6.3281-9.3516-6.3281-15.344 0-5.9922 2.4062-11.426 6.3281-15.398h0.054687c3.9219-3.9219 9.3516-6.3828 15.344-6.3828h43.793l6.0469-26.824 0.054687-0.22266v-0.16797l0.054688-0.054688 0.11328-0.39062 0.054687-0.054687v-0.054688c2.9688-7.3906 8.0625-19.992 26.039-19.992h10.922c7.3359 0 13.609 2.8555 18.031 7.7852 4.3672 4.8164 6.8867 11.426 6.8867 19.098h-0.054688l0.054688 70.895c-3.0234-0.33594-6.1055-0.50391-9.1836-0.50391-0.78516 0-1.625 0.054688-2.4648 0.054688v-70.449h-0.054687c0-4.7031-1.3438-8.625-3.7539-11.258-2.2383-2.5195-5.543-3.9766-9.4648-3.9766h-10.922c-9.9102 0-13.215 7.5586-15.121 12.266l-6.8867 30.969c-0.61719 2.6875-3.0234 4.5352-5.7109 4.5352v0.054688h-48.609c-2.7422 0-5.207 1.1211-6.9453 2.9102h-0.054687c-1.793 1.8477-2.9102 4.3672-2.9102 7.168 0 2.7422 1.1211 5.2656 2.9688 7.1133 1.793 1.8477 4.3125 2.9688 7.1133 2.9688h70.168l7.2812-26.77c0.83984-3.0781 4.0312-4.8711 7.168-4.0312 3.0781 0.83984 4.9297 4.0312 4.0312 7.1133l-8.3984 30.91c-0.61719 2.5195-2.9102 4.4258-5.6562 4.4258h-16.07l-1.5117 5.543-0.11328 0.28125c-1.457 4.6484-3.0234 8.625-7.168 11.816-3.8086 2.9688-9.4648 4.7031-18.648 4.7031h-37.688c-5.2656 0-9.1836 0.89453-11.871 2.6875-2.4648 1.5664-4.0312 4.0312-4.9297 7.2812l-22.008 82.207h-0.054687v0.11328c-0.67188 2.6875-0.22266 5.375 1.0078 7.5586 1.2891 2.1836 3.4141 3.9219 6.0469 4.6484l0.11328 0.054688c2.6875 0.72656 5.4336 0.28125 7.6719-1.0078 2.2383-1.2891 3.9219-3.4141 4.6484-6.1055l0.054688-0.054688 17.863-66.809c0.67188-2.6328 3.0781-4.3125 5.6562-4.3125v-0.054687h30.465c-2.1836 3.7539-4.1445 7.6719-5.7695 11.703h-20.273l-16.016 59.977c-5.9375 1.2891-11.199 4.1992-15.289 8.3438-2.9688 2.9102-5.2656 6.3828-6.832 10.305zm117.43-268.3c0-6.4961-2.6328-12.375-6.8867-16.633-4.2578-4.2578-10.191-6.8867-16.688-6.8867s-12.375 2.6328-16.633 6.8867h-0.054688c-4.1992 4.2578-6.832 10.137-6.832 16.633 0 6.5508 2.6328 12.434 6.8867 16.688 4.2578 4.2578 10.137 6.8867 16.633 6.8867s12.434-2.6328 16.688-6.8867c4.2578-4.2578 6.8867-10.137 6.8867-16.688zm1.3438-24.863c6.3828 6.3281 10.305 15.176 10.305 24.863 0 9.7422-3.9219 18.535-10.305 24.922-6.3828 6.3828-15.176 10.305-24.922 10.305-9.6875 0-18.535-3.9219-24.863-10.305-6.3828-6.3828-10.359-15.176-10.359-24.922 0-9.6875 3.9766-18.48 10.359-24.863 6.3828-6.3828 15.176-10.359 24.863-10.359 9.7422 0 18.535 3.9766 24.922 10.359zm58.688 83.551c3.1914 0 5.8242 2.6328 5.8242 5.8242 0 3.2461-2.6328 5.8242-5.8242 5.8242h-11.871v74.312c11.93 4.1445 22.68 10.922 31.414 19.656 14.84 14.84 24.023 35.391 24.023 58.07 0 22.625-9.1836 43.176-24.023 58.016s-35.391 24.078-58.07 24.078c-22.68 0-43.176-9.2383-58.016-24.078-14.895-14.84-24.078-35.391-24.078-58.016 0-5.2656 0.50391-10.359 1.457-15.344h-6.6641l-13.328 49.785c2.8555 1.2305 5.4883 3.0234 7.6719 5.2656 4.5352 4.4805 7.2812 10.695 7.2812 17.527s-2.7422 13.047-7.2812 17.527v0.054687c-4.4805 4.4805-10.695 7.2812-17.527 7.2812-6.832 0-13.047-2.8008-17.527-7.2812v-0.054687h-0.054687c-3.1367-3.1914-5.4883-7.2227-6.5508-11.703h-29.176c-3.2461 0-5.8242-2.5742-5.8242-5.8242 0-3.1914 2.5742-5.8242 5.8242-5.8242h29.176c1.0625-4.4805 3.4141-8.5117 6.5508-11.703h0.054687c4.1445-4.1445 9.6875-6.832 15.848-7.2227l14.672-54.824c0.55859-2.6875 2.9102-4.6484 5.7109-4.6484h14.223c4.1445-11.816 10.863-22.457 19.543-31.078 14.84-14.895 35.336-24.078 58.016-24.078 5.0977 0 10.137 0.50391 14.953 1.3984v-77.113c0-3.1914 2.6328-5.8242 5.8789-5.8242h17.695zm11.312 113.85c-12.77-12.711-30.352-20.609-49.84-20.609-19.434 0-37.07 7.8945-49.785 20.609-12.77 12.77-20.664 30.352-20.664 49.84 0 19.434 7.8945 37.016 20.664 49.785 12.711 12.711 30.352 20.609 49.785 20.609 19.488 0 37.07-7.8945 49.84-20.609 12.711-12.77 20.609-30.352 20.609-49.785 0-19.488-7.8945-37.07-20.609-49.84zm-151.03 97.719c-2.3516-2.3516-5.6562-3.8086-9.2969-3.8086s-6.9453 1.457-9.2969 3.8086l-0.054687 0.054688c-2.3516 2.3516-3.8086 5.6562-3.8086 9.2969s1.457 6.9453 3.8086 9.2969l0.054687 0.054687c2.3516 2.3516 5.6562 3.8086 9.2969 3.8086s6.9453-1.457 9.2969-3.8086c2.4062-2.4062 3.8633-5.7109 3.8633-9.3516s-1.457-6.9453-3.8086-9.2969z"/>
  <use x="70" y="560.839844" xlink:href="#t"/>
  <use x="70.207031" y="560.839844" xlink:href="#c"/>
  <use x="70.34375" y="560.839844" xlink:href="#a"/>
  <use x="70.535156" y="560.839844" xlink:href="#f"/>
  <use x="70.722656" y="560.839844" xlink:href="#b"/>
  <use x="70.855469" y="560.839844" xlink:href="#a"/>
  <use x="71.046875" y="560.839844" xlink:href="#e"/>
  <use x="71.34375" y="560.839844" xlink:href="#i"/>
  <use x="71.542969" y="560.839844" xlink:href="#h"/>
  <use x="71.824219" y="560.839844" xlink:href="#g"/>
  <use x="72.058594" y="560.839844" xlink:href="#f"/>
  <use x="72.246094" y="560.839844" xlink:href="#e"/>
  <use x="72.449219" y="560.839844" xlink:href="#s"/>
  <use x="70" y="561.121094" xlink:href="#r"/>
  <use x="70.121094" y="561.121094" xlink:href="#c"/>
  <use x="70.261719" y="561.121094" xlink:href="#d"/>
  <use x="70.453125" y="561.121094" xlink:href="#q"/>
  <use x="70.839844" y="561.121094" xlink:href="#b"/>
  <use x="70.976562" y="561.121094" xlink:href="#p"/>
  <use x="71.175781" y="561.121094" xlink:href="#a"/>
  <use x="71.460938" y="561.121094" xlink:href="#o"/>
  <use x="71.695312" y="561.121094" xlink:href="#d"/>
  <use x="71.890625" y="561.121094" xlink:href="#n"/>
  <use x="72.089844" y="561.121094" xlink:href="#m"/>
  <use x="72.386719" y="561.121094" xlink:href="#l"/>
  <use x="72.589844" y="561.121094" xlink:href="#c"/>
  <use x="72.726562" y="561.121094" xlink:href="#d"/>
  <use x="72.921875" y="561.121094" xlink:href="#k"/>
  <use x="73.015625" y="561.121094" xlink:href="#a"/>
  <use x="73.207031" y="561.121094" xlink:href="#j"/>
  <use x="73.371094" y="561.121094" xlink:href="#b"/>
 </g>
</svg>
